G04 #@! TF.GenerationSoftware,KiCad,Pcbnew,(5.1.4)-1*
G04 #@! TF.CreationDate,2020-06-13T17:24:10-04:00*
G04 #@! TF.ProjectId,Keypad,4b657970-6164-42e6-9b69-6361645f7063,rev?*
G04 #@! TF.SameCoordinates,Original*
G04 #@! TF.FileFunction,Copper,L2,Bot*
G04 #@! TF.FilePolarity,Positive*
%FSLAX46Y46*%
G04 Gerber Fmt 4.6, Leading zero omitted, Abs format (unit mm)*
G04 Created by KiCad (PCBNEW (5.1.4)-1) date 2020-06-13 17:24:10*
%MOMM*%
%LPD*%
G04 APERTURE LIST*
%ADD10C,1.300000*%
%ADD11R,1.300000X1.300000*%
%ADD12R,1.400000X0.975000*%
%ADD13C,1.524000*%
%ADD14R,1.524000X1.524000*%
%ADD15C,2.200000*%
%ADD16C,7.000000*%
%ADD17O,1.800000X0.900000*%
%ADD18C,0.800000*%
%ADD19C,0.600000*%
%ADD20C,0.750000*%
%ADD21C,0.300000*%
%ADD22C,1.000000*%
%ADD23C,0.400000*%
%ADD24C,0.254000*%
G04 APERTURE END LIST*
D10*
X99872800Y-88671400D03*
X98602800Y-87401400D03*
D11*
X101142800Y-87401400D03*
D12*
X97409000Y-98427300D03*
X97409000Y-100302300D03*
X95504000Y-100302300D03*
X95504000Y-98427300D03*
D13*
X93433900Y-79225140D03*
X93433900Y-76685140D03*
X93433900Y-81765140D03*
D14*
X93433900Y-84305140D03*
D15*
X176796700Y-79796640D03*
X174256700Y-73446640D03*
X157736540Y-79796640D03*
X155196540Y-73446640D03*
X138676380Y-79796640D03*
X136136380Y-73446640D03*
X176796700Y-98813620D03*
X174256700Y-92463620D03*
X157736540Y-98813620D03*
X155196540Y-92463620D03*
X138676380Y-98813620D03*
X136136380Y-92463620D03*
X176796700Y-117833140D03*
X174256700Y-111483140D03*
X157736540Y-117833140D03*
X155196540Y-111483140D03*
X138676380Y-117833140D03*
X136136380Y-111483140D03*
D16*
X93560900Y-70716140D03*
X93560900Y-119230140D03*
X193890900Y-119230140D03*
X193890900Y-70716140D03*
D17*
X90817700Y-91673140D03*
X90817700Y-98273140D03*
D18*
X104429560Y-91092020D03*
X123527820Y-101793040D03*
X125432820Y-101793040D03*
X113753900Y-119687340D03*
X109715300Y-117287040D03*
X108572300Y-102834440D03*
X108572300Y-100954840D03*
X108762800Y-110302040D03*
X107442000Y-112143540D03*
X107442000Y-114035840D03*
X106184700Y-119674640D03*
X117678200Y-110314740D03*
X123532900Y-110035340D03*
X103083360Y-115778280D03*
X99402900Y-100561140D03*
X99402900Y-102593140D03*
X104482900Y-100561140D03*
X104482900Y-102593140D03*
X101942900Y-103609140D03*
X99402900Y-104625140D03*
X104482900Y-104625140D03*
X119113300Y-119166640D03*
X122428000Y-114531140D03*
X122428000Y-116436140D03*
X114678900Y-105042140D03*
X119547200Y-105423140D03*
X114287740Y-109923140D03*
X92176600Y-101727000D03*
D19*
X99314000Y-94894400D03*
X96799159Y-94722353D03*
D18*
X94996000Y-96710500D03*
X110705900Y-104929940D03*
X94996000Y-93218000D03*
D19*
X96520000Y-95504000D03*
D18*
X105166160Y-97015300D03*
X110698280Y-106918760D03*
X96248220Y-96507300D03*
X114642900Y-100053140D03*
D20*
X99398060Y-100556300D02*
X99402900Y-100561140D01*
X99144060Y-100302300D02*
X99402900Y-100561140D01*
X97409000Y-100302300D02*
X99144060Y-100302300D01*
D21*
X110629700Y-104853740D02*
X110705900Y-104929940D01*
X110705900Y-100078540D02*
X110705900Y-104929940D01*
X112687100Y-98097340D02*
X110705900Y-100078540D01*
X112687100Y-92544900D02*
X112687100Y-98097340D01*
X93433900Y-81765140D02*
X101907340Y-81765140D01*
X101907340Y-81765140D02*
X112687100Y-92544900D01*
D22*
X136169400Y-75002274D02*
X136169400Y-111546640D01*
X136169400Y-73446640D02*
X136169400Y-75002274D01*
X155219400Y-73446640D02*
X155219400Y-111546640D01*
X174269400Y-75002274D02*
X174269400Y-111546640D01*
X174269400Y-73446640D02*
X174269400Y-75002274D01*
D23*
X94996000Y-93218000D02*
X94996000Y-93980000D01*
X94996000Y-93980000D02*
X96520000Y-95504000D01*
D22*
X91818700Y-100302300D02*
X95504000Y-100302300D01*
X90817700Y-98273140D02*
X90817700Y-99301300D01*
X90817700Y-99301300D02*
X91818700Y-100302300D01*
D21*
X105166160Y-97580985D02*
X107144820Y-99559645D01*
X105166160Y-97015300D02*
X105166160Y-97580985D01*
X107144820Y-99559645D02*
X107144820Y-104178100D01*
X107144820Y-104178100D02*
X109885480Y-106918760D01*
X109885480Y-106918760D02*
X110698280Y-106918760D01*
D23*
X96248220Y-96507300D02*
X96845120Y-96507300D01*
X97409000Y-97071180D02*
X97409000Y-98427300D01*
X96845120Y-96507300D02*
X97409000Y-97071180D01*
D21*
X115150900Y-99545140D02*
X114642900Y-100053140D01*
X115150900Y-91442540D02*
X115150900Y-99545140D01*
X102933500Y-79225140D02*
X115150900Y-91442540D01*
X93433900Y-79225140D02*
X102933500Y-79225140D01*
D24*
G36*
X197806901Y-123146140D02*
G01*
X89644900Y-123146140D01*
X89644900Y-117687668D01*
X137199380Y-117687668D01*
X137199380Y-117978612D01*
X137256140Y-118263965D01*
X137367479Y-118532762D01*
X137529119Y-118774673D01*
X137734847Y-118980401D01*
X137976758Y-119142041D01*
X138245555Y-119253380D01*
X138530908Y-119310140D01*
X138821852Y-119310140D01*
X139107205Y-119253380D01*
X139376002Y-119142041D01*
X139617913Y-118980401D01*
X139823641Y-118774673D01*
X139985281Y-118532762D01*
X140096620Y-118263965D01*
X140153380Y-117978612D01*
X140153380Y-117687668D01*
X156259540Y-117687668D01*
X156259540Y-117978612D01*
X156316300Y-118263965D01*
X156427639Y-118532762D01*
X156589279Y-118774673D01*
X156795007Y-118980401D01*
X157036918Y-119142041D01*
X157305715Y-119253380D01*
X157591068Y-119310140D01*
X157882012Y-119310140D01*
X158167365Y-119253380D01*
X158436162Y-119142041D01*
X158678073Y-118980401D01*
X158883801Y-118774673D01*
X159045441Y-118532762D01*
X159156780Y-118263965D01*
X159213540Y-117978612D01*
X159213540Y-117687668D01*
X175319700Y-117687668D01*
X175319700Y-117978612D01*
X175376460Y-118263965D01*
X175487799Y-118532762D01*
X175649439Y-118774673D01*
X175855167Y-118980401D01*
X176097078Y-119142041D01*
X176365875Y-119253380D01*
X176651228Y-119310140D01*
X176942172Y-119310140D01*
X177227525Y-119253380D01*
X177496322Y-119142041D01*
X177738233Y-118980401D01*
X177943961Y-118774673D01*
X178105601Y-118532762D01*
X178216940Y-118263965D01*
X178273700Y-117978612D01*
X178273700Y-117687668D01*
X178216940Y-117402315D01*
X178105601Y-117133518D01*
X177943961Y-116891607D01*
X177738233Y-116685879D01*
X177496322Y-116524239D01*
X177227525Y-116412900D01*
X176942172Y-116356140D01*
X176651228Y-116356140D01*
X176365875Y-116412900D01*
X176097078Y-116524239D01*
X175855167Y-116685879D01*
X175649439Y-116891607D01*
X175487799Y-117133518D01*
X175376460Y-117402315D01*
X175319700Y-117687668D01*
X159213540Y-117687668D01*
X159156780Y-117402315D01*
X159045441Y-117133518D01*
X158883801Y-116891607D01*
X158678073Y-116685879D01*
X158436162Y-116524239D01*
X158167365Y-116412900D01*
X157882012Y-116356140D01*
X157591068Y-116356140D01*
X157305715Y-116412900D01*
X157036918Y-116524239D01*
X156795007Y-116685879D01*
X156589279Y-116891607D01*
X156427639Y-117133518D01*
X156316300Y-117402315D01*
X156259540Y-117687668D01*
X140153380Y-117687668D01*
X140096620Y-117402315D01*
X139985281Y-117133518D01*
X139823641Y-116891607D01*
X139617913Y-116685879D01*
X139376002Y-116524239D01*
X139107205Y-116412900D01*
X138821852Y-116356140D01*
X138530908Y-116356140D01*
X138245555Y-116412900D01*
X137976758Y-116524239D01*
X137734847Y-116685879D01*
X137529119Y-116891607D01*
X137367479Y-117133518D01*
X137256140Y-117402315D01*
X137199380Y-117687668D01*
X89644900Y-117687668D01*
X89644900Y-113789026D01*
X138839380Y-113789026D01*
X138839380Y-114257254D01*
X138930727Y-114716485D01*
X139109910Y-115149072D01*
X139370044Y-115538389D01*
X139701131Y-115869476D01*
X140090448Y-116129610D01*
X140523035Y-116308793D01*
X140982266Y-116400140D01*
X141450494Y-116400140D01*
X141909725Y-116308793D01*
X142342312Y-116129610D01*
X142731629Y-115869476D01*
X143062716Y-115538389D01*
X143322850Y-115149072D01*
X143502033Y-114716485D01*
X143593380Y-114257254D01*
X143593380Y-113789026D01*
X157899540Y-113789026D01*
X157899540Y-114257254D01*
X157990887Y-114716485D01*
X158170070Y-115149072D01*
X158430204Y-115538389D01*
X158761291Y-115869476D01*
X159150608Y-116129610D01*
X159583195Y-116308793D01*
X160042426Y-116400140D01*
X160510654Y-116400140D01*
X160969885Y-116308793D01*
X161402472Y-116129610D01*
X161791789Y-115869476D01*
X162122876Y-115538389D01*
X162383010Y-115149072D01*
X162562193Y-114716485D01*
X162653540Y-114257254D01*
X162653540Y-113789026D01*
X176959700Y-113789026D01*
X176959700Y-114257254D01*
X177051047Y-114716485D01*
X177230230Y-115149072D01*
X177490364Y-115538389D01*
X177821451Y-115869476D01*
X178210768Y-116129610D01*
X178643355Y-116308793D01*
X179102586Y-116400140D01*
X179570814Y-116400140D01*
X180030045Y-116308793D01*
X180462632Y-116129610D01*
X180851949Y-115869476D01*
X181183036Y-115538389D01*
X181443170Y-115149072D01*
X181622353Y-114716485D01*
X181713700Y-114257254D01*
X181713700Y-113789026D01*
X181622353Y-113329795D01*
X181443170Y-112897208D01*
X181183036Y-112507891D01*
X180851949Y-112176804D01*
X180462632Y-111916670D01*
X180030045Y-111737487D01*
X179570814Y-111646140D01*
X179102586Y-111646140D01*
X178643355Y-111737487D01*
X178210768Y-111916670D01*
X177821451Y-112176804D01*
X177490364Y-112507891D01*
X177230230Y-112897208D01*
X177051047Y-113329795D01*
X176959700Y-113789026D01*
X162653540Y-113789026D01*
X162562193Y-113329795D01*
X162383010Y-112897208D01*
X162122876Y-112507891D01*
X161791789Y-112176804D01*
X161402472Y-111916670D01*
X160969885Y-111737487D01*
X160510654Y-111646140D01*
X160042426Y-111646140D01*
X159583195Y-111737487D01*
X159150608Y-111916670D01*
X158761291Y-112176804D01*
X158430204Y-112507891D01*
X158170070Y-112897208D01*
X157990887Y-113329795D01*
X157899540Y-113789026D01*
X143593380Y-113789026D01*
X143502033Y-113329795D01*
X143322850Y-112897208D01*
X143062716Y-112507891D01*
X142731629Y-112176804D01*
X142342312Y-111916670D01*
X141909725Y-111737487D01*
X141450494Y-111646140D01*
X140982266Y-111646140D01*
X140523035Y-111737487D01*
X140090448Y-111916670D01*
X139701131Y-112176804D01*
X139370044Y-112507891D01*
X139109910Y-112897208D01*
X138930727Y-113329795D01*
X138839380Y-113789026D01*
X89644900Y-113789026D01*
X89644900Y-98675236D01*
X89676748Y-98734819D01*
X89780094Y-98860746D01*
X89906021Y-98964092D01*
X89940701Y-98982629D01*
X89940701Y-99258211D01*
X89936457Y-99301300D01*
X89953390Y-99473222D01*
X90003538Y-99638536D01*
X90084974Y-99790892D01*
X90167106Y-99890971D01*
X90167109Y-99890974D01*
X90194568Y-99924433D01*
X90228027Y-99951892D01*
X91168108Y-100891974D01*
X91195567Y-100925433D01*
X91329108Y-101035027D01*
X91459609Y-101104781D01*
X91481463Y-101116462D01*
X91646777Y-101166610D01*
X91818700Y-101183543D01*
X91861779Y-101179300D01*
X95547079Y-101179300D01*
X95655474Y-101168624D01*
X96204000Y-101168624D01*
X96277905Y-101161345D01*
X96348970Y-101139788D01*
X96414463Y-101104781D01*
X96471869Y-101057669D01*
X96518981Y-101000263D01*
X96553988Y-100934770D01*
X96575545Y-100863705D01*
X96582824Y-100789800D01*
X96582824Y-99814800D01*
X96575545Y-99740895D01*
X96553988Y-99669830D01*
X96518981Y-99604337D01*
X96471869Y-99546931D01*
X96414463Y-99499819D01*
X96348970Y-99464812D01*
X96277905Y-99443255D01*
X96204000Y-99435976D01*
X95655474Y-99435976D01*
X95547079Y-99425300D01*
X92181966Y-99425300D01*
X91723760Y-98967095D01*
X91729379Y-98964092D01*
X91855306Y-98860746D01*
X91958652Y-98734819D01*
X92035445Y-98591150D01*
X92082734Y-98435260D01*
X92098701Y-98273140D01*
X92082734Y-98111020D01*
X92035445Y-97955130D01*
X91958652Y-97811461D01*
X91855306Y-97685534D01*
X91729379Y-97582188D01*
X91585710Y-97505395D01*
X91429820Y-97458106D01*
X91308324Y-97446140D01*
X91112615Y-97446140D01*
X90989621Y-97408830D01*
X90817700Y-97391897D01*
X90645778Y-97408830D01*
X90522784Y-97446140D01*
X90327076Y-97446140D01*
X90205580Y-97458106D01*
X90049690Y-97505395D01*
X89906021Y-97582188D01*
X89780094Y-97685534D01*
X89676748Y-97811461D01*
X89644900Y-97871044D01*
X89644900Y-93141472D01*
X94219000Y-93141472D01*
X94219000Y-93294528D01*
X94248859Y-93444643D01*
X94307431Y-93586048D01*
X94392464Y-93713309D01*
X94419000Y-93739845D01*
X94419000Y-93951669D01*
X94416210Y-93980000D01*
X94427349Y-94093111D01*
X94460344Y-94201876D01*
X94513922Y-94302115D01*
X94520619Y-94310275D01*
X94567963Y-94367964D01*
X94567966Y-94367967D01*
X94586027Y-94389974D01*
X94608034Y-94408035D01*
X95860957Y-95660958D01*
X95869016Y-95701474D01*
X95912107Y-95805503D01*
X95880172Y-95818731D01*
X95752911Y-95903764D01*
X95644684Y-96011991D01*
X95559651Y-96139252D01*
X95501079Y-96280657D01*
X95471220Y-96430772D01*
X95471220Y-96583828D01*
X95501079Y-96733943D01*
X95559651Y-96875348D01*
X95644684Y-97002609D01*
X95752911Y-97110836D01*
X95880172Y-97195869D01*
X96021577Y-97254441D01*
X96171692Y-97284300D01*
X96324748Y-97284300D01*
X96474863Y-97254441D01*
X96616268Y-97195869D01*
X96677065Y-97155246D01*
X96832000Y-97310181D01*
X96832000Y-97560976D01*
X96709000Y-97560976D01*
X96635095Y-97568255D01*
X96564030Y-97589812D01*
X96498537Y-97624819D01*
X96441131Y-97671931D01*
X96394019Y-97729337D01*
X96359012Y-97794830D01*
X96337455Y-97865895D01*
X96330176Y-97939800D01*
X96330176Y-98914800D01*
X96337455Y-98988705D01*
X96359012Y-99059770D01*
X96394019Y-99125263D01*
X96441131Y-99182669D01*
X96498537Y-99229781D01*
X96564030Y-99264788D01*
X96635095Y-99286345D01*
X96709000Y-99293624D01*
X98109000Y-99293624D01*
X98182905Y-99286345D01*
X98253970Y-99264788D01*
X98319463Y-99229781D01*
X98376869Y-99182669D01*
X98423981Y-99125263D01*
X98458988Y-99059770D01*
X98480545Y-98988705D01*
X98487824Y-98914800D01*
X98487824Y-97939800D01*
X98480545Y-97865895D01*
X98458988Y-97794830D01*
X98423981Y-97729337D01*
X98376869Y-97671931D01*
X98319463Y-97624819D01*
X98253970Y-97589812D01*
X98182905Y-97568255D01*
X98109000Y-97560976D01*
X97986000Y-97560976D01*
X97986000Y-97099511D01*
X97988790Y-97071180D01*
X97977651Y-96958068D01*
X97971798Y-96938772D01*
X104389160Y-96938772D01*
X104389160Y-97091828D01*
X104419019Y-97241943D01*
X104477591Y-97383348D01*
X104562624Y-97510609D01*
X104637006Y-97584991D01*
X104646786Y-97684294D01*
X104676921Y-97783634D01*
X104687347Y-97803139D01*
X104725857Y-97875187D01*
X104791713Y-97955433D01*
X104811822Y-97971936D01*
X106617820Y-99777936D01*
X106617821Y-104152209D01*
X106615271Y-104178100D01*
X106625446Y-104281409D01*
X106655581Y-104380749D01*
X106699435Y-104462795D01*
X106704517Y-104472302D01*
X106770373Y-104552548D01*
X106790482Y-104569051D01*
X109494534Y-107273105D01*
X109511032Y-107293208D01*
X109591278Y-107359064D01*
X109682830Y-107407999D01*
X109782170Y-107438134D01*
X109885480Y-107448309D01*
X109911361Y-107445760D01*
X110126435Y-107445760D01*
X110202971Y-107522296D01*
X110330232Y-107607329D01*
X110471637Y-107665901D01*
X110621752Y-107695760D01*
X110774808Y-107695760D01*
X110924923Y-107665901D01*
X111066328Y-107607329D01*
X111193589Y-107522296D01*
X111301816Y-107414069D01*
X111386849Y-107286808D01*
X111445421Y-107145403D01*
X111475280Y-106995288D01*
X111475280Y-106842232D01*
X111445421Y-106692117D01*
X111386849Y-106550712D01*
X111301816Y-106423451D01*
X111193589Y-106315224D01*
X111066328Y-106230191D01*
X110924923Y-106171619D01*
X110774808Y-106141760D01*
X110621752Y-106141760D01*
X110471637Y-106171619D01*
X110330232Y-106230191D01*
X110202971Y-106315224D01*
X110126435Y-106391760D01*
X110103771Y-106391760D01*
X107671820Y-103959811D01*
X107671820Y-99585526D01*
X107674369Y-99559645D01*
X107664194Y-99456335D01*
X107634059Y-99356996D01*
X107634059Y-99356995D01*
X107585124Y-99265443D01*
X107519268Y-99185197D01*
X107499164Y-99168699D01*
X105798286Y-97467821D01*
X105854729Y-97383348D01*
X105913301Y-97241943D01*
X105943160Y-97091828D01*
X105943160Y-96938772D01*
X105913301Y-96788657D01*
X105854729Y-96647252D01*
X105769696Y-96519991D01*
X105661469Y-96411764D01*
X105534208Y-96326731D01*
X105392803Y-96268159D01*
X105242688Y-96238300D01*
X105089632Y-96238300D01*
X104939517Y-96268159D01*
X104798112Y-96326731D01*
X104670851Y-96411764D01*
X104562624Y-96519991D01*
X104477591Y-96647252D01*
X104419019Y-96788657D01*
X104389160Y-96938772D01*
X97971798Y-96938772D01*
X97952557Y-96875348D01*
X97944657Y-96849304D01*
X97891079Y-96749065D01*
X97818974Y-96661206D01*
X97796963Y-96643142D01*
X97273159Y-96119338D01*
X97255094Y-96097326D01*
X97167235Y-96025221D01*
X97066996Y-95971643D01*
X97023097Y-95958326D01*
X97045860Y-95935563D01*
X97119950Y-95824680D01*
X97170984Y-95701474D01*
X97197000Y-95570679D01*
X97197000Y-95437321D01*
X97170984Y-95306526D01*
X97119950Y-95183320D01*
X97045860Y-95072437D01*
X96951563Y-94978140D01*
X96840680Y-94904050D01*
X96717474Y-94853016D01*
X96676958Y-94844957D01*
X95573000Y-93740999D01*
X95573000Y-93739845D01*
X95599536Y-93713309D01*
X95684569Y-93586048D01*
X95743141Y-93444643D01*
X95773000Y-93294528D01*
X95773000Y-93141472D01*
X95743141Y-92991357D01*
X95684569Y-92849952D01*
X95599536Y-92722691D01*
X95491309Y-92614464D01*
X95364048Y-92529431D01*
X95222643Y-92470859D01*
X95072528Y-92441000D01*
X94919472Y-92441000D01*
X94769357Y-92470859D01*
X94627952Y-92529431D01*
X94500691Y-92614464D01*
X94392464Y-92722691D01*
X94307431Y-92849952D01*
X94248859Y-92991357D01*
X94219000Y-93141472D01*
X89644900Y-93141472D01*
X89644900Y-92075236D01*
X89676748Y-92134819D01*
X89780094Y-92260746D01*
X89906021Y-92364092D01*
X90049690Y-92440885D01*
X90205580Y-92488174D01*
X90327076Y-92500140D01*
X91308324Y-92500140D01*
X91429820Y-92488174D01*
X91585710Y-92440885D01*
X91729379Y-92364092D01*
X91855306Y-92260746D01*
X91958652Y-92134819D01*
X92035445Y-91991150D01*
X92082734Y-91835260D01*
X92098701Y-91673140D01*
X92082734Y-91511020D01*
X92035445Y-91355130D01*
X91958652Y-91211461D01*
X91855306Y-91085534D01*
X91729379Y-90982188D01*
X91585710Y-90905395D01*
X91429820Y-90858106D01*
X91308324Y-90846140D01*
X90327076Y-90846140D01*
X90205580Y-90858106D01*
X90049690Y-90905395D01*
X89906021Y-90982188D01*
X89780094Y-91085534D01*
X89676748Y-91211461D01*
X89644900Y-91271044D01*
X89644900Y-87300249D01*
X97575800Y-87300249D01*
X97575800Y-87502551D01*
X97615267Y-87700965D01*
X97692685Y-87887867D01*
X97805077Y-88056074D01*
X97948126Y-88199123D01*
X98116333Y-88311515D01*
X98303235Y-88388933D01*
X98501649Y-88428400D01*
X98703951Y-88428400D01*
X98881022Y-88393178D01*
X98845800Y-88570249D01*
X98845800Y-88772551D01*
X98885267Y-88970965D01*
X98962685Y-89157867D01*
X99075077Y-89326074D01*
X99218126Y-89469123D01*
X99386333Y-89581515D01*
X99573235Y-89658933D01*
X99771649Y-89698400D01*
X99973951Y-89698400D01*
X100172365Y-89658933D01*
X100359267Y-89581515D01*
X100527474Y-89469123D01*
X100670523Y-89326074D01*
X100782915Y-89157867D01*
X100860333Y-88970965D01*
X100899800Y-88772551D01*
X100899800Y-88570249D01*
X100871947Y-88430224D01*
X101792800Y-88430224D01*
X101866705Y-88422945D01*
X101937770Y-88401388D01*
X102003263Y-88366381D01*
X102060669Y-88319269D01*
X102107781Y-88261863D01*
X102142788Y-88196370D01*
X102164345Y-88125305D01*
X102171624Y-88051400D01*
X102171624Y-86751400D01*
X102164345Y-86677495D01*
X102142788Y-86606430D01*
X102107781Y-86540937D01*
X102060669Y-86483531D01*
X102003263Y-86436419D01*
X101937770Y-86401412D01*
X101866705Y-86379855D01*
X101792800Y-86372576D01*
X100492800Y-86372576D01*
X100418895Y-86379855D01*
X100347830Y-86401412D01*
X100282337Y-86436419D01*
X100224931Y-86483531D01*
X100177819Y-86540937D01*
X100142812Y-86606430D01*
X100121255Y-86677495D01*
X100113976Y-86751400D01*
X100113976Y-87672253D01*
X99973951Y-87644400D01*
X99771649Y-87644400D01*
X99594578Y-87679622D01*
X99629800Y-87502551D01*
X99629800Y-87300249D01*
X99590333Y-87101835D01*
X99512915Y-86914933D01*
X99400523Y-86746726D01*
X99257474Y-86603677D01*
X99089267Y-86491285D01*
X98902365Y-86413867D01*
X98703951Y-86374400D01*
X98501649Y-86374400D01*
X98303235Y-86413867D01*
X98116333Y-86491285D01*
X97948126Y-86603677D01*
X97805077Y-86746726D01*
X97692685Y-86914933D01*
X97615267Y-87101835D01*
X97575800Y-87300249D01*
X89644900Y-87300249D01*
X89644900Y-83543140D01*
X92293076Y-83543140D01*
X92293076Y-85067140D01*
X92300355Y-85141045D01*
X92321912Y-85212110D01*
X92356919Y-85277603D01*
X92404031Y-85335009D01*
X92461437Y-85382121D01*
X92526930Y-85417128D01*
X92597995Y-85438685D01*
X92671900Y-85445964D01*
X94195900Y-85445964D01*
X94269805Y-85438685D01*
X94340870Y-85417128D01*
X94406363Y-85382121D01*
X94463769Y-85335009D01*
X94510881Y-85277603D01*
X94545888Y-85212110D01*
X94567445Y-85141045D01*
X94574724Y-85067140D01*
X94574724Y-83543140D01*
X94567445Y-83469235D01*
X94545888Y-83398170D01*
X94510881Y-83332677D01*
X94463769Y-83275271D01*
X94406363Y-83228159D01*
X94340870Y-83193152D01*
X94269805Y-83171595D01*
X94195900Y-83164316D01*
X92671900Y-83164316D01*
X92597995Y-83171595D01*
X92526930Y-83193152D01*
X92461437Y-83228159D01*
X92404031Y-83275271D01*
X92356919Y-83332677D01*
X92321912Y-83398170D01*
X92300355Y-83469235D01*
X92293076Y-83543140D01*
X89644900Y-83543140D01*
X89644900Y-81652958D01*
X92294900Y-81652958D01*
X92294900Y-81877322D01*
X92338671Y-82097374D01*
X92424531Y-82304659D01*
X92549181Y-82491210D01*
X92707830Y-82649859D01*
X92894381Y-82774509D01*
X93101666Y-82860369D01*
X93321718Y-82904140D01*
X93546082Y-82904140D01*
X93766134Y-82860369D01*
X93973419Y-82774509D01*
X94159970Y-82649859D01*
X94318619Y-82491210D01*
X94443269Y-82304659D01*
X94448455Y-82292140D01*
X101689051Y-82292140D01*
X112160100Y-92763191D01*
X112160101Y-97879049D01*
X110351566Y-99687585D01*
X110331452Y-99704092D01*
X110265596Y-99784338D01*
X110236196Y-99839343D01*
X110216661Y-99875891D01*
X110186526Y-99975231D01*
X110176351Y-100078540D01*
X110178900Y-100104421D01*
X110178901Y-104358094D01*
X110102364Y-104434631D01*
X110017331Y-104561892D01*
X109958759Y-104703297D01*
X109928900Y-104853412D01*
X109928900Y-105006468D01*
X109958759Y-105156583D01*
X110017331Y-105297988D01*
X110102364Y-105425249D01*
X110210591Y-105533476D01*
X110337852Y-105618509D01*
X110479257Y-105677081D01*
X110629372Y-105706940D01*
X110782428Y-105706940D01*
X110932543Y-105677081D01*
X111073948Y-105618509D01*
X111201209Y-105533476D01*
X111309436Y-105425249D01*
X111394469Y-105297988D01*
X111453041Y-105156583D01*
X111482900Y-105006468D01*
X111482900Y-104853412D01*
X111453041Y-104703297D01*
X111394469Y-104561892D01*
X111309436Y-104434631D01*
X111232900Y-104358095D01*
X111232900Y-100296829D01*
X113041439Y-98488291D01*
X113061548Y-98471788D01*
X113127404Y-98391542D01*
X113176339Y-98299990D01*
X113206474Y-98200650D01*
X113214100Y-98123221D01*
X113216649Y-98097340D01*
X113214100Y-98071459D01*
X113214100Y-92570781D01*
X113216649Y-92544900D01*
X113206474Y-92441590D01*
X113176339Y-92342251D01*
X113176339Y-92342250D01*
X113127404Y-92250698D01*
X113061548Y-92170452D01*
X113041445Y-92153954D01*
X102298295Y-81410806D01*
X102281788Y-81390692D01*
X102201542Y-81324836D01*
X102109990Y-81275901D01*
X102010650Y-81245766D01*
X101933221Y-81238140D01*
X101907340Y-81235591D01*
X101881459Y-81238140D01*
X94448455Y-81238140D01*
X94443269Y-81225621D01*
X94318619Y-81039070D01*
X94159970Y-80880421D01*
X93973419Y-80755771D01*
X93766134Y-80669911D01*
X93546082Y-80626140D01*
X93321718Y-80626140D01*
X93101666Y-80669911D01*
X92894381Y-80755771D01*
X92707830Y-80880421D01*
X92549181Y-81039070D01*
X92424531Y-81225621D01*
X92338671Y-81432906D01*
X92294900Y-81652958D01*
X89644900Y-81652958D01*
X89644900Y-79112958D01*
X92294900Y-79112958D01*
X92294900Y-79337322D01*
X92338671Y-79557374D01*
X92424531Y-79764659D01*
X92549181Y-79951210D01*
X92707830Y-80109859D01*
X92894381Y-80234509D01*
X93101666Y-80320369D01*
X93321718Y-80364140D01*
X93546082Y-80364140D01*
X93766134Y-80320369D01*
X93973419Y-80234509D01*
X94159970Y-80109859D01*
X94318619Y-79951210D01*
X94443269Y-79764659D01*
X94448455Y-79752140D01*
X102715211Y-79752140D01*
X114623900Y-91660831D01*
X114623901Y-99276140D01*
X114566372Y-99276140D01*
X114416257Y-99305999D01*
X114274852Y-99364571D01*
X114147591Y-99449604D01*
X114039364Y-99557831D01*
X113954331Y-99685092D01*
X113895759Y-99826497D01*
X113865900Y-99976612D01*
X113865900Y-100129668D01*
X113895759Y-100279783D01*
X113954331Y-100421188D01*
X114039364Y-100548449D01*
X114147591Y-100656676D01*
X114274852Y-100741709D01*
X114416257Y-100800281D01*
X114566372Y-100830140D01*
X114719428Y-100830140D01*
X114869543Y-100800281D01*
X115010948Y-100741709D01*
X115138209Y-100656676D01*
X115246436Y-100548449D01*
X115331469Y-100421188D01*
X115390041Y-100279783D01*
X115419900Y-100129668D01*
X115419900Y-100021430D01*
X115505239Y-99936091D01*
X115525348Y-99919588D01*
X115591204Y-99839342D01*
X115640139Y-99747790D01*
X115670274Y-99648450D01*
X115677900Y-99571021D01*
X115677900Y-99571019D01*
X115680449Y-99545141D01*
X115677900Y-99519263D01*
X115677900Y-91468421D01*
X115680449Y-91442540D01*
X115670274Y-91339230D01*
X115640139Y-91239891D01*
X115640139Y-91239890D01*
X115591204Y-91148338D01*
X115525348Y-91068092D01*
X115505245Y-91051594D01*
X103324455Y-78870806D01*
X103307948Y-78850692D01*
X103227702Y-78784836D01*
X103136150Y-78735901D01*
X103036810Y-78705766D01*
X102959381Y-78698140D01*
X102933500Y-78695591D01*
X102907619Y-78698140D01*
X94448455Y-78698140D01*
X94443269Y-78685621D01*
X94318619Y-78499070D01*
X94159970Y-78340421D01*
X93973419Y-78215771D01*
X93766134Y-78129911D01*
X93546082Y-78086140D01*
X93511958Y-78086140D01*
X93778033Y-78046062D01*
X94036923Y-77952776D01*
X94152880Y-77890796D01*
X94219860Y-77650705D01*
X93433900Y-76864745D01*
X92647940Y-77650705D01*
X92714920Y-77890796D01*
X92963948Y-78007896D01*
X93231035Y-78074163D01*
X93486507Y-78086140D01*
X93321718Y-78086140D01*
X93101666Y-78129911D01*
X92894381Y-78215771D01*
X92707830Y-78340421D01*
X92549181Y-78499070D01*
X92424531Y-78685621D01*
X92338671Y-78892906D01*
X92294900Y-79112958D01*
X89644900Y-79112958D01*
X89644900Y-76757157D01*
X92031990Y-76757157D01*
X92072978Y-77029273D01*
X92166264Y-77288163D01*
X92228244Y-77404120D01*
X92468335Y-77471100D01*
X93254295Y-76685140D01*
X93613505Y-76685140D01*
X94399465Y-77471100D01*
X94639556Y-77404120D01*
X94756656Y-77155092D01*
X94822923Y-76888005D01*
X94835810Y-76613123D01*
X94794822Y-76341007D01*
X94701536Y-76082117D01*
X94639556Y-75966160D01*
X94399465Y-75899180D01*
X93613505Y-76685140D01*
X93254295Y-76685140D01*
X92468335Y-75899180D01*
X92228244Y-75966160D01*
X92111144Y-76215188D01*
X92044877Y-76482275D01*
X92031990Y-76757157D01*
X89644900Y-76757157D01*
X89644900Y-75719575D01*
X92647940Y-75719575D01*
X93433900Y-76505535D01*
X94219860Y-75719575D01*
X94152880Y-75479484D01*
X93903852Y-75362384D01*
X93636765Y-75296117D01*
X93361883Y-75283230D01*
X93089767Y-75324218D01*
X92830877Y-75417504D01*
X92714920Y-75479484D01*
X92647940Y-75719575D01*
X89644900Y-75719575D01*
X89644900Y-73301168D01*
X134659380Y-73301168D01*
X134659380Y-73592112D01*
X134716140Y-73877465D01*
X134827479Y-74146262D01*
X134989119Y-74388173D01*
X135194847Y-74593901D01*
X135292401Y-74659084D01*
X135292401Y-74959186D01*
X135292400Y-74959196D01*
X135292400Y-91251176D01*
X135194847Y-91316359D01*
X134989119Y-91522087D01*
X134827479Y-91763998D01*
X134716140Y-92032795D01*
X134659380Y-92318148D01*
X134659380Y-92609092D01*
X134716140Y-92894445D01*
X134827479Y-93163242D01*
X134989119Y-93405153D01*
X135194847Y-93610881D01*
X135292401Y-93676064D01*
X135292401Y-110270695D01*
X135194847Y-110335879D01*
X134989119Y-110541607D01*
X134827479Y-110783518D01*
X134716140Y-111052315D01*
X134659380Y-111337668D01*
X134659380Y-111628612D01*
X134716140Y-111913965D01*
X134827479Y-112182762D01*
X134989119Y-112424673D01*
X135194847Y-112630401D01*
X135436758Y-112792041D01*
X135705555Y-112903380D01*
X135990908Y-112960140D01*
X136281852Y-112960140D01*
X136567205Y-112903380D01*
X136836002Y-112792041D01*
X137077913Y-112630401D01*
X137283641Y-112424673D01*
X137445281Y-112182762D01*
X137556620Y-111913965D01*
X137613380Y-111628612D01*
X137613380Y-111337668D01*
X137556620Y-111052315D01*
X137445281Y-110783518D01*
X137283641Y-110541607D01*
X137077913Y-110335879D01*
X137046400Y-110314823D01*
X137046400Y-98668148D01*
X137199380Y-98668148D01*
X137199380Y-98959092D01*
X137256140Y-99244445D01*
X137367479Y-99513242D01*
X137529119Y-99755153D01*
X137734847Y-99960881D01*
X137976758Y-100122521D01*
X138245555Y-100233860D01*
X138530908Y-100290620D01*
X138821852Y-100290620D01*
X139107205Y-100233860D01*
X139376002Y-100122521D01*
X139617913Y-99960881D01*
X139823641Y-99755153D01*
X139985281Y-99513242D01*
X140096620Y-99244445D01*
X140153380Y-98959092D01*
X140153380Y-98668148D01*
X140096620Y-98382795D01*
X139985281Y-98113998D01*
X139823641Y-97872087D01*
X139617913Y-97666359D01*
X139376002Y-97504719D01*
X139107205Y-97393380D01*
X138821852Y-97336620D01*
X138530908Y-97336620D01*
X138245555Y-97393380D01*
X137976758Y-97504719D01*
X137734847Y-97666359D01*
X137529119Y-97872087D01*
X137367479Y-98113998D01*
X137256140Y-98382795D01*
X137199380Y-98668148D01*
X137046400Y-98668148D01*
X137046400Y-94769506D01*
X138839380Y-94769506D01*
X138839380Y-95237734D01*
X138930727Y-95696965D01*
X139109910Y-96129552D01*
X139370044Y-96518869D01*
X139701131Y-96849956D01*
X140090448Y-97110090D01*
X140523035Y-97289273D01*
X140982266Y-97380620D01*
X141450494Y-97380620D01*
X141909725Y-97289273D01*
X142342312Y-97110090D01*
X142731629Y-96849956D01*
X143062716Y-96518869D01*
X143322850Y-96129552D01*
X143502033Y-95696965D01*
X143593380Y-95237734D01*
X143593380Y-94769506D01*
X143502033Y-94310275D01*
X143322850Y-93877688D01*
X143062716Y-93488371D01*
X142731629Y-93157284D01*
X142342312Y-92897150D01*
X141909725Y-92717967D01*
X141450494Y-92626620D01*
X140982266Y-92626620D01*
X140523035Y-92717967D01*
X140090448Y-92897150D01*
X139701131Y-93157284D01*
X139370044Y-93488371D01*
X139109910Y-93877688D01*
X138930727Y-94310275D01*
X138839380Y-94769506D01*
X137046400Y-94769506D01*
X137046400Y-93631937D01*
X137077913Y-93610881D01*
X137283641Y-93405153D01*
X137445281Y-93163242D01*
X137556620Y-92894445D01*
X137613380Y-92609092D01*
X137613380Y-92318148D01*
X137556620Y-92032795D01*
X137445281Y-91763998D01*
X137283641Y-91522087D01*
X137077913Y-91316359D01*
X137046400Y-91295303D01*
X137046400Y-79651168D01*
X137199380Y-79651168D01*
X137199380Y-79942112D01*
X137256140Y-80227465D01*
X137367479Y-80496262D01*
X137529119Y-80738173D01*
X137734847Y-80943901D01*
X137976758Y-81105541D01*
X138245555Y-81216880D01*
X138530908Y-81273640D01*
X138821852Y-81273640D01*
X139107205Y-81216880D01*
X139376002Y-81105541D01*
X139617913Y-80943901D01*
X139823641Y-80738173D01*
X139985281Y-80496262D01*
X140096620Y-80227465D01*
X140153380Y-79942112D01*
X140153380Y-79651168D01*
X140096620Y-79365815D01*
X139985281Y-79097018D01*
X139823641Y-78855107D01*
X139617913Y-78649379D01*
X139376002Y-78487739D01*
X139107205Y-78376400D01*
X138821852Y-78319640D01*
X138530908Y-78319640D01*
X138245555Y-78376400D01*
X137976758Y-78487739D01*
X137734847Y-78649379D01*
X137529119Y-78855107D01*
X137367479Y-79097018D01*
X137256140Y-79365815D01*
X137199380Y-79651168D01*
X137046400Y-79651168D01*
X137046400Y-75752526D01*
X138839380Y-75752526D01*
X138839380Y-76220754D01*
X138930727Y-76679985D01*
X139109910Y-77112572D01*
X139370044Y-77501889D01*
X139701131Y-77832976D01*
X140090448Y-78093110D01*
X140523035Y-78272293D01*
X140982266Y-78363640D01*
X141450494Y-78363640D01*
X141909725Y-78272293D01*
X142342312Y-78093110D01*
X142731629Y-77832976D01*
X143062716Y-77501889D01*
X143322850Y-77112572D01*
X143502033Y-76679985D01*
X143593380Y-76220754D01*
X143593380Y-75752526D01*
X143502033Y-75293295D01*
X143322850Y-74860708D01*
X143062716Y-74471391D01*
X142731629Y-74140304D01*
X142342312Y-73880170D01*
X141909725Y-73700987D01*
X141450494Y-73609640D01*
X140982266Y-73609640D01*
X140523035Y-73700987D01*
X140090448Y-73880170D01*
X139701131Y-74140304D01*
X139370044Y-74471391D01*
X139109910Y-74860708D01*
X138930727Y-75293295D01*
X138839380Y-75752526D01*
X137046400Y-75752526D01*
X137046400Y-74614957D01*
X137077913Y-74593901D01*
X137283641Y-74388173D01*
X137445281Y-74146262D01*
X137556620Y-73877465D01*
X137613380Y-73592112D01*
X137613380Y-73301168D01*
X153719540Y-73301168D01*
X153719540Y-73592112D01*
X153776300Y-73877465D01*
X153887639Y-74146262D01*
X154049279Y-74388173D01*
X154255007Y-74593901D01*
X154342400Y-74652295D01*
X154342400Y-91257964D01*
X154255007Y-91316359D01*
X154049279Y-91522087D01*
X153887639Y-91763998D01*
X153776300Y-92032795D01*
X153719540Y-92318148D01*
X153719540Y-92609092D01*
X153776300Y-92894445D01*
X153887639Y-93163242D01*
X154049279Y-93405153D01*
X154255007Y-93610881D01*
X154342401Y-93669276D01*
X154342401Y-110277484D01*
X154255007Y-110335879D01*
X154049279Y-110541607D01*
X153887639Y-110783518D01*
X153776300Y-111052315D01*
X153719540Y-111337668D01*
X153719540Y-111628612D01*
X153776300Y-111913965D01*
X153887639Y-112182762D01*
X154049279Y-112424673D01*
X154255007Y-112630401D01*
X154496918Y-112792041D01*
X154765715Y-112903380D01*
X155051068Y-112960140D01*
X155342012Y-112960140D01*
X155627365Y-112903380D01*
X155896162Y-112792041D01*
X156138073Y-112630401D01*
X156343801Y-112424673D01*
X156505441Y-112182762D01*
X156616780Y-111913965D01*
X156673540Y-111628612D01*
X156673540Y-111337668D01*
X156616780Y-111052315D01*
X156505441Y-110783518D01*
X156343801Y-110541607D01*
X156138073Y-110335879D01*
X156096400Y-110308034D01*
X156096400Y-98668148D01*
X156259540Y-98668148D01*
X156259540Y-98959092D01*
X156316300Y-99244445D01*
X156427639Y-99513242D01*
X156589279Y-99755153D01*
X156795007Y-99960881D01*
X157036918Y-100122521D01*
X157305715Y-100233860D01*
X157591068Y-100290620D01*
X157882012Y-100290620D01*
X158167365Y-100233860D01*
X158436162Y-100122521D01*
X158678073Y-99960881D01*
X158883801Y-99755153D01*
X159045441Y-99513242D01*
X159156780Y-99244445D01*
X159213540Y-98959092D01*
X159213540Y-98668148D01*
X159156780Y-98382795D01*
X159045441Y-98113998D01*
X158883801Y-97872087D01*
X158678073Y-97666359D01*
X158436162Y-97504719D01*
X158167365Y-97393380D01*
X157882012Y-97336620D01*
X157591068Y-97336620D01*
X157305715Y-97393380D01*
X157036918Y-97504719D01*
X156795007Y-97666359D01*
X156589279Y-97872087D01*
X156427639Y-98113998D01*
X156316300Y-98382795D01*
X156259540Y-98668148D01*
X156096400Y-98668148D01*
X156096400Y-94769506D01*
X157899540Y-94769506D01*
X157899540Y-95237734D01*
X157990887Y-95696965D01*
X158170070Y-96129552D01*
X158430204Y-96518869D01*
X158761291Y-96849956D01*
X159150608Y-97110090D01*
X159583195Y-97289273D01*
X160042426Y-97380620D01*
X160510654Y-97380620D01*
X160969885Y-97289273D01*
X161402472Y-97110090D01*
X161791789Y-96849956D01*
X162122876Y-96518869D01*
X162383010Y-96129552D01*
X162562193Y-95696965D01*
X162653540Y-95237734D01*
X162653540Y-94769506D01*
X162562193Y-94310275D01*
X162383010Y-93877688D01*
X162122876Y-93488371D01*
X161791789Y-93157284D01*
X161402472Y-92897150D01*
X160969885Y-92717967D01*
X160510654Y-92626620D01*
X160042426Y-92626620D01*
X159583195Y-92717967D01*
X159150608Y-92897150D01*
X158761291Y-93157284D01*
X158430204Y-93488371D01*
X158170070Y-93877688D01*
X157990887Y-94310275D01*
X157899540Y-94769506D01*
X156096400Y-94769506D01*
X156096400Y-93638726D01*
X156138073Y-93610881D01*
X156343801Y-93405153D01*
X156505441Y-93163242D01*
X156616780Y-92894445D01*
X156673540Y-92609092D01*
X156673540Y-92318148D01*
X156616780Y-92032795D01*
X156505441Y-91763998D01*
X156343801Y-91522087D01*
X156138073Y-91316359D01*
X156096400Y-91288514D01*
X156096400Y-79651168D01*
X156259540Y-79651168D01*
X156259540Y-79942112D01*
X156316300Y-80227465D01*
X156427639Y-80496262D01*
X156589279Y-80738173D01*
X156795007Y-80943901D01*
X157036918Y-81105541D01*
X157305715Y-81216880D01*
X157591068Y-81273640D01*
X157882012Y-81273640D01*
X158167365Y-81216880D01*
X158436162Y-81105541D01*
X158678073Y-80943901D01*
X158883801Y-80738173D01*
X159045441Y-80496262D01*
X159156780Y-80227465D01*
X159213540Y-79942112D01*
X159213540Y-79651168D01*
X159156780Y-79365815D01*
X159045441Y-79097018D01*
X158883801Y-78855107D01*
X158678073Y-78649379D01*
X158436162Y-78487739D01*
X158167365Y-78376400D01*
X157882012Y-78319640D01*
X157591068Y-78319640D01*
X157305715Y-78376400D01*
X157036918Y-78487739D01*
X156795007Y-78649379D01*
X156589279Y-78855107D01*
X156427639Y-79097018D01*
X156316300Y-79365815D01*
X156259540Y-79651168D01*
X156096400Y-79651168D01*
X156096400Y-75752526D01*
X157899540Y-75752526D01*
X157899540Y-76220754D01*
X157990887Y-76679985D01*
X158170070Y-77112572D01*
X158430204Y-77501889D01*
X158761291Y-77832976D01*
X159150608Y-78093110D01*
X159583195Y-78272293D01*
X160042426Y-78363640D01*
X160510654Y-78363640D01*
X160969885Y-78272293D01*
X161402472Y-78093110D01*
X161791789Y-77832976D01*
X162122876Y-77501889D01*
X162383010Y-77112572D01*
X162562193Y-76679985D01*
X162653540Y-76220754D01*
X162653540Y-75752526D01*
X162562193Y-75293295D01*
X162383010Y-74860708D01*
X162122876Y-74471391D01*
X161791789Y-74140304D01*
X161402472Y-73880170D01*
X160969885Y-73700987D01*
X160510654Y-73609640D01*
X160042426Y-73609640D01*
X159583195Y-73700987D01*
X159150608Y-73880170D01*
X158761291Y-74140304D01*
X158430204Y-74471391D01*
X158170070Y-74860708D01*
X157990887Y-75293295D01*
X157899540Y-75752526D01*
X156096400Y-75752526D01*
X156096400Y-74621746D01*
X156138073Y-74593901D01*
X156343801Y-74388173D01*
X156505441Y-74146262D01*
X156616780Y-73877465D01*
X156673540Y-73592112D01*
X156673540Y-73301168D01*
X172779700Y-73301168D01*
X172779700Y-73592112D01*
X172836460Y-73877465D01*
X172947799Y-74146262D01*
X173109439Y-74388173D01*
X173315167Y-74593901D01*
X173392401Y-74645507D01*
X173392401Y-74959186D01*
X173392400Y-74959196D01*
X173392400Y-91264753D01*
X173315167Y-91316359D01*
X173109439Y-91522087D01*
X172947799Y-91763998D01*
X172836460Y-92032795D01*
X172779700Y-92318148D01*
X172779700Y-92609092D01*
X172836460Y-92894445D01*
X172947799Y-93163242D01*
X173109439Y-93405153D01*
X173315167Y-93610881D01*
X173392401Y-93662487D01*
X173392401Y-110284273D01*
X173315167Y-110335879D01*
X173109439Y-110541607D01*
X172947799Y-110783518D01*
X172836460Y-111052315D01*
X172779700Y-111337668D01*
X172779700Y-111628612D01*
X172836460Y-111913965D01*
X172947799Y-112182762D01*
X173109439Y-112424673D01*
X173315167Y-112630401D01*
X173557078Y-112792041D01*
X173825875Y-112903380D01*
X174111228Y-112960140D01*
X174402172Y-112960140D01*
X174687525Y-112903380D01*
X174956322Y-112792041D01*
X175198233Y-112630401D01*
X175403961Y-112424673D01*
X175565601Y-112182762D01*
X175676940Y-111913965D01*
X175733700Y-111628612D01*
X175733700Y-111337668D01*
X175676940Y-111052315D01*
X175565601Y-110783518D01*
X175403961Y-110541607D01*
X175198233Y-110335879D01*
X175146400Y-110301245D01*
X175146400Y-98668148D01*
X175319700Y-98668148D01*
X175319700Y-98959092D01*
X175376460Y-99244445D01*
X175487799Y-99513242D01*
X175649439Y-99755153D01*
X175855167Y-99960881D01*
X176097078Y-100122521D01*
X176365875Y-100233860D01*
X176651228Y-100290620D01*
X176942172Y-100290620D01*
X177227525Y-100233860D01*
X177496322Y-100122521D01*
X177738233Y-99960881D01*
X177943961Y-99755153D01*
X178105601Y-99513242D01*
X178216940Y-99244445D01*
X178273700Y-98959092D01*
X178273700Y-98668148D01*
X178216940Y-98382795D01*
X178105601Y-98113998D01*
X177943961Y-97872087D01*
X177738233Y-97666359D01*
X177496322Y-97504719D01*
X177227525Y-97393380D01*
X176942172Y-97336620D01*
X176651228Y-97336620D01*
X176365875Y-97393380D01*
X176097078Y-97504719D01*
X175855167Y-97666359D01*
X175649439Y-97872087D01*
X175487799Y-98113998D01*
X175376460Y-98382795D01*
X175319700Y-98668148D01*
X175146400Y-98668148D01*
X175146400Y-94769506D01*
X176959700Y-94769506D01*
X176959700Y-95237734D01*
X177051047Y-95696965D01*
X177230230Y-96129552D01*
X177490364Y-96518869D01*
X177821451Y-96849956D01*
X178210768Y-97110090D01*
X178643355Y-97289273D01*
X179102586Y-97380620D01*
X179570814Y-97380620D01*
X180030045Y-97289273D01*
X180462632Y-97110090D01*
X180851949Y-96849956D01*
X181183036Y-96518869D01*
X181443170Y-96129552D01*
X181622353Y-95696965D01*
X181713700Y-95237734D01*
X181713700Y-94769506D01*
X181622353Y-94310275D01*
X181443170Y-93877688D01*
X181183036Y-93488371D01*
X180851949Y-93157284D01*
X180462632Y-92897150D01*
X180030045Y-92717967D01*
X179570814Y-92626620D01*
X179102586Y-92626620D01*
X178643355Y-92717967D01*
X178210768Y-92897150D01*
X177821451Y-93157284D01*
X177490364Y-93488371D01*
X177230230Y-93877688D01*
X177051047Y-94310275D01*
X176959700Y-94769506D01*
X175146400Y-94769506D01*
X175146400Y-93645515D01*
X175198233Y-93610881D01*
X175403961Y-93405153D01*
X175565601Y-93163242D01*
X175676940Y-92894445D01*
X175733700Y-92609092D01*
X175733700Y-92318148D01*
X175676940Y-92032795D01*
X175565601Y-91763998D01*
X175403961Y-91522087D01*
X175198233Y-91316359D01*
X175146400Y-91281725D01*
X175146400Y-79651168D01*
X175319700Y-79651168D01*
X175319700Y-79942112D01*
X175376460Y-80227465D01*
X175487799Y-80496262D01*
X175649439Y-80738173D01*
X175855167Y-80943901D01*
X176097078Y-81105541D01*
X176365875Y-81216880D01*
X176651228Y-81273640D01*
X176942172Y-81273640D01*
X177227525Y-81216880D01*
X177496322Y-81105541D01*
X177738233Y-80943901D01*
X177943961Y-80738173D01*
X178105601Y-80496262D01*
X178216940Y-80227465D01*
X178273700Y-79942112D01*
X178273700Y-79651168D01*
X178216940Y-79365815D01*
X178105601Y-79097018D01*
X177943961Y-78855107D01*
X177738233Y-78649379D01*
X177496322Y-78487739D01*
X177227525Y-78376400D01*
X176942172Y-78319640D01*
X176651228Y-78319640D01*
X176365875Y-78376400D01*
X176097078Y-78487739D01*
X175855167Y-78649379D01*
X175649439Y-78855107D01*
X175487799Y-79097018D01*
X175376460Y-79365815D01*
X175319700Y-79651168D01*
X175146400Y-79651168D01*
X175146400Y-75752526D01*
X176959700Y-75752526D01*
X176959700Y-76220754D01*
X177051047Y-76679985D01*
X177230230Y-77112572D01*
X177490364Y-77501889D01*
X177821451Y-77832976D01*
X178210768Y-78093110D01*
X178643355Y-78272293D01*
X179102586Y-78363640D01*
X179570814Y-78363640D01*
X180030045Y-78272293D01*
X180462632Y-78093110D01*
X180851949Y-77832976D01*
X181183036Y-77501889D01*
X181443170Y-77112572D01*
X181622353Y-76679985D01*
X181713700Y-76220754D01*
X181713700Y-75752526D01*
X181622353Y-75293295D01*
X181443170Y-74860708D01*
X181183036Y-74471391D01*
X180851949Y-74140304D01*
X180462632Y-73880170D01*
X180030045Y-73700987D01*
X179570814Y-73609640D01*
X179102586Y-73609640D01*
X178643355Y-73700987D01*
X178210768Y-73880170D01*
X177821451Y-74140304D01*
X177490364Y-74471391D01*
X177230230Y-74860708D01*
X177051047Y-75293295D01*
X176959700Y-75752526D01*
X175146400Y-75752526D01*
X175146400Y-74628535D01*
X175198233Y-74593901D01*
X175403961Y-74388173D01*
X175565601Y-74146262D01*
X175676940Y-73877465D01*
X175733700Y-73592112D01*
X175733700Y-73301168D01*
X175676940Y-73015815D01*
X175565601Y-72747018D01*
X175403961Y-72505107D01*
X175198233Y-72299379D01*
X174956322Y-72137739D01*
X174687525Y-72026400D01*
X174402172Y-71969640D01*
X174111228Y-71969640D01*
X173825875Y-72026400D01*
X173557078Y-72137739D01*
X173315167Y-72299379D01*
X173109439Y-72505107D01*
X172947799Y-72747018D01*
X172836460Y-73015815D01*
X172779700Y-73301168D01*
X156673540Y-73301168D01*
X156616780Y-73015815D01*
X156505441Y-72747018D01*
X156343801Y-72505107D01*
X156138073Y-72299379D01*
X155896162Y-72137739D01*
X155627365Y-72026400D01*
X155342012Y-71969640D01*
X155051068Y-71969640D01*
X154765715Y-72026400D01*
X154496918Y-72137739D01*
X154255007Y-72299379D01*
X154049279Y-72505107D01*
X153887639Y-72747018D01*
X153776300Y-73015815D01*
X153719540Y-73301168D01*
X137613380Y-73301168D01*
X137556620Y-73015815D01*
X137445281Y-72747018D01*
X137283641Y-72505107D01*
X137077913Y-72299379D01*
X136836002Y-72137739D01*
X136567205Y-72026400D01*
X136281852Y-71969640D01*
X135990908Y-71969640D01*
X135705555Y-72026400D01*
X135436758Y-72137739D01*
X135194847Y-72299379D01*
X134989119Y-72505107D01*
X134827479Y-72747018D01*
X134716140Y-73015815D01*
X134659380Y-73301168D01*
X89644900Y-73301168D01*
X89644900Y-66800140D01*
X197806900Y-66800140D01*
X197806901Y-123146140D01*
X197806901Y-123146140D01*
G37*
X197806901Y-123146140D02*
X89644900Y-123146140D01*
X89644900Y-117687668D01*
X137199380Y-117687668D01*
X137199380Y-117978612D01*
X137256140Y-118263965D01*
X137367479Y-118532762D01*
X137529119Y-118774673D01*
X137734847Y-118980401D01*
X137976758Y-119142041D01*
X138245555Y-119253380D01*
X138530908Y-119310140D01*
X138821852Y-119310140D01*
X139107205Y-119253380D01*
X139376002Y-119142041D01*
X139617913Y-118980401D01*
X139823641Y-118774673D01*
X139985281Y-118532762D01*
X140096620Y-118263965D01*
X140153380Y-117978612D01*
X140153380Y-117687668D01*
X156259540Y-117687668D01*
X156259540Y-117978612D01*
X156316300Y-118263965D01*
X156427639Y-118532762D01*
X156589279Y-118774673D01*
X156795007Y-118980401D01*
X157036918Y-119142041D01*
X157305715Y-119253380D01*
X157591068Y-119310140D01*
X157882012Y-119310140D01*
X158167365Y-119253380D01*
X158436162Y-119142041D01*
X158678073Y-118980401D01*
X158883801Y-118774673D01*
X159045441Y-118532762D01*
X159156780Y-118263965D01*
X159213540Y-117978612D01*
X159213540Y-117687668D01*
X175319700Y-117687668D01*
X175319700Y-117978612D01*
X175376460Y-118263965D01*
X175487799Y-118532762D01*
X175649439Y-118774673D01*
X175855167Y-118980401D01*
X176097078Y-119142041D01*
X176365875Y-119253380D01*
X176651228Y-119310140D01*
X176942172Y-119310140D01*
X177227525Y-119253380D01*
X177496322Y-119142041D01*
X177738233Y-118980401D01*
X177943961Y-118774673D01*
X178105601Y-118532762D01*
X178216940Y-118263965D01*
X178273700Y-117978612D01*
X178273700Y-117687668D01*
X178216940Y-117402315D01*
X178105601Y-117133518D01*
X177943961Y-116891607D01*
X177738233Y-116685879D01*
X177496322Y-116524239D01*
X177227525Y-116412900D01*
X176942172Y-116356140D01*
X176651228Y-116356140D01*
X176365875Y-116412900D01*
X176097078Y-116524239D01*
X175855167Y-116685879D01*
X175649439Y-116891607D01*
X175487799Y-117133518D01*
X175376460Y-117402315D01*
X175319700Y-117687668D01*
X159213540Y-117687668D01*
X159156780Y-117402315D01*
X159045441Y-117133518D01*
X158883801Y-116891607D01*
X158678073Y-116685879D01*
X158436162Y-116524239D01*
X158167365Y-116412900D01*
X157882012Y-116356140D01*
X157591068Y-116356140D01*
X157305715Y-116412900D01*
X157036918Y-116524239D01*
X156795007Y-116685879D01*
X156589279Y-116891607D01*
X156427639Y-117133518D01*
X156316300Y-117402315D01*
X156259540Y-117687668D01*
X140153380Y-117687668D01*
X140096620Y-117402315D01*
X139985281Y-117133518D01*
X139823641Y-116891607D01*
X139617913Y-116685879D01*
X139376002Y-116524239D01*
X139107205Y-116412900D01*
X138821852Y-116356140D01*
X138530908Y-116356140D01*
X138245555Y-116412900D01*
X137976758Y-116524239D01*
X137734847Y-116685879D01*
X137529119Y-116891607D01*
X137367479Y-117133518D01*
X137256140Y-117402315D01*
X137199380Y-117687668D01*
X89644900Y-117687668D01*
X89644900Y-113789026D01*
X138839380Y-113789026D01*
X138839380Y-114257254D01*
X138930727Y-114716485D01*
X139109910Y-115149072D01*
X139370044Y-115538389D01*
X139701131Y-115869476D01*
X140090448Y-116129610D01*
X140523035Y-116308793D01*
X140982266Y-116400140D01*
X141450494Y-116400140D01*
X141909725Y-116308793D01*
X142342312Y-116129610D01*
X142731629Y-115869476D01*
X143062716Y-115538389D01*
X143322850Y-115149072D01*
X143502033Y-114716485D01*
X143593380Y-114257254D01*
X143593380Y-113789026D01*
X157899540Y-113789026D01*
X157899540Y-114257254D01*
X157990887Y-114716485D01*
X158170070Y-115149072D01*
X158430204Y-115538389D01*
X158761291Y-115869476D01*
X159150608Y-116129610D01*
X159583195Y-116308793D01*
X160042426Y-116400140D01*
X160510654Y-116400140D01*
X160969885Y-116308793D01*
X161402472Y-116129610D01*
X161791789Y-115869476D01*
X162122876Y-115538389D01*
X162383010Y-115149072D01*
X162562193Y-114716485D01*
X162653540Y-114257254D01*
X162653540Y-113789026D01*
X176959700Y-113789026D01*
X176959700Y-114257254D01*
X177051047Y-114716485D01*
X177230230Y-115149072D01*
X177490364Y-115538389D01*
X177821451Y-115869476D01*
X178210768Y-116129610D01*
X178643355Y-116308793D01*
X179102586Y-116400140D01*
X179570814Y-116400140D01*
X180030045Y-116308793D01*
X180462632Y-116129610D01*
X180851949Y-115869476D01*
X181183036Y-115538389D01*
X181443170Y-115149072D01*
X181622353Y-114716485D01*
X181713700Y-114257254D01*
X181713700Y-113789026D01*
X181622353Y-113329795D01*
X181443170Y-112897208D01*
X181183036Y-112507891D01*
X180851949Y-112176804D01*
X180462632Y-111916670D01*
X180030045Y-111737487D01*
X179570814Y-111646140D01*
X179102586Y-111646140D01*
X178643355Y-111737487D01*
X178210768Y-111916670D01*
X177821451Y-112176804D01*
X177490364Y-112507891D01*
X177230230Y-112897208D01*
X177051047Y-113329795D01*
X176959700Y-113789026D01*
X162653540Y-113789026D01*
X162562193Y-113329795D01*
X162383010Y-112897208D01*
X162122876Y-112507891D01*
X161791789Y-112176804D01*
X161402472Y-111916670D01*
X160969885Y-111737487D01*
X160510654Y-111646140D01*
X160042426Y-111646140D01*
X159583195Y-111737487D01*
X159150608Y-111916670D01*
X158761291Y-112176804D01*
X158430204Y-112507891D01*
X158170070Y-112897208D01*
X157990887Y-113329795D01*
X157899540Y-113789026D01*
X143593380Y-113789026D01*
X143502033Y-113329795D01*
X143322850Y-112897208D01*
X143062716Y-112507891D01*
X142731629Y-112176804D01*
X142342312Y-111916670D01*
X141909725Y-111737487D01*
X141450494Y-111646140D01*
X140982266Y-111646140D01*
X140523035Y-111737487D01*
X140090448Y-111916670D01*
X139701131Y-112176804D01*
X139370044Y-112507891D01*
X139109910Y-112897208D01*
X138930727Y-113329795D01*
X138839380Y-113789026D01*
X89644900Y-113789026D01*
X89644900Y-98675236D01*
X89676748Y-98734819D01*
X89780094Y-98860746D01*
X89906021Y-98964092D01*
X89940701Y-98982629D01*
X89940701Y-99258211D01*
X89936457Y-99301300D01*
X89953390Y-99473222D01*
X90003538Y-99638536D01*
X90084974Y-99790892D01*
X90167106Y-99890971D01*
X90167109Y-99890974D01*
X90194568Y-99924433D01*
X90228027Y-99951892D01*
X91168108Y-100891974D01*
X91195567Y-100925433D01*
X91329108Y-101035027D01*
X91459609Y-101104781D01*
X91481463Y-101116462D01*
X91646777Y-101166610D01*
X91818700Y-101183543D01*
X91861779Y-101179300D01*
X95547079Y-101179300D01*
X95655474Y-101168624D01*
X96204000Y-101168624D01*
X96277905Y-101161345D01*
X96348970Y-101139788D01*
X96414463Y-101104781D01*
X96471869Y-101057669D01*
X96518981Y-101000263D01*
X96553988Y-100934770D01*
X96575545Y-100863705D01*
X96582824Y-100789800D01*
X96582824Y-99814800D01*
X96575545Y-99740895D01*
X96553988Y-99669830D01*
X96518981Y-99604337D01*
X96471869Y-99546931D01*
X96414463Y-99499819D01*
X96348970Y-99464812D01*
X96277905Y-99443255D01*
X96204000Y-99435976D01*
X95655474Y-99435976D01*
X95547079Y-99425300D01*
X92181966Y-99425300D01*
X91723760Y-98967095D01*
X91729379Y-98964092D01*
X91855306Y-98860746D01*
X91958652Y-98734819D01*
X92035445Y-98591150D01*
X92082734Y-98435260D01*
X92098701Y-98273140D01*
X92082734Y-98111020D01*
X92035445Y-97955130D01*
X91958652Y-97811461D01*
X91855306Y-97685534D01*
X91729379Y-97582188D01*
X91585710Y-97505395D01*
X91429820Y-97458106D01*
X91308324Y-97446140D01*
X91112615Y-97446140D01*
X90989621Y-97408830D01*
X90817700Y-97391897D01*
X90645778Y-97408830D01*
X90522784Y-97446140D01*
X90327076Y-97446140D01*
X90205580Y-97458106D01*
X90049690Y-97505395D01*
X89906021Y-97582188D01*
X89780094Y-97685534D01*
X89676748Y-97811461D01*
X89644900Y-97871044D01*
X89644900Y-93141472D01*
X94219000Y-93141472D01*
X94219000Y-93294528D01*
X94248859Y-93444643D01*
X94307431Y-93586048D01*
X94392464Y-93713309D01*
X94419000Y-93739845D01*
X94419000Y-93951669D01*
X94416210Y-93980000D01*
X94427349Y-94093111D01*
X94460344Y-94201876D01*
X94513922Y-94302115D01*
X94520619Y-94310275D01*
X94567963Y-94367964D01*
X94567966Y-94367967D01*
X94586027Y-94389974D01*
X94608034Y-94408035D01*
X95860957Y-95660958D01*
X95869016Y-95701474D01*
X95912107Y-95805503D01*
X95880172Y-95818731D01*
X95752911Y-95903764D01*
X95644684Y-96011991D01*
X95559651Y-96139252D01*
X95501079Y-96280657D01*
X95471220Y-96430772D01*
X95471220Y-96583828D01*
X95501079Y-96733943D01*
X95559651Y-96875348D01*
X95644684Y-97002609D01*
X95752911Y-97110836D01*
X95880172Y-97195869D01*
X96021577Y-97254441D01*
X96171692Y-97284300D01*
X96324748Y-97284300D01*
X96474863Y-97254441D01*
X96616268Y-97195869D01*
X96677065Y-97155246D01*
X96832000Y-97310181D01*
X96832000Y-97560976D01*
X96709000Y-97560976D01*
X96635095Y-97568255D01*
X96564030Y-97589812D01*
X96498537Y-97624819D01*
X96441131Y-97671931D01*
X96394019Y-97729337D01*
X96359012Y-97794830D01*
X96337455Y-97865895D01*
X96330176Y-97939800D01*
X96330176Y-98914800D01*
X96337455Y-98988705D01*
X96359012Y-99059770D01*
X96394019Y-99125263D01*
X96441131Y-99182669D01*
X96498537Y-99229781D01*
X96564030Y-99264788D01*
X96635095Y-99286345D01*
X96709000Y-99293624D01*
X98109000Y-99293624D01*
X98182905Y-99286345D01*
X98253970Y-99264788D01*
X98319463Y-99229781D01*
X98376869Y-99182669D01*
X98423981Y-99125263D01*
X98458988Y-99059770D01*
X98480545Y-98988705D01*
X98487824Y-98914800D01*
X98487824Y-97939800D01*
X98480545Y-97865895D01*
X98458988Y-97794830D01*
X98423981Y-97729337D01*
X98376869Y-97671931D01*
X98319463Y-97624819D01*
X98253970Y-97589812D01*
X98182905Y-97568255D01*
X98109000Y-97560976D01*
X97986000Y-97560976D01*
X97986000Y-97099511D01*
X97988790Y-97071180D01*
X97977651Y-96958068D01*
X97971798Y-96938772D01*
X104389160Y-96938772D01*
X104389160Y-97091828D01*
X104419019Y-97241943D01*
X104477591Y-97383348D01*
X104562624Y-97510609D01*
X104637006Y-97584991D01*
X104646786Y-97684294D01*
X104676921Y-97783634D01*
X104687347Y-97803139D01*
X104725857Y-97875187D01*
X104791713Y-97955433D01*
X104811822Y-97971936D01*
X106617820Y-99777936D01*
X106617821Y-104152209D01*
X106615271Y-104178100D01*
X106625446Y-104281409D01*
X106655581Y-104380749D01*
X106699435Y-104462795D01*
X106704517Y-104472302D01*
X106770373Y-104552548D01*
X106790482Y-104569051D01*
X109494534Y-107273105D01*
X109511032Y-107293208D01*
X109591278Y-107359064D01*
X109682830Y-107407999D01*
X109782170Y-107438134D01*
X109885480Y-107448309D01*
X109911361Y-107445760D01*
X110126435Y-107445760D01*
X110202971Y-107522296D01*
X110330232Y-107607329D01*
X110471637Y-107665901D01*
X110621752Y-107695760D01*
X110774808Y-107695760D01*
X110924923Y-107665901D01*
X111066328Y-107607329D01*
X111193589Y-107522296D01*
X111301816Y-107414069D01*
X111386849Y-107286808D01*
X111445421Y-107145403D01*
X111475280Y-106995288D01*
X111475280Y-106842232D01*
X111445421Y-106692117D01*
X111386849Y-106550712D01*
X111301816Y-106423451D01*
X111193589Y-106315224D01*
X111066328Y-106230191D01*
X110924923Y-106171619D01*
X110774808Y-106141760D01*
X110621752Y-106141760D01*
X110471637Y-106171619D01*
X110330232Y-106230191D01*
X110202971Y-106315224D01*
X110126435Y-106391760D01*
X110103771Y-106391760D01*
X107671820Y-103959811D01*
X107671820Y-99585526D01*
X107674369Y-99559645D01*
X107664194Y-99456335D01*
X107634059Y-99356996D01*
X107634059Y-99356995D01*
X107585124Y-99265443D01*
X107519268Y-99185197D01*
X107499164Y-99168699D01*
X105798286Y-97467821D01*
X105854729Y-97383348D01*
X105913301Y-97241943D01*
X105943160Y-97091828D01*
X105943160Y-96938772D01*
X105913301Y-96788657D01*
X105854729Y-96647252D01*
X105769696Y-96519991D01*
X105661469Y-96411764D01*
X105534208Y-96326731D01*
X105392803Y-96268159D01*
X105242688Y-96238300D01*
X105089632Y-96238300D01*
X104939517Y-96268159D01*
X104798112Y-96326731D01*
X104670851Y-96411764D01*
X104562624Y-96519991D01*
X104477591Y-96647252D01*
X104419019Y-96788657D01*
X104389160Y-96938772D01*
X97971798Y-96938772D01*
X97952557Y-96875348D01*
X97944657Y-96849304D01*
X97891079Y-96749065D01*
X97818974Y-96661206D01*
X97796963Y-96643142D01*
X97273159Y-96119338D01*
X97255094Y-96097326D01*
X97167235Y-96025221D01*
X97066996Y-95971643D01*
X97023097Y-95958326D01*
X97045860Y-95935563D01*
X97119950Y-95824680D01*
X97170984Y-95701474D01*
X97197000Y-95570679D01*
X97197000Y-95437321D01*
X97170984Y-95306526D01*
X97119950Y-95183320D01*
X97045860Y-95072437D01*
X96951563Y-94978140D01*
X96840680Y-94904050D01*
X96717474Y-94853016D01*
X96676958Y-94844957D01*
X95573000Y-93740999D01*
X95573000Y-93739845D01*
X95599536Y-93713309D01*
X95684569Y-93586048D01*
X95743141Y-93444643D01*
X95773000Y-93294528D01*
X95773000Y-93141472D01*
X95743141Y-92991357D01*
X95684569Y-92849952D01*
X95599536Y-92722691D01*
X95491309Y-92614464D01*
X95364048Y-92529431D01*
X95222643Y-92470859D01*
X95072528Y-92441000D01*
X94919472Y-92441000D01*
X94769357Y-92470859D01*
X94627952Y-92529431D01*
X94500691Y-92614464D01*
X94392464Y-92722691D01*
X94307431Y-92849952D01*
X94248859Y-92991357D01*
X94219000Y-93141472D01*
X89644900Y-93141472D01*
X89644900Y-92075236D01*
X89676748Y-92134819D01*
X89780094Y-92260746D01*
X89906021Y-92364092D01*
X90049690Y-92440885D01*
X90205580Y-92488174D01*
X90327076Y-92500140D01*
X91308324Y-92500140D01*
X91429820Y-92488174D01*
X91585710Y-92440885D01*
X91729379Y-92364092D01*
X91855306Y-92260746D01*
X91958652Y-92134819D01*
X92035445Y-91991150D01*
X92082734Y-91835260D01*
X92098701Y-91673140D01*
X92082734Y-91511020D01*
X92035445Y-91355130D01*
X91958652Y-91211461D01*
X91855306Y-91085534D01*
X91729379Y-90982188D01*
X91585710Y-90905395D01*
X91429820Y-90858106D01*
X91308324Y-90846140D01*
X90327076Y-90846140D01*
X90205580Y-90858106D01*
X90049690Y-90905395D01*
X89906021Y-90982188D01*
X89780094Y-91085534D01*
X89676748Y-91211461D01*
X89644900Y-91271044D01*
X89644900Y-87300249D01*
X97575800Y-87300249D01*
X97575800Y-87502551D01*
X97615267Y-87700965D01*
X97692685Y-87887867D01*
X97805077Y-88056074D01*
X97948126Y-88199123D01*
X98116333Y-88311515D01*
X98303235Y-88388933D01*
X98501649Y-88428400D01*
X98703951Y-88428400D01*
X98881022Y-88393178D01*
X98845800Y-88570249D01*
X98845800Y-88772551D01*
X98885267Y-88970965D01*
X98962685Y-89157867D01*
X99075077Y-89326074D01*
X99218126Y-89469123D01*
X99386333Y-89581515D01*
X99573235Y-89658933D01*
X99771649Y-89698400D01*
X99973951Y-89698400D01*
X100172365Y-89658933D01*
X100359267Y-89581515D01*
X100527474Y-89469123D01*
X100670523Y-89326074D01*
X100782915Y-89157867D01*
X100860333Y-88970965D01*
X100899800Y-88772551D01*
X100899800Y-88570249D01*
X100871947Y-88430224D01*
X101792800Y-88430224D01*
X101866705Y-88422945D01*
X101937770Y-88401388D01*
X102003263Y-88366381D01*
X102060669Y-88319269D01*
X102107781Y-88261863D01*
X102142788Y-88196370D01*
X102164345Y-88125305D01*
X102171624Y-88051400D01*
X102171624Y-86751400D01*
X102164345Y-86677495D01*
X102142788Y-86606430D01*
X102107781Y-86540937D01*
X102060669Y-86483531D01*
X102003263Y-86436419D01*
X101937770Y-86401412D01*
X101866705Y-86379855D01*
X101792800Y-86372576D01*
X100492800Y-86372576D01*
X100418895Y-86379855D01*
X100347830Y-86401412D01*
X100282337Y-86436419D01*
X100224931Y-86483531D01*
X100177819Y-86540937D01*
X100142812Y-86606430D01*
X100121255Y-86677495D01*
X100113976Y-86751400D01*
X100113976Y-87672253D01*
X99973951Y-87644400D01*
X99771649Y-87644400D01*
X99594578Y-87679622D01*
X99629800Y-87502551D01*
X99629800Y-87300249D01*
X99590333Y-87101835D01*
X99512915Y-86914933D01*
X99400523Y-86746726D01*
X99257474Y-86603677D01*
X99089267Y-86491285D01*
X98902365Y-86413867D01*
X98703951Y-86374400D01*
X98501649Y-86374400D01*
X98303235Y-86413867D01*
X98116333Y-86491285D01*
X97948126Y-86603677D01*
X97805077Y-86746726D01*
X97692685Y-86914933D01*
X97615267Y-87101835D01*
X97575800Y-87300249D01*
X89644900Y-87300249D01*
X89644900Y-83543140D01*
X92293076Y-83543140D01*
X92293076Y-85067140D01*
X92300355Y-85141045D01*
X92321912Y-85212110D01*
X92356919Y-85277603D01*
X92404031Y-85335009D01*
X92461437Y-85382121D01*
X92526930Y-85417128D01*
X92597995Y-85438685D01*
X92671900Y-85445964D01*
X94195900Y-85445964D01*
X94269805Y-85438685D01*
X94340870Y-85417128D01*
X94406363Y-85382121D01*
X94463769Y-85335009D01*
X94510881Y-85277603D01*
X94545888Y-85212110D01*
X94567445Y-85141045D01*
X94574724Y-85067140D01*
X94574724Y-83543140D01*
X94567445Y-83469235D01*
X94545888Y-83398170D01*
X94510881Y-83332677D01*
X94463769Y-83275271D01*
X94406363Y-83228159D01*
X94340870Y-83193152D01*
X94269805Y-83171595D01*
X94195900Y-83164316D01*
X92671900Y-83164316D01*
X92597995Y-83171595D01*
X92526930Y-83193152D01*
X92461437Y-83228159D01*
X92404031Y-83275271D01*
X92356919Y-83332677D01*
X92321912Y-83398170D01*
X92300355Y-83469235D01*
X92293076Y-83543140D01*
X89644900Y-83543140D01*
X89644900Y-81652958D01*
X92294900Y-81652958D01*
X92294900Y-81877322D01*
X92338671Y-82097374D01*
X92424531Y-82304659D01*
X92549181Y-82491210D01*
X92707830Y-82649859D01*
X92894381Y-82774509D01*
X93101666Y-82860369D01*
X93321718Y-82904140D01*
X93546082Y-82904140D01*
X93766134Y-82860369D01*
X93973419Y-82774509D01*
X94159970Y-82649859D01*
X94318619Y-82491210D01*
X94443269Y-82304659D01*
X94448455Y-82292140D01*
X101689051Y-82292140D01*
X112160100Y-92763191D01*
X112160101Y-97879049D01*
X110351566Y-99687585D01*
X110331452Y-99704092D01*
X110265596Y-99784338D01*
X110236196Y-99839343D01*
X110216661Y-99875891D01*
X110186526Y-99975231D01*
X110176351Y-100078540D01*
X110178900Y-100104421D01*
X110178901Y-104358094D01*
X110102364Y-104434631D01*
X110017331Y-104561892D01*
X109958759Y-104703297D01*
X109928900Y-104853412D01*
X109928900Y-105006468D01*
X109958759Y-105156583D01*
X110017331Y-105297988D01*
X110102364Y-105425249D01*
X110210591Y-105533476D01*
X110337852Y-105618509D01*
X110479257Y-105677081D01*
X110629372Y-105706940D01*
X110782428Y-105706940D01*
X110932543Y-105677081D01*
X111073948Y-105618509D01*
X111201209Y-105533476D01*
X111309436Y-105425249D01*
X111394469Y-105297988D01*
X111453041Y-105156583D01*
X111482900Y-105006468D01*
X111482900Y-104853412D01*
X111453041Y-104703297D01*
X111394469Y-104561892D01*
X111309436Y-104434631D01*
X111232900Y-104358095D01*
X111232900Y-100296829D01*
X113041439Y-98488291D01*
X113061548Y-98471788D01*
X113127404Y-98391542D01*
X113176339Y-98299990D01*
X113206474Y-98200650D01*
X113214100Y-98123221D01*
X113216649Y-98097340D01*
X113214100Y-98071459D01*
X113214100Y-92570781D01*
X113216649Y-92544900D01*
X113206474Y-92441590D01*
X113176339Y-92342251D01*
X113176339Y-92342250D01*
X113127404Y-92250698D01*
X113061548Y-92170452D01*
X113041445Y-92153954D01*
X102298295Y-81410806D01*
X102281788Y-81390692D01*
X102201542Y-81324836D01*
X102109990Y-81275901D01*
X102010650Y-81245766D01*
X101933221Y-81238140D01*
X101907340Y-81235591D01*
X101881459Y-81238140D01*
X94448455Y-81238140D01*
X94443269Y-81225621D01*
X94318619Y-81039070D01*
X94159970Y-80880421D01*
X93973419Y-80755771D01*
X93766134Y-80669911D01*
X93546082Y-80626140D01*
X93321718Y-80626140D01*
X93101666Y-80669911D01*
X92894381Y-80755771D01*
X92707830Y-80880421D01*
X92549181Y-81039070D01*
X92424531Y-81225621D01*
X92338671Y-81432906D01*
X92294900Y-81652958D01*
X89644900Y-81652958D01*
X89644900Y-79112958D01*
X92294900Y-79112958D01*
X92294900Y-79337322D01*
X92338671Y-79557374D01*
X92424531Y-79764659D01*
X92549181Y-79951210D01*
X92707830Y-80109859D01*
X92894381Y-80234509D01*
X93101666Y-80320369D01*
X93321718Y-80364140D01*
X93546082Y-80364140D01*
X93766134Y-80320369D01*
X93973419Y-80234509D01*
X94159970Y-80109859D01*
X94318619Y-79951210D01*
X94443269Y-79764659D01*
X94448455Y-79752140D01*
X102715211Y-79752140D01*
X114623900Y-91660831D01*
X114623901Y-99276140D01*
X114566372Y-99276140D01*
X114416257Y-99305999D01*
X114274852Y-99364571D01*
X114147591Y-99449604D01*
X114039364Y-99557831D01*
X113954331Y-99685092D01*
X113895759Y-99826497D01*
X113865900Y-99976612D01*
X113865900Y-100129668D01*
X113895759Y-100279783D01*
X113954331Y-100421188D01*
X114039364Y-100548449D01*
X114147591Y-100656676D01*
X114274852Y-100741709D01*
X114416257Y-100800281D01*
X114566372Y-100830140D01*
X114719428Y-100830140D01*
X114869543Y-100800281D01*
X115010948Y-100741709D01*
X115138209Y-100656676D01*
X115246436Y-100548449D01*
X115331469Y-100421188D01*
X115390041Y-100279783D01*
X115419900Y-100129668D01*
X115419900Y-100021430D01*
X115505239Y-99936091D01*
X115525348Y-99919588D01*
X115591204Y-99839342D01*
X115640139Y-99747790D01*
X115670274Y-99648450D01*
X115677900Y-99571021D01*
X115677900Y-99571019D01*
X115680449Y-99545141D01*
X115677900Y-99519263D01*
X115677900Y-91468421D01*
X115680449Y-91442540D01*
X115670274Y-91339230D01*
X115640139Y-91239891D01*
X115640139Y-91239890D01*
X115591204Y-91148338D01*
X115525348Y-91068092D01*
X115505245Y-91051594D01*
X103324455Y-78870806D01*
X103307948Y-78850692D01*
X103227702Y-78784836D01*
X103136150Y-78735901D01*
X103036810Y-78705766D01*
X102959381Y-78698140D01*
X102933500Y-78695591D01*
X102907619Y-78698140D01*
X94448455Y-78698140D01*
X94443269Y-78685621D01*
X94318619Y-78499070D01*
X94159970Y-78340421D01*
X93973419Y-78215771D01*
X93766134Y-78129911D01*
X93546082Y-78086140D01*
X93511958Y-78086140D01*
X93778033Y-78046062D01*
X94036923Y-77952776D01*
X94152880Y-77890796D01*
X94219860Y-77650705D01*
X93433900Y-76864745D01*
X92647940Y-77650705D01*
X92714920Y-77890796D01*
X92963948Y-78007896D01*
X93231035Y-78074163D01*
X93486507Y-78086140D01*
X93321718Y-78086140D01*
X93101666Y-78129911D01*
X92894381Y-78215771D01*
X92707830Y-78340421D01*
X92549181Y-78499070D01*
X92424531Y-78685621D01*
X92338671Y-78892906D01*
X92294900Y-79112958D01*
X89644900Y-79112958D01*
X89644900Y-76757157D01*
X92031990Y-76757157D01*
X92072978Y-77029273D01*
X92166264Y-77288163D01*
X92228244Y-77404120D01*
X92468335Y-77471100D01*
X93254295Y-76685140D01*
X93613505Y-76685140D01*
X94399465Y-77471100D01*
X94639556Y-77404120D01*
X94756656Y-77155092D01*
X94822923Y-76888005D01*
X94835810Y-76613123D01*
X94794822Y-76341007D01*
X94701536Y-76082117D01*
X94639556Y-75966160D01*
X94399465Y-75899180D01*
X93613505Y-76685140D01*
X93254295Y-76685140D01*
X92468335Y-75899180D01*
X92228244Y-75966160D01*
X92111144Y-76215188D01*
X92044877Y-76482275D01*
X92031990Y-76757157D01*
X89644900Y-76757157D01*
X89644900Y-75719575D01*
X92647940Y-75719575D01*
X93433900Y-76505535D01*
X94219860Y-75719575D01*
X94152880Y-75479484D01*
X93903852Y-75362384D01*
X93636765Y-75296117D01*
X93361883Y-75283230D01*
X93089767Y-75324218D01*
X92830877Y-75417504D01*
X92714920Y-75479484D01*
X92647940Y-75719575D01*
X89644900Y-75719575D01*
X89644900Y-73301168D01*
X134659380Y-73301168D01*
X134659380Y-73592112D01*
X134716140Y-73877465D01*
X134827479Y-74146262D01*
X134989119Y-74388173D01*
X135194847Y-74593901D01*
X135292401Y-74659084D01*
X135292401Y-74959186D01*
X135292400Y-74959196D01*
X135292400Y-91251176D01*
X135194847Y-91316359D01*
X134989119Y-91522087D01*
X134827479Y-91763998D01*
X134716140Y-92032795D01*
X134659380Y-92318148D01*
X134659380Y-92609092D01*
X134716140Y-92894445D01*
X134827479Y-93163242D01*
X134989119Y-93405153D01*
X135194847Y-93610881D01*
X135292401Y-93676064D01*
X135292401Y-110270695D01*
X135194847Y-110335879D01*
X134989119Y-110541607D01*
X134827479Y-110783518D01*
X134716140Y-111052315D01*
X134659380Y-111337668D01*
X134659380Y-111628612D01*
X134716140Y-111913965D01*
X134827479Y-112182762D01*
X134989119Y-112424673D01*
X135194847Y-112630401D01*
X135436758Y-112792041D01*
X135705555Y-112903380D01*
X135990908Y-112960140D01*
X136281852Y-112960140D01*
X136567205Y-112903380D01*
X136836002Y-112792041D01*
X137077913Y-112630401D01*
X137283641Y-112424673D01*
X137445281Y-112182762D01*
X137556620Y-111913965D01*
X137613380Y-111628612D01*
X137613380Y-111337668D01*
X137556620Y-111052315D01*
X137445281Y-110783518D01*
X137283641Y-110541607D01*
X137077913Y-110335879D01*
X137046400Y-110314823D01*
X137046400Y-98668148D01*
X137199380Y-98668148D01*
X137199380Y-98959092D01*
X137256140Y-99244445D01*
X137367479Y-99513242D01*
X137529119Y-99755153D01*
X137734847Y-99960881D01*
X137976758Y-100122521D01*
X138245555Y-100233860D01*
X138530908Y-100290620D01*
X138821852Y-100290620D01*
X139107205Y-100233860D01*
X139376002Y-100122521D01*
X139617913Y-99960881D01*
X139823641Y-99755153D01*
X139985281Y-99513242D01*
X140096620Y-99244445D01*
X140153380Y-98959092D01*
X140153380Y-98668148D01*
X140096620Y-98382795D01*
X139985281Y-98113998D01*
X139823641Y-97872087D01*
X139617913Y-97666359D01*
X139376002Y-97504719D01*
X139107205Y-97393380D01*
X138821852Y-97336620D01*
X138530908Y-97336620D01*
X138245555Y-97393380D01*
X137976758Y-97504719D01*
X137734847Y-97666359D01*
X137529119Y-97872087D01*
X137367479Y-98113998D01*
X137256140Y-98382795D01*
X137199380Y-98668148D01*
X137046400Y-98668148D01*
X137046400Y-94769506D01*
X138839380Y-94769506D01*
X138839380Y-95237734D01*
X138930727Y-95696965D01*
X139109910Y-96129552D01*
X139370044Y-96518869D01*
X139701131Y-96849956D01*
X140090448Y-97110090D01*
X140523035Y-97289273D01*
X140982266Y-97380620D01*
X141450494Y-97380620D01*
X141909725Y-97289273D01*
X142342312Y-97110090D01*
X142731629Y-96849956D01*
X143062716Y-96518869D01*
X143322850Y-96129552D01*
X143502033Y-95696965D01*
X143593380Y-95237734D01*
X143593380Y-94769506D01*
X143502033Y-94310275D01*
X143322850Y-93877688D01*
X143062716Y-93488371D01*
X142731629Y-93157284D01*
X142342312Y-92897150D01*
X141909725Y-92717967D01*
X141450494Y-92626620D01*
X140982266Y-92626620D01*
X140523035Y-92717967D01*
X140090448Y-92897150D01*
X139701131Y-93157284D01*
X139370044Y-93488371D01*
X139109910Y-93877688D01*
X138930727Y-94310275D01*
X138839380Y-94769506D01*
X137046400Y-94769506D01*
X137046400Y-93631937D01*
X137077913Y-93610881D01*
X137283641Y-93405153D01*
X137445281Y-93163242D01*
X137556620Y-92894445D01*
X137613380Y-92609092D01*
X137613380Y-92318148D01*
X137556620Y-92032795D01*
X137445281Y-91763998D01*
X137283641Y-91522087D01*
X137077913Y-91316359D01*
X137046400Y-91295303D01*
X137046400Y-79651168D01*
X137199380Y-79651168D01*
X137199380Y-79942112D01*
X137256140Y-80227465D01*
X137367479Y-80496262D01*
X137529119Y-80738173D01*
X137734847Y-80943901D01*
X137976758Y-81105541D01*
X138245555Y-81216880D01*
X138530908Y-81273640D01*
X138821852Y-81273640D01*
X139107205Y-81216880D01*
X139376002Y-81105541D01*
X139617913Y-80943901D01*
X139823641Y-80738173D01*
X139985281Y-80496262D01*
X140096620Y-80227465D01*
X140153380Y-79942112D01*
X140153380Y-79651168D01*
X140096620Y-79365815D01*
X139985281Y-79097018D01*
X139823641Y-78855107D01*
X139617913Y-78649379D01*
X139376002Y-78487739D01*
X139107205Y-78376400D01*
X138821852Y-78319640D01*
X138530908Y-78319640D01*
X138245555Y-78376400D01*
X137976758Y-78487739D01*
X137734847Y-78649379D01*
X137529119Y-78855107D01*
X137367479Y-79097018D01*
X137256140Y-79365815D01*
X137199380Y-79651168D01*
X137046400Y-79651168D01*
X137046400Y-75752526D01*
X138839380Y-75752526D01*
X138839380Y-76220754D01*
X138930727Y-76679985D01*
X139109910Y-77112572D01*
X139370044Y-77501889D01*
X139701131Y-77832976D01*
X140090448Y-78093110D01*
X140523035Y-78272293D01*
X140982266Y-78363640D01*
X141450494Y-78363640D01*
X141909725Y-78272293D01*
X142342312Y-78093110D01*
X142731629Y-77832976D01*
X143062716Y-77501889D01*
X143322850Y-77112572D01*
X143502033Y-76679985D01*
X143593380Y-76220754D01*
X143593380Y-75752526D01*
X143502033Y-75293295D01*
X143322850Y-74860708D01*
X143062716Y-74471391D01*
X142731629Y-74140304D01*
X142342312Y-73880170D01*
X141909725Y-73700987D01*
X141450494Y-73609640D01*
X140982266Y-73609640D01*
X140523035Y-73700987D01*
X140090448Y-73880170D01*
X139701131Y-74140304D01*
X139370044Y-74471391D01*
X139109910Y-74860708D01*
X138930727Y-75293295D01*
X138839380Y-75752526D01*
X137046400Y-75752526D01*
X137046400Y-74614957D01*
X137077913Y-74593901D01*
X137283641Y-74388173D01*
X137445281Y-74146262D01*
X137556620Y-73877465D01*
X137613380Y-73592112D01*
X137613380Y-73301168D01*
X153719540Y-73301168D01*
X153719540Y-73592112D01*
X153776300Y-73877465D01*
X153887639Y-74146262D01*
X154049279Y-74388173D01*
X154255007Y-74593901D01*
X154342400Y-74652295D01*
X154342400Y-91257964D01*
X154255007Y-91316359D01*
X154049279Y-91522087D01*
X153887639Y-91763998D01*
X153776300Y-92032795D01*
X153719540Y-92318148D01*
X153719540Y-92609092D01*
X153776300Y-92894445D01*
X153887639Y-93163242D01*
X154049279Y-93405153D01*
X154255007Y-93610881D01*
X154342401Y-93669276D01*
X154342401Y-110277484D01*
X154255007Y-110335879D01*
X154049279Y-110541607D01*
X153887639Y-110783518D01*
X153776300Y-111052315D01*
X153719540Y-111337668D01*
X153719540Y-111628612D01*
X153776300Y-111913965D01*
X153887639Y-112182762D01*
X154049279Y-112424673D01*
X154255007Y-112630401D01*
X154496918Y-112792041D01*
X154765715Y-112903380D01*
X155051068Y-112960140D01*
X155342012Y-112960140D01*
X155627365Y-112903380D01*
X155896162Y-112792041D01*
X156138073Y-112630401D01*
X156343801Y-112424673D01*
X156505441Y-112182762D01*
X156616780Y-111913965D01*
X156673540Y-111628612D01*
X156673540Y-111337668D01*
X156616780Y-111052315D01*
X156505441Y-110783518D01*
X156343801Y-110541607D01*
X156138073Y-110335879D01*
X156096400Y-110308034D01*
X156096400Y-98668148D01*
X156259540Y-98668148D01*
X156259540Y-98959092D01*
X156316300Y-99244445D01*
X156427639Y-99513242D01*
X156589279Y-99755153D01*
X156795007Y-99960881D01*
X157036918Y-100122521D01*
X157305715Y-100233860D01*
X157591068Y-100290620D01*
X157882012Y-100290620D01*
X158167365Y-100233860D01*
X158436162Y-100122521D01*
X158678073Y-99960881D01*
X158883801Y-99755153D01*
X159045441Y-99513242D01*
X159156780Y-99244445D01*
X159213540Y-98959092D01*
X159213540Y-98668148D01*
X159156780Y-98382795D01*
X159045441Y-98113998D01*
X158883801Y-97872087D01*
X158678073Y-97666359D01*
X158436162Y-97504719D01*
X158167365Y-97393380D01*
X157882012Y-97336620D01*
X157591068Y-97336620D01*
X157305715Y-97393380D01*
X157036918Y-97504719D01*
X156795007Y-97666359D01*
X156589279Y-97872087D01*
X156427639Y-98113998D01*
X156316300Y-98382795D01*
X156259540Y-98668148D01*
X156096400Y-98668148D01*
X156096400Y-94769506D01*
X157899540Y-94769506D01*
X157899540Y-95237734D01*
X157990887Y-95696965D01*
X158170070Y-96129552D01*
X158430204Y-96518869D01*
X158761291Y-96849956D01*
X159150608Y-97110090D01*
X159583195Y-97289273D01*
X160042426Y-97380620D01*
X160510654Y-97380620D01*
X160969885Y-97289273D01*
X161402472Y-97110090D01*
X161791789Y-96849956D01*
X162122876Y-96518869D01*
X162383010Y-96129552D01*
X162562193Y-95696965D01*
X162653540Y-95237734D01*
X162653540Y-94769506D01*
X162562193Y-94310275D01*
X162383010Y-93877688D01*
X162122876Y-93488371D01*
X161791789Y-93157284D01*
X161402472Y-92897150D01*
X160969885Y-92717967D01*
X160510654Y-92626620D01*
X160042426Y-92626620D01*
X159583195Y-92717967D01*
X159150608Y-92897150D01*
X158761291Y-93157284D01*
X158430204Y-93488371D01*
X158170070Y-93877688D01*
X157990887Y-94310275D01*
X157899540Y-94769506D01*
X156096400Y-94769506D01*
X156096400Y-93638726D01*
X156138073Y-93610881D01*
X156343801Y-93405153D01*
X156505441Y-93163242D01*
X156616780Y-92894445D01*
X156673540Y-92609092D01*
X156673540Y-92318148D01*
X156616780Y-92032795D01*
X156505441Y-91763998D01*
X156343801Y-91522087D01*
X156138073Y-91316359D01*
X156096400Y-91288514D01*
X156096400Y-79651168D01*
X156259540Y-79651168D01*
X156259540Y-79942112D01*
X156316300Y-80227465D01*
X156427639Y-80496262D01*
X156589279Y-80738173D01*
X156795007Y-80943901D01*
X157036918Y-81105541D01*
X157305715Y-81216880D01*
X157591068Y-81273640D01*
X157882012Y-81273640D01*
X158167365Y-81216880D01*
X158436162Y-81105541D01*
X158678073Y-80943901D01*
X158883801Y-80738173D01*
X159045441Y-80496262D01*
X159156780Y-80227465D01*
X159213540Y-79942112D01*
X159213540Y-79651168D01*
X159156780Y-79365815D01*
X159045441Y-79097018D01*
X158883801Y-78855107D01*
X158678073Y-78649379D01*
X158436162Y-78487739D01*
X158167365Y-78376400D01*
X157882012Y-78319640D01*
X157591068Y-78319640D01*
X157305715Y-78376400D01*
X157036918Y-78487739D01*
X156795007Y-78649379D01*
X156589279Y-78855107D01*
X156427639Y-79097018D01*
X156316300Y-79365815D01*
X156259540Y-79651168D01*
X156096400Y-79651168D01*
X156096400Y-75752526D01*
X157899540Y-75752526D01*
X157899540Y-76220754D01*
X157990887Y-76679985D01*
X158170070Y-77112572D01*
X158430204Y-77501889D01*
X158761291Y-77832976D01*
X159150608Y-78093110D01*
X159583195Y-78272293D01*
X160042426Y-78363640D01*
X160510654Y-78363640D01*
X160969885Y-78272293D01*
X161402472Y-78093110D01*
X161791789Y-77832976D01*
X162122876Y-77501889D01*
X162383010Y-77112572D01*
X162562193Y-76679985D01*
X162653540Y-76220754D01*
X162653540Y-75752526D01*
X162562193Y-75293295D01*
X162383010Y-74860708D01*
X162122876Y-74471391D01*
X161791789Y-74140304D01*
X161402472Y-73880170D01*
X160969885Y-73700987D01*
X160510654Y-73609640D01*
X160042426Y-73609640D01*
X159583195Y-73700987D01*
X159150608Y-73880170D01*
X158761291Y-74140304D01*
X158430204Y-74471391D01*
X158170070Y-74860708D01*
X157990887Y-75293295D01*
X157899540Y-75752526D01*
X156096400Y-75752526D01*
X156096400Y-74621746D01*
X156138073Y-74593901D01*
X156343801Y-74388173D01*
X156505441Y-74146262D01*
X156616780Y-73877465D01*
X156673540Y-73592112D01*
X156673540Y-73301168D01*
X172779700Y-73301168D01*
X172779700Y-73592112D01*
X172836460Y-73877465D01*
X172947799Y-74146262D01*
X173109439Y-74388173D01*
X173315167Y-74593901D01*
X173392401Y-74645507D01*
X173392401Y-74959186D01*
X173392400Y-74959196D01*
X173392400Y-91264753D01*
X173315167Y-91316359D01*
X173109439Y-91522087D01*
X172947799Y-91763998D01*
X172836460Y-92032795D01*
X172779700Y-92318148D01*
X172779700Y-92609092D01*
X172836460Y-92894445D01*
X172947799Y-93163242D01*
X173109439Y-93405153D01*
X173315167Y-93610881D01*
X173392401Y-93662487D01*
X173392401Y-110284273D01*
X173315167Y-110335879D01*
X173109439Y-110541607D01*
X172947799Y-110783518D01*
X172836460Y-111052315D01*
X172779700Y-111337668D01*
X172779700Y-111628612D01*
X172836460Y-111913965D01*
X172947799Y-112182762D01*
X173109439Y-112424673D01*
X173315167Y-112630401D01*
X173557078Y-112792041D01*
X173825875Y-112903380D01*
X174111228Y-112960140D01*
X174402172Y-112960140D01*
X174687525Y-112903380D01*
X174956322Y-112792041D01*
X175198233Y-112630401D01*
X175403961Y-112424673D01*
X175565601Y-112182762D01*
X175676940Y-111913965D01*
X175733700Y-111628612D01*
X175733700Y-111337668D01*
X175676940Y-111052315D01*
X175565601Y-110783518D01*
X175403961Y-110541607D01*
X175198233Y-110335879D01*
X175146400Y-110301245D01*
X175146400Y-98668148D01*
X175319700Y-98668148D01*
X175319700Y-98959092D01*
X175376460Y-99244445D01*
X175487799Y-99513242D01*
X175649439Y-99755153D01*
X175855167Y-99960881D01*
X176097078Y-100122521D01*
X176365875Y-100233860D01*
X176651228Y-100290620D01*
X176942172Y-100290620D01*
X177227525Y-100233860D01*
X177496322Y-100122521D01*
X177738233Y-99960881D01*
X177943961Y-99755153D01*
X178105601Y-99513242D01*
X178216940Y-99244445D01*
X178273700Y-98959092D01*
X178273700Y-98668148D01*
X178216940Y-98382795D01*
X178105601Y-98113998D01*
X177943961Y-97872087D01*
X177738233Y-97666359D01*
X177496322Y-97504719D01*
X177227525Y-97393380D01*
X176942172Y-97336620D01*
X176651228Y-97336620D01*
X176365875Y-97393380D01*
X176097078Y-97504719D01*
X175855167Y-97666359D01*
X175649439Y-97872087D01*
X175487799Y-98113998D01*
X175376460Y-98382795D01*
X175319700Y-98668148D01*
X175146400Y-98668148D01*
X175146400Y-94769506D01*
X176959700Y-94769506D01*
X176959700Y-95237734D01*
X177051047Y-95696965D01*
X177230230Y-96129552D01*
X177490364Y-96518869D01*
X177821451Y-96849956D01*
X178210768Y-97110090D01*
X178643355Y-97289273D01*
X179102586Y-97380620D01*
X179570814Y-97380620D01*
X180030045Y-97289273D01*
X180462632Y-97110090D01*
X180851949Y-96849956D01*
X181183036Y-96518869D01*
X181443170Y-96129552D01*
X181622353Y-95696965D01*
X181713700Y-95237734D01*
X181713700Y-94769506D01*
X181622353Y-94310275D01*
X181443170Y-93877688D01*
X181183036Y-93488371D01*
X180851949Y-93157284D01*
X180462632Y-92897150D01*
X180030045Y-92717967D01*
X179570814Y-92626620D01*
X179102586Y-92626620D01*
X178643355Y-92717967D01*
X178210768Y-92897150D01*
X177821451Y-93157284D01*
X177490364Y-93488371D01*
X177230230Y-93877688D01*
X177051047Y-94310275D01*
X176959700Y-94769506D01*
X175146400Y-94769506D01*
X175146400Y-93645515D01*
X175198233Y-93610881D01*
X175403961Y-93405153D01*
X175565601Y-93163242D01*
X175676940Y-92894445D01*
X175733700Y-92609092D01*
X175733700Y-92318148D01*
X175676940Y-92032795D01*
X175565601Y-91763998D01*
X175403961Y-91522087D01*
X175198233Y-91316359D01*
X175146400Y-91281725D01*
X175146400Y-79651168D01*
X175319700Y-79651168D01*
X175319700Y-79942112D01*
X175376460Y-80227465D01*
X175487799Y-80496262D01*
X175649439Y-80738173D01*
X175855167Y-80943901D01*
X176097078Y-81105541D01*
X176365875Y-81216880D01*
X176651228Y-81273640D01*
X176942172Y-81273640D01*
X177227525Y-81216880D01*
X177496322Y-81105541D01*
X177738233Y-80943901D01*
X177943961Y-80738173D01*
X178105601Y-80496262D01*
X178216940Y-80227465D01*
X178273700Y-79942112D01*
X178273700Y-79651168D01*
X178216940Y-79365815D01*
X178105601Y-79097018D01*
X177943961Y-78855107D01*
X177738233Y-78649379D01*
X177496322Y-78487739D01*
X177227525Y-78376400D01*
X176942172Y-78319640D01*
X176651228Y-78319640D01*
X176365875Y-78376400D01*
X176097078Y-78487739D01*
X175855167Y-78649379D01*
X175649439Y-78855107D01*
X175487799Y-79097018D01*
X175376460Y-79365815D01*
X175319700Y-79651168D01*
X175146400Y-79651168D01*
X175146400Y-75752526D01*
X176959700Y-75752526D01*
X176959700Y-76220754D01*
X177051047Y-76679985D01*
X177230230Y-77112572D01*
X177490364Y-77501889D01*
X177821451Y-77832976D01*
X178210768Y-78093110D01*
X178643355Y-78272293D01*
X179102586Y-78363640D01*
X179570814Y-78363640D01*
X180030045Y-78272293D01*
X180462632Y-78093110D01*
X180851949Y-77832976D01*
X181183036Y-77501889D01*
X181443170Y-77112572D01*
X181622353Y-76679985D01*
X181713700Y-76220754D01*
X181713700Y-75752526D01*
X181622353Y-75293295D01*
X181443170Y-74860708D01*
X181183036Y-74471391D01*
X180851949Y-74140304D01*
X180462632Y-73880170D01*
X180030045Y-73700987D01*
X179570814Y-73609640D01*
X179102586Y-73609640D01*
X178643355Y-73700987D01*
X178210768Y-73880170D01*
X177821451Y-74140304D01*
X177490364Y-74471391D01*
X177230230Y-74860708D01*
X177051047Y-75293295D01*
X176959700Y-75752526D01*
X175146400Y-75752526D01*
X175146400Y-74628535D01*
X175198233Y-74593901D01*
X175403961Y-74388173D01*
X175565601Y-74146262D01*
X175676940Y-73877465D01*
X175733700Y-73592112D01*
X175733700Y-73301168D01*
X175676940Y-73015815D01*
X175565601Y-72747018D01*
X175403961Y-72505107D01*
X175198233Y-72299379D01*
X174956322Y-72137739D01*
X174687525Y-72026400D01*
X174402172Y-71969640D01*
X174111228Y-71969640D01*
X173825875Y-72026400D01*
X173557078Y-72137739D01*
X173315167Y-72299379D01*
X173109439Y-72505107D01*
X172947799Y-72747018D01*
X172836460Y-73015815D01*
X172779700Y-73301168D01*
X156673540Y-73301168D01*
X156616780Y-73015815D01*
X156505441Y-72747018D01*
X156343801Y-72505107D01*
X156138073Y-72299379D01*
X155896162Y-72137739D01*
X155627365Y-72026400D01*
X155342012Y-71969640D01*
X155051068Y-71969640D01*
X154765715Y-72026400D01*
X154496918Y-72137739D01*
X154255007Y-72299379D01*
X154049279Y-72505107D01*
X153887639Y-72747018D01*
X153776300Y-73015815D01*
X153719540Y-73301168D01*
X137613380Y-73301168D01*
X137556620Y-73015815D01*
X137445281Y-72747018D01*
X137283641Y-72505107D01*
X137077913Y-72299379D01*
X136836002Y-72137739D01*
X136567205Y-72026400D01*
X136281852Y-71969640D01*
X135990908Y-71969640D01*
X135705555Y-72026400D01*
X135436758Y-72137739D01*
X135194847Y-72299379D01*
X134989119Y-72505107D01*
X134827479Y-72747018D01*
X134716140Y-73015815D01*
X134659380Y-73301168D01*
X89644900Y-73301168D01*
X89644900Y-66800140D01*
X197806900Y-66800140D01*
X197806901Y-123146140D01*
M02*
