G04 #@! TF.GenerationSoftware,KiCad,Pcbnew,(5.1.4)-1*
G04 #@! TF.CreationDate,2020-06-13T17:24:10-04:00*
G04 #@! TF.ProjectId,Keypad,4b657970-6164-42e6-9b69-6361645f7063,rev?*
G04 #@! TF.SameCoordinates,Original*
G04 #@! TF.FileFunction,Copper,L1,Top*
G04 #@! TF.FilePolarity,Positive*
%FSLAX46Y46*%
G04 Gerber Fmt 4.6, Leading zero omitted, Abs format (unit mm)*
G04 Created by KiCad (PCBNEW (5.1.4)-1) date 2020-06-13 17:24:10*
%MOMM*%
%LPD*%
G04 APERTURE LIST*
%ADD10R,0.975000X1.400000*%
%ADD11C,1.300000*%
%ADD12R,1.300000X1.300000*%
%ADD13C,1.524000*%
%ADD14R,1.524000X1.524000*%
%ADD15R,1.400000X0.975000*%
%ADD16R,1.800000X1.200000*%
%ADD17R,2.000000X0.300000*%
%ADD18R,0.300000X2.000000*%
%ADD19R,3.450000X2.150000*%
%ADD20R,0.558800X2.057400*%
%ADD21R,0.480000X0.250000*%
%ADD22C,2.200000*%
%ADD23C,0.975000*%
%ADD24C,0.100000*%
%ADD25C,7.000000*%
%ADD26R,0.800000X0.800000*%
%ADD27R,1.350000X0.400000*%
%ADD28R,1.400000X1.600000*%
%ADD29R,1.900000X1.900000*%
%ADD30O,1.800000X0.900000*%
%ADD31C,0.800000*%
%ADD32C,0.600000*%
%ADD33C,1.000000*%
%ADD34C,0.750000*%
%ADD35C,0.250000*%
%ADD36C,0.300000*%
%ADD37C,0.400000*%
%ADD38C,0.150000*%
%ADD39C,0.254000*%
G04 APERTURE END LIST*
D10*
X103172500Y-91084400D03*
X101297500Y-91084400D03*
D11*
X99872800Y-88671400D03*
X98602800Y-87401400D03*
D12*
X101142800Y-87401400D03*
D10*
X103291400Y-95465900D03*
X105166400Y-95465900D03*
D13*
X93433900Y-79225140D03*
X93433900Y-76685140D03*
X93433900Y-81765140D03*
D14*
X93433900Y-84305140D03*
D10*
X119293400Y-114531140D03*
X121168400Y-114531140D03*
X110576600Y-112141000D03*
X108701600Y-112141000D03*
D15*
X123530360Y-104922560D03*
X123530360Y-103047560D03*
D10*
X119290860Y-116433600D03*
X121165860Y-116433600D03*
X110589300Y-114035840D03*
X108714300Y-114035840D03*
D15*
X125435360Y-104925100D03*
X125435360Y-103050100D03*
D10*
X112206800Y-115420140D03*
X114081800Y-115420140D03*
X111704360Y-102844600D03*
X109829360Y-102844600D03*
X111706900Y-100967540D03*
X109831900Y-100967540D03*
D16*
X115354100Y-119687040D03*
X111354100Y-119687040D03*
X111354100Y-117287040D03*
X115354100Y-117287040D03*
D17*
X112575900Y-110423140D03*
X112575900Y-109923140D03*
X112575900Y-109423140D03*
X112575900Y-108923140D03*
X112575900Y-108423140D03*
X112575900Y-107923140D03*
X112575900Y-107423140D03*
X112575900Y-106923140D03*
X112575900Y-106423140D03*
X112575900Y-105923140D03*
X112575900Y-105423140D03*
X112575900Y-104923140D03*
D18*
X114178900Y-103320140D03*
X114678900Y-103320140D03*
X115178900Y-103320140D03*
X115678900Y-103320140D03*
X116178900Y-103320140D03*
X116678900Y-103320140D03*
X117178900Y-103320140D03*
X117678900Y-103320140D03*
X118178900Y-103320140D03*
X118678900Y-103320140D03*
X119178900Y-103320140D03*
X119678900Y-103320140D03*
D17*
X121281900Y-104923140D03*
X121281900Y-105423140D03*
X121281900Y-105923140D03*
X121281900Y-106423140D03*
X121281900Y-106923140D03*
X121281900Y-107423140D03*
X121281900Y-107923140D03*
X121281900Y-108423140D03*
X121281900Y-108923140D03*
X121281900Y-109423140D03*
X121281900Y-109923140D03*
X121281900Y-110423140D03*
D18*
X119678900Y-112026140D03*
X119178900Y-112026140D03*
X118678900Y-112026140D03*
X118178900Y-112026140D03*
X117678900Y-112026140D03*
X117178900Y-112026140D03*
X116678900Y-112026140D03*
X116178900Y-112026140D03*
X115678900Y-112026140D03*
X115178900Y-112026140D03*
X114678900Y-112026140D03*
X114178900Y-112026140D03*
D19*
X101993700Y-101208840D03*
D20*
X104533700Y-107152440D03*
X103263700Y-107152440D03*
X101993700Y-107152440D03*
X100723700Y-107152440D03*
X99453700Y-107152440D03*
D21*
X98407440Y-95629480D03*
X98407440Y-95129480D03*
X98407440Y-94629480D03*
X98407440Y-94129480D03*
X98407440Y-93629480D03*
X97627440Y-95629480D03*
X97627440Y-95129480D03*
X97627440Y-94629480D03*
X97627440Y-94129480D03*
X97627440Y-93629480D03*
D22*
X176796700Y-79796640D03*
X174256700Y-73446640D03*
X157736540Y-79796640D03*
X155196540Y-73446640D03*
X138676380Y-79796640D03*
X136136380Y-73446640D03*
X176796700Y-98813620D03*
X174256700Y-92463620D03*
X157736540Y-98813620D03*
X155196540Y-92463620D03*
X138676380Y-98813620D03*
X136136380Y-92463620D03*
X176796700Y-117833140D03*
X174256700Y-111483140D03*
X157736540Y-117833140D03*
X155196540Y-111483140D03*
X138676380Y-117833140D03*
X136136380Y-111483140D03*
D15*
X123532900Y-108801140D03*
X123532900Y-106926140D03*
X110286800Y-110299740D03*
X110286800Y-108424740D03*
D10*
X117548900Y-115420140D03*
X115673900Y-115420140D03*
X102220000Y-114124740D03*
X100345000Y-114124740D03*
D23*
X112621087Y-96720687D03*
D24*
G36*
X111781398Y-96870947D02*
G01*
X112771347Y-95880998D01*
X113460776Y-96570427D01*
X112470827Y-97560376D01*
X111781398Y-96870947D01*
X111781398Y-96870947D01*
G37*
D23*
X113946913Y-98046513D03*
D24*
G36*
X113107224Y-98196773D02*
G01*
X114097173Y-97206824D01*
X114786602Y-97896253D01*
X113796653Y-98886202D01*
X113107224Y-98196773D01*
X113107224Y-98196773D01*
G37*
D23*
X113941887Y-95399887D03*
D24*
G36*
X113102198Y-95550147D02*
G01*
X114092147Y-94560198D01*
X114781576Y-95249627D01*
X113791627Y-96239576D01*
X113102198Y-95550147D01*
X113102198Y-95550147D01*
G37*
D23*
X115267713Y-96725713D03*
D24*
G36*
X114428024Y-96875973D02*
G01*
X115417973Y-95886024D01*
X116107402Y-96575453D01*
X115117453Y-97565402D01*
X114428024Y-96875973D01*
X114428024Y-96875973D01*
G37*
D25*
X93560900Y-70716140D03*
X93560900Y-119230140D03*
X193890900Y-119230140D03*
X193890900Y-70716140D03*
D15*
X95664020Y-101729300D03*
X95664020Y-103604300D03*
D26*
X101981000Y-115775740D03*
X100520500Y-115775740D03*
D15*
X117551200Y-119159260D03*
X117551200Y-117284260D03*
D10*
X107446840Y-119684800D03*
X109321840Y-119684800D03*
X102719900Y-109578140D03*
X104594900Y-109578140D03*
D15*
X93759020Y-103604300D03*
X93759020Y-101729300D03*
D10*
X99354400Y-109578140D03*
X101229400Y-109578140D03*
D27*
X93492700Y-93673140D03*
X93492700Y-94323140D03*
X93492700Y-94973140D03*
X93492700Y-95623140D03*
X93492700Y-96273140D03*
D28*
X93267700Y-91773140D03*
X93267700Y-98173140D03*
D29*
X90817700Y-93773140D03*
X90817700Y-96173140D03*
D30*
X90817700Y-91673140D03*
X90817700Y-98273140D03*
D31*
X104429560Y-91092020D03*
X123527820Y-101793040D03*
X125432820Y-101793040D03*
X113753900Y-119687340D03*
X109715300Y-117287040D03*
X108572300Y-102834440D03*
X108572300Y-100954840D03*
X108762800Y-110302040D03*
X107442000Y-112143540D03*
X107442000Y-114035840D03*
X106184700Y-119674640D03*
X117678200Y-110314740D03*
X123532900Y-110035340D03*
X103083360Y-115778280D03*
X99402900Y-100561140D03*
X99402900Y-102593140D03*
X104482900Y-100561140D03*
X104482900Y-102593140D03*
X101942900Y-103609140D03*
X99402900Y-104625140D03*
X104482900Y-104625140D03*
X119113300Y-119166640D03*
X122428000Y-114531140D03*
X122428000Y-116436140D03*
X114678900Y-105042140D03*
X119547200Y-105423140D03*
X114287740Y-109923140D03*
X92176600Y-101727000D03*
D32*
X99314000Y-94894400D03*
X96799159Y-94722353D03*
D31*
X94996000Y-96710500D03*
X110705900Y-104929940D03*
X94996000Y-93218000D03*
D32*
X96520000Y-95504000D03*
D31*
X105166160Y-97015300D03*
X110698280Y-106918760D03*
X96248220Y-96507300D03*
X114642900Y-100053140D03*
D33*
X103195360Y-91092020D02*
X104429560Y-91092020D01*
X123527820Y-103027240D02*
X123527820Y-101793040D01*
X125432820Y-103027240D02*
X125432820Y-101793040D01*
X114988100Y-119687340D02*
X113753900Y-119687340D01*
X110949500Y-117287040D02*
X109715300Y-117287040D01*
X109806500Y-102834440D02*
X108572300Y-102834440D01*
X109806500Y-100954840D02*
X108572300Y-100954840D01*
D34*
X108763040Y-110302280D02*
X108762800Y-110302040D01*
X110238540Y-110302280D02*
X108763040Y-110302280D01*
D33*
X108676200Y-112143540D02*
X107442000Y-112143540D01*
X108676200Y-114035840D02*
X107442000Y-114035840D01*
X107418900Y-119674640D02*
X106184700Y-119674640D01*
D35*
X117678900Y-110391640D02*
X117665500Y-110378240D01*
D33*
X123532900Y-108801140D02*
X123532900Y-110035340D01*
D34*
X101965760Y-115778280D02*
X103083360Y-115778280D01*
X117879100Y-119166640D02*
X119113300Y-119166640D01*
D33*
X121193800Y-114531140D02*
X122428000Y-114531140D01*
X121193800Y-116436140D02*
X122428000Y-116436140D01*
D36*
X114678900Y-103320140D02*
X114678900Y-105042140D01*
X114678900Y-105042140D02*
X114678900Y-105042140D01*
X121281900Y-105423140D02*
X119547200Y-105423140D01*
X119547200Y-105423140D02*
X119547200Y-105423140D01*
X117678900Y-110315440D02*
X117678200Y-110314740D01*
X117678900Y-112026140D02*
X117678900Y-110315440D01*
X112575900Y-109923140D02*
X114287740Y-109923140D01*
X114287740Y-109923140D02*
X114287740Y-109923140D01*
D33*
X93759020Y-101729300D02*
X92178900Y-101729300D01*
X92178900Y-101729300D02*
X92176600Y-101727000D01*
D35*
X97627440Y-94629480D02*
X98407440Y-94629480D01*
X98407440Y-94629480D02*
X99049080Y-94629480D01*
X99049080Y-94629480D02*
X99314000Y-94894400D01*
X97627440Y-94629480D02*
X96892032Y-94629480D01*
X96892032Y-94629480D02*
X96799159Y-94722353D01*
D37*
X93492700Y-96273140D02*
X94558640Y-96273140D01*
X94558640Y-96273140D02*
X94996000Y-96710500D01*
D36*
X111351860Y-119684800D02*
X111354100Y-119687040D01*
D33*
X109321840Y-119684800D02*
X111351860Y-119684800D01*
D36*
X112206800Y-115632640D02*
X112206800Y-115420140D01*
X112944300Y-116370140D02*
X112206800Y-115632640D01*
X112944300Y-119330200D02*
X112944300Y-116370140D01*
X112587460Y-119687040D02*
X112944300Y-119330200D01*
X111354100Y-119687040D02*
X112587460Y-119687040D01*
X115393800Y-114061240D02*
X116178900Y-113276140D01*
X112615700Y-114061240D02*
X115393800Y-114061240D01*
X112206800Y-115420140D02*
X112206800Y-114470140D01*
X112206800Y-114470140D02*
X112615700Y-114061240D01*
X116178900Y-113258020D02*
X116169840Y-113267080D01*
X116178900Y-112026140D02*
X116178900Y-113258020D01*
X115356880Y-117284260D02*
X115354100Y-117287040D01*
D33*
X117551200Y-117284260D02*
X115356880Y-117284260D01*
D36*
X117551200Y-115422440D02*
X117548900Y-115420140D01*
D33*
X117551200Y-117284260D02*
X117551200Y-115422440D01*
D36*
X100345000Y-114967780D02*
X100345000Y-114124740D01*
X100520500Y-115775740D02*
X100520500Y-115143280D01*
X100520500Y-115143280D02*
X100345000Y-114967780D01*
X112569100Y-104929940D02*
X112575900Y-104923140D01*
X110712700Y-104923140D02*
X110705900Y-104929940D01*
X112575900Y-104923140D02*
X110712700Y-104923140D01*
D33*
X115673900Y-115420140D02*
X114081800Y-115420140D01*
D36*
X116678900Y-113276140D02*
X116678900Y-112026140D01*
X116678900Y-113465140D02*
X116678900Y-113276140D01*
X115673900Y-114470140D02*
X116678900Y-113465140D01*
X115673900Y-115420140D02*
X115673900Y-114470140D01*
D33*
X138709400Y-117896640D02*
X176809400Y-117896640D01*
D36*
X176618900Y-117706140D02*
X176618900Y-109791500D01*
X176809400Y-117896640D02*
X176618900Y-117706140D01*
X176618900Y-109791500D02*
X172976540Y-106149140D01*
X117678900Y-99049140D02*
X117678900Y-103320140D01*
X120119140Y-96608900D02*
X117678900Y-99049140D01*
X172976540Y-106149140D02*
X140042900Y-106149140D01*
X140042900Y-106149140D02*
X130502660Y-96608900D01*
X130502660Y-96608900D02*
X120119140Y-96608900D01*
X119178900Y-101359140D02*
X119178900Y-103320140D01*
X120738900Y-99799140D02*
X119178900Y-101359140D01*
X126580900Y-99799140D02*
X120738900Y-99799140D01*
X136232900Y-109451140D02*
X126580900Y-99799140D01*
X136169400Y-111546640D02*
X136232900Y-111483140D01*
X136232900Y-111483140D02*
X136232900Y-109451140D01*
X118678900Y-100589140D02*
X118678900Y-103320140D01*
X120627140Y-98640900D02*
X118678900Y-100589140D01*
X127812800Y-98640900D02*
X120627140Y-98640900D01*
X140296900Y-111125000D02*
X127812800Y-98640900D01*
X155219400Y-111546640D02*
X154797760Y-111125000D01*
X154797760Y-111125000D02*
X140296900Y-111125000D01*
X118178900Y-99819140D02*
X118178900Y-103320140D01*
X174269400Y-111546640D02*
X174269400Y-110911640D01*
X174269400Y-110911640D02*
X172057060Y-108699300D01*
X172057060Y-108699300D02*
X140131800Y-108699300D01*
X140131800Y-108699300D02*
X129032000Y-97599500D01*
X129032000Y-97599500D02*
X120398540Y-97599500D01*
X120398540Y-97599500D02*
X118178900Y-99819140D01*
D33*
X138709400Y-98846640D02*
X176809400Y-98846640D01*
D36*
X138709400Y-98846640D02*
X138645900Y-98783140D01*
X117178900Y-98152140D02*
X117178900Y-103320140D01*
X119849900Y-95481140D02*
X117178900Y-98152140D01*
X131828540Y-95481140D02*
X119849900Y-95481140D01*
X135130540Y-98783140D02*
X131828540Y-95481140D01*
X138645900Y-98783140D02*
X135130540Y-98783140D01*
D33*
X138709400Y-79796640D02*
X157759400Y-79796640D01*
X159315034Y-79796640D02*
X176809400Y-79796640D01*
X157759400Y-79796640D02*
X159315034Y-79796640D01*
D36*
X116678900Y-97255140D02*
X116678900Y-103320140D01*
X134543800Y-83962240D02*
X134543800Y-91770200D01*
X138709400Y-79796640D02*
X134543800Y-83962240D01*
X134543800Y-91770200D02*
X131848860Y-94465140D01*
X131848860Y-94465140D02*
X119468900Y-94465140D01*
X119468900Y-94465140D02*
X116678900Y-97255140D01*
D35*
X112574300Y-108424740D02*
X112575900Y-108423140D01*
D36*
X110288400Y-108423140D02*
X110286800Y-108424740D01*
X112575900Y-108423140D02*
X110288400Y-108423140D01*
D35*
X121284900Y-106926140D02*
X121281900Y-106923140D01*
D36*
X123529900Y-106923140D02*
X123532900Y-106926140D01*
X121281900Y-106923140D02*
X123529900Y-106923140D01*
D37*
X93492700Y-93673140D02*
X93967700Y-93673140D01*
X93492700Y-93673140D02*
X94540860Y-93673140D01*
X94540860Y-93673140D02*
X94996000Y-93218000D01*
D35*
X97627440Y-95629480D02*
X98407440Y-95629480D01*
X96645480Y-95629480D02*
X96520000Y-95504000D01*
X97627440Y-95629480D02*
X96645480Y-95629480D01*
D38*
X94630201Y-94848140D02*
X95718804Y-94848140D01*
X93492700Y-94973140D02*
X94505201Y-94973140D01*
X94505201Y-94973140D02*
X94630201Y-94848140D01*
X96487464Y-94079480D02*
X97217439Y-94079480D01*
X95718804Y-94848140D02*
X96487464Y-94079480D01*
X97217439Y-94079480D02*
X97267439Y-94129480D01*
X97267439Y-94129480D02*
X97627440Y-94129480D01*
X98767441Y-94129480D02*
X98817441Y-94079480D01*
X98407440Y-94129480D02*
X98767441Y-94129480D01*
X111017837Y-94079480D02*
X112621087Y-95682730D01*
X112621087Y-95682730D02*
X112621087Y-96720687D01*
X97627440Y-94129480D02*
X98407440Y-94129480D01*
X103291400Y-94082200D02*
X103288680Y-94079480D01*
X103291400Y-95465900D02*
X103291400Y-94082200D01*
X98817441Y-94079480D02*
X103288680Y-94079480D01*
X103288680Y-94079480D02*
X111017837Y-94079480D01*
X114984870Y-98046513D02*
X115728900Y-98790543D01*
X113946913Y-98046513D02*
X114984870Y-98046513D01*
X115728900Y-98790543D02*
X115728900Y-101770139D01*
X115728900Y-101770139D02*
X115678900Y-101820139D01*
X115678900Y-101820139D02*
X115678900Y-103320140D01*
X94630201Y-94448140D02*
X95553116Y-94448140D01*
X94505201Y-94323140D02*
X94630201Y-94448140D01*
X93492700Y-94323140D02*
X94505201Y-94323140D01*
X97267439Y-93629480D02*
X97627440Y-93629480D01*
X97217439Y-93679480D02*
X97267439Y-93629480D01*
X95553116Y-94448140D02*
X96321776Y-93679480D01*
X96321776Y-93679480D02*
X97217439Y-93679480D01*
X112903930Y-95399887D02*
X113941887Y-95399887D01*
X111183523Y-93679480D02*
X112903930Y-95399887D01*
X98817441Y-93679480D02*
X111183523Y-93679480D01*
X98767441Y-93629480D02*
X98817441Y-93679480D01*
X98407440Y-93629480D02*
X98767441Y-93629480D01*
X97627440Y-93629480D02*
X98407440Y-93629480D01*
X116178900Y-101820139D02*
X116178900Y-103320140D01*
X116128900Y-98624857D02*
X116128900Y-101770139D01*
X115267713Y-97763670D02*
X116128900Y-98624857D01*
X116128900Y-101770139D02*
X116178900Y-101820139D01*
X115267713Y-96725713D02*
X115267713Y-97763670D01*
D36*
X105166400Y-95465900D02*
X105166400Y-97015060D01*
X105166400Y-97015060D02*
X105166160Y-97015300D01*
X110698280Y-106918760D02*
X112571520Y-106918760D01*
D35*
X123532900Y-104925100D02*
X123530360Y-104922560D01*
X119290860Y-114533680D02*
X119293400Y-114531140D01*
X121282480Y-104922560D02*
X121281900Y-104923140D01*
D36*
X123530360Y-104922560D02*
X121282480Y-104922560D01*
D35*
X118178900Y-112026140D02*
X118178900Y-113276140D01*
D37*
X93492700Y-95623140D02*
X95364060Y-95623140D01*
X95364060Y-95623140D02*
X96248220Y-96507300D01*
D36*
X115178900Y-100589140D02*
X115178900Y-103320140D01*
X114642900Y-100053140D02*
X115178900Y-100589140D01*
D33*
X94768160Y-87401400D02*
X98602800Y-87401400D01*
X93433900Y-84305140D02*
X93433900Y-86067140D01*
X93433900Y-86067140D02*
X94768160Y-87401400D01*
X99875100Y-88673700D02*
X99872800Y-88671400D01*
X99872800Y-88671400D02*
X99872800Y-90754200D01*
X100203000Y-91084400D02*
X101297500Y-91084400D01*
X99872800Y-90754200D02*
X100203000Y-91084400D01*
D39*
G36*
X93840300Y-92598240D02*
G01*
X91871800Y-92598240D01*
X91847024Y-92600680D01*
X91823199Y-92607907D01*
X91801243Y-92619643D01*
X91781997Y-92635437D01*
X91766203Y-92654683D01*
X91754467Y-92676639D01*
X91747240Y-92700464D01*
X91744800Y-92725240D01*
X91744800Y-96977200D01*
X91747240Y-97001976D01*
X91754467Y-97025801D01*
X91766203Y-97047757D01*
X91781997Y-97067003D01*
X91801243Y-97082797D01*
X91823199Y-97094533D01*
X91847024Y-97101760D01*
X91871800Y-97104200D01*
X94208600Y-97104200D01*
X94208600Y-98910140D01*
X89623900Y-98910140D01*
X89623900Y-91099640D01*
X93840300Y-91099640D01*
X93840300Y-92598240D01*
X93840300Y-92598240D01*
G37*
X93840300Y-92598240D02*
X91871800Y-92598240D01*
X91847024Y-92600680D01*
X91823199Y-92607907D01*
X91801243Y-92619643D01*
X91781997Y-92635437D01*
X91766203Y-92654683D01*
X91754467Y-92676639D01*
X91747240Y-92700464D01*
X91744800Y-92725240D01*
X91744800Y-96977200D01*
X91747240Y-97001976D01*
X91754467Y-97025801D01*
X91766203Y-97047757D01*
X91781997Y-97067003D01*
X91801243Y-97082797D01*
X91823199Y-97094533D01*
X91847024Y-97101760D01*
X91871800Y-97104200D01*
X94208600Y-97104200D01*
X94208600Y-98910140D01*
X89623900Y-98910140D01*
X89623900Y-91099640D01*
X93840300Y-91099640D01*
X93840300Y-92598240D01*
G36*
X104927400Y-105448100D02*
G01*
X102476300Y-105448100D01*
X102451524Y-105450540D01*
X102427699Y-105457767D01*
X102405743Y-105469503D01*
X102386497Y-105485297D01*
X102370703Y-105504543D01*
X102358967Y-105526499D01*
X102351740Y-105550324D01*
X102349301Y-105574578D01*
X102336601Y-108663218D01*
X102338939Y-108688004D01*
X102346068Y-108711858D01*
X102357714Y-108733863D01*
X102373429Y-108753173D01*
X102392609Y-108769046D01*
X102414517Y-108780872D01*
X102438312Y-108788197D01*
X102461860Y-108790728D01*
X103263700Y-108801712D01*
X103263700Y-110314740D01*
X100672900Y-110314740D01*
X100672900Y-108790740D01*
X101523800Y-108790740D01*
X101548576Y-108788300D01*
X101572401Y-108781073D01*
X101594357Y-108769337D01*
X101613603Y-108753543D01*
X101629397Y-108734297D01*
X101641133Y-108712341D01*
X101648360Y-108688516D01*
X101650799Y-108663218D01*
X101638099Y-105574578D01*
X101635557Y-105549812D01*
X101628232Y-105526017D01*
X101616406Y-105504109D01*
X101600533Y-105484929D01*
X101581223Y-105469214D01*
X101559218Y-105457568D01*
X101535364Y-105450439D01*
X101511100Y-105448100D01*
X99047300Y-105448100D01*
X99047300Y-100167309D01*
X104927400Y-100161222D01*
X104927400Y-105448100D01*
X104927400Y-105448100D01*
G37*
X104927400Y-105448100D02*
X102476300Y-105448100D01*
X102451524Y-105450540D01*
X102427699Y-105457767D01*
X102405743Y-105469503D01*
X102386497Y-105485297D01*
X102370703Y-105504543D01*
X102358967Y-105526499D01*
X102351740Y-105550324D01*
X102349301Y-105574578D01*
X102336601Y-108663218D01*
X102338939Y-108688004D01*
X102346068Y-108711858D01*
X102357714Y-108733863D01*
X102373429Y-108753173D01*
X102392609Y-108769046D01*
X102414517Y-108780872D01*
X102438312Y-108788197D01*
X102461860Y-108790728D01*
X103263700Y-108801712D01*
X103263700Y-110314740D01*
X100672900Y-110314740D01*
X100672900Y-108790740D01*
X101523800Y-108790740D01*
X101548576Y-108788300D01*
X101572401Y-108781073D01*
X101594357Y-108769337D01*
X101613603Y-108753543D01*
X101629397Y-108734297D01*
X101641133Y-108712341D01*
X101648360Y-108688516D01*
X101650799Y-108663218D01*
X101638099Y-105574578D01*
X101635557Y-105549812D01*
X101628232Y-105526017D01*
X101616406Y-105504109D01*
X101600533Y-105484929D01*
X101581223Y-105469214D01*
X101559218Y-105457568D01*
X101535364Y-105450439D01*
X101511100Y-105448100D01*
X99047300Y-105448100D01*
X99047300Y-100167309D01*
X104927400Y-100161222D01*
X104927400Y-105448100D01*
G36*
X97944288Y-105880095D02*
G01*
X97958825Y-105900307D01*
X97977027Y-105917293D01*
X97998192Y-105930403D01*
X98021508Y-105939131D01*
X98054160Y-105943400D01*
X101132640Y-105943400D01*
X101132640Y-108290360D01*
X100289360Y-108290360D01*
X100264584Y-108292800D01*
X100240759Y-108300027D01*
X100218803Y-108311763D01*
X100199557Y-108327557D01*
X100183763Y-108346803D01*
X100172027Y-108368759D01*
X100164800Y-108392584D01*
X100162360Y-108417521D01*
X100164739Y-110293670D01*
X98742224Y-110299500D01*
X96211048Y-110299500D01*
X92964000Y-104866938D01*
X92964000Y-103187500D01*
X96383327Y-103187500D01*
X97944288Y-105880095D01*
X97944288Y-105880095D01*
G37*
X97944288Y-105880095D02*
X97958825Y-105900307D01*
X97977027Y-105917293D01*
X97998192Y-105930403D01*
X98021508Y-105939131D01*
X98054160Y-105943400D01*
X101132640Y-105943400D01*
X101132640Y-108290360D01*
X100289360Y-108290360D01*
X100264584Y-108292800D01*
X100240759Y-108300027D01*
X100218803Y-108311763D01*
X100199557Y-108327557D01*
X100183763Y-108346803D01*
X100172027Y-108368759D01*
X100164800Y-108392584D01*
X100162360Y-108417521D01*
X100164739Y-110293670D01*
X98742224Y-110299500D01*
X96211048Y-110299500D01*
X92964000Y-104866938D01*
X92964000Y-103187500D01*
X96383327Y-103187500D01*
X97944288Y-105880095D01*
G36*
X98552000Y-99568000D02*
G01*
X96329500Y-99568000D01*
X96304724Y-99570440D01*
X96280899Y-99577667D01*
X96258943Y-99589403D01*
X96239697Y-99605197D01*
X96223903Y-99624443D01*
X96212167Y-99646399D01*
X96204940Y-99670224D01*
X96202500Y-99695000D01*
X96202500Y-102235000D01*
X94936534Y-102235000D01*
X94938327Y-102216800D01*
X94938327Y-101241800D01*
X94929117Y-101148292D01*
X94901842Y-101058377D01*
X94869000Y-100996934D01*
X94869000Y-98298000D01*
X98107500Y-98298000D01*
X98132276Y-98295560D01*
X98156101Y-98288333D01*
X98178057Y-98276597D01*
X98197303Y-98260803D01*
X98213097Y-98241557D01*
X98224833Y-98219601D01*
X98232060Y-98195776D01*
X98234500Y-98170882D01*
X98232230Y-95733787D01*
X98552000Y-95733787D01*
X98552000Y-99568000D01*
X98552000Y-99568000D01*
G37*
X98552000Y-99568000D02*
X96329500Y-99568000D01*
X96304724Y-99570440D01*
X96280899Y-99577667D01*
X96258943Y-99589403D01*
X96239697Y-99605197D01*
X96223903Y-99624443D01*
X96212167Y-99646399D01*
X96204940Y-99670224D01*
X96202500Y-99695000D01*
X96202500Y-102235000D01*
X94936534Y-102235000D01*
X94938327Y-102216800D01*
X94938327Y-101241800D01*
X94929117Y-101148292D01*
X94901842Y-101058377D01*
X94869000Y-100996934D01*
X94869000Y-98298000D01*
X98107500Y-98298000D01*
X98132276Y-98295560D01*
X98156101Y-98288333D01*
X98178057Y-98276597D01*
X98197303Y-98260803D01*
X98213097Y-98241557D01*
X98224833Y-98219601D01*
X98232060Y-98195776D01*
X98234500Y-98170882D01*
X98232230Y-95733787D01*
X98552000Y-95733787D01*
X98552000Y-99568000D01*
G36*
X197806900Y-71502606D02*
G01*
X197687370Y-71502840D01*
X197767900Y-71097991D01*
X197767900Y-70334289D01*
X197618909Y-69585261D01*
X197326653Y-68879692D01*
X196902362Y-68244697D01*
X196362343Y-67704678D01*
X195727348Y-67280387D01*
X195021779Y-66988131D01*
X194272751Y-66839140D01*
X193509049Y-66839140D01*
X192760021Y-66988131D01*
X192054452Y-67280387D01*
X191419457Y-67704678D01*
X190879438Y-68244697D01*
X190455147Y-68879692D01*
X190162891Y-69585261D01*
X190013900Y-70334289D01*
X190013900Y-71097991D01*
X190097384Y-71517693D01*
X133730751Y-71628000D01*
X133705980Y-71630489D01*
X133682170Y-71637763D01*
X133660236Y-71649542D01*
X133641022Y-71665373D01*
X133625265Y-71684649D01*
X133613572Y-71706629D01*
X133606392Y-71730467D01*
X133604000Y-71755000D01*
X133604000Y-91964709D01*
X131630571Y-93938140D01*
X119494781Y-93938140D01*
X119468900Y-93935591D01*
X119443019Y-93938140D01*
X119365590Y-93945766D01*
X119266250Y-93975901D01*
X119174698Y-94024836D01*
X119094452Y-94090692D01*
X119077954Y-94110795D01*
X116444830Y-96743921D01*
X116457390Y-96720423D01*
X116478947Y-96649358D01*
X116486226Y-96575453D01*
X116478947Y-96501548D01*
X116457390Y-96430483D01*
X116422383Y-96364990D01*
X116375271Y-96307584D01*
X115685842Y-95618155D01*
X115628436Y-95571043D01*
X115562943Y-95536036D01*
X115491878Y-95514479D01*
X115417973Y-95507200D01*
X115344068Y-95514479D01*
X115273003Y-95536036D01*
X115207510Y-95571043D01*
X115150104Y-95618155D01*
X114160155Y-96608104D01*
X114113043Y-96665510D01*
X114078036Y-96731003D01*
X114056479Y-96802068D01*
X114053501Y-96832301D01*
X114023268Y-96835279D01*
X113952203Y-96856836D01*
X113886710Y-96891843D01*
X113829304Y-96938955D01*
X112839355Y-97928904D01*
X112792243Y-97986310D01*
X112757236Y-98051803D01*
X112735679Y-98122868D01*
X112728400Y-98196773D01*
X112735679Y-98270678D01*
X112757236Y-98341743D01*
X112792243Y-98407236D01*
X112839355Y-98464642D01*
X113528784Y-99154071D01*
X113586190Y-99201183D01*
X113651683Y-99236190D01*
X113722748Y-99257747D01*
X113796653Y-99265026D01*
X113870558Y-99257747D01*
X113941623Y-99236190D01*
X114007116Y-99201183D01*
X114064522Y-99154071D01*
X114720080Y-98498513D01*
X114797647Y-98498513D01*
X115276900Y-98977768D01*
X115276900Y-99603424D01*
X115246436Y-99557831D01*
X115138209Y-99449604D01*
X115010948Y-99364571D01*
X114869543Y-99305999D01*
X114719428Y-99276140D01*
X114566372Y-99276140D01*
X114416257Y-99305999D01*
X114274852Y-99364571D01*
X114147591Y-99449604D01*
X114039364Y-99557831D01*
X113954331Y-99685092D01*
X113895759Y-99826497D01*
X113865900Y-99976612D01*
X113865900Y-100129668D01*
X113895759Y-100279783D01*
X113954331Y-100421188D01*
X114039364Y-100548449D01*
X114147591Y-100656676D01*
X114274852Y-100741709D01*
X114416257Y-100800281D01*
X114566372Y-100830140D01*
X114651900Y-100830140D01*
X114651900Y-101941316D01*
X114528900Y-101941316D01*
X114454995Y-101948595D01*
X114383930Y-101970152D01*
X114318437Y-102005159D01*
X114261031Y-102052271D01*
X114213919Y-102109677D01*
X114178912Y-102175170D01*
X114157355Y-102246235D01*
X114150076Y-102320140D01*
X114150076Y-104320140D01*
X114151901Y-104338665D01*
X114151901Y-104470294D01*
X114075364Y-104546831D01*
X113990331Y-104674092D01*
X113953683Y-104762568D01*
X113947445Y-104699235D01*
X113925888Y-104628170D01*
X113890881Y-104562677D01*
X113843769Y-104505271D01*
X113786363Y-104458159D01*
X113720870Y-104423152D01*
X113649805Y-104401595D01*
X113575900Y-104394316D01*
X112583261Y-104394316D01*
X112575900Y-104393591D01*
X112568539Y-104394316D01*
X111575900Y-104394316D01*
X111557381Y-104396140D01*
X111270945Y-104396140D01*
X111201209Y-104326404D01*
X111073948Y-104241371D01*
X110932543Y-104182799D01*
X110782428Y-104152940D01*
X110629372Y-104152940D01*
X110479257Y-104182799D01*
X110337852Y-104241371D01*
X110210591Y-104326404D01*
X110102364Y-104434631D01*
X110017331Y-104561892D01*
X109958759Y-104703297D01*
X109928900Y-104853412D01*
X109928900Y-105006468D01*
X109958759Y-105156583D01*
X110017331Y-105297988D01*
X110102364Y-105425249D01*
X110210591Y-105533476D01*
X110337852Y-105618509D01*
X110479257Y-105677081D01*
X110629372Y-105706940D01*
X110782428Y-105706940D01*
X110932543Y-105677081D01*
X111073948Y-105618509D01*
X111197076Y-105536238D01*
X111197076Y-105573140D01*
X111204355Y-105647045D01*
X111212271Y-105673140D01*
X111204355Y-105699235D01*
X111197076Y-105773140D01*
X111197076Y-106073140D01*
X111204355Y-106147045D01*
X111212271Y-106173140D01*
X111204355Y-106199235D01*
X111197076Y-106273140D01*
X111197076Y-106318711D01*
X111193589Y-106315224D01*
X111066328Y-106230191D01*
X110924923Y-106171619D01*
X110774808Y-106141760D01*
X110621752Y-106141760D01*
X110471637Y-106171619D01*
X110330232Y-106230191D01*
X110202971Y-106315224D01*
X110094744Y-106423451D01*
X110009711Y-106550712D01*
X109951139Y-106692117D01*
X109921280Y-106842232D01*
X109921280Y-106995288D01*
X109951139Y-107145403D01*
X110009711Y-107286808D01*
X110094744Y-107414069D01*
X110202971Y-107522296D01*
X110257028Y-107558416D01*
X109586800Y-107558416D01*
X109512895Y-107565695D01*
X109441830Y-107587252D01*
X109376337Y-107622259D01*
X109318931Y-107669371D01*
X109271819Y-107726777D01*
X109236812Y-107792270D01*
X109215255Y-107863335D01*
X109207976Y-107937240D01*
X109207976Y-108912240D01*
X109215255Y-108986145D01*
X109236812Y-109057210D01*
X109271819Y-109122703D01*
X109318931Y-109180109D01*
X109376337Y-109227221D01*
X109441830Y-109262228D01*
X109512895Y-109283785D01*
X109586800Y-109291064D01*
X110986800Y-109291064D01*
X111060705Y-109283785D01*
X111131770Y-109262228D01*
X111197263Y-109227221D01*
X111201980Y-109223350D01*
X111197076Y-109273140D01*
X111197076Y-109497159D01*
X111131770Y-109462252D01*
X111060705Y-109440695D01*
X110986800Y-109433416D01*
X109586800Y-109433416D01*
X109512895Y-109440695D01*
X109441830Y-109462252D01*
X109376337Y-109497259D01*
X109318931Y-109544371D01*
X109314082Y-109550280D01*
X108966221Y-109550280D01*
X108839328Y-109525040D01*
X108686272Y-109525040D01*
X108536157Y-109554899D01*
X108394752Y-109613471D01*
X108267491Y-109698504D01*
X108159264Y-109806731D01*
X108074231Y-109933992D01*
X108015659Y-110075397D01*
X107985800Y-110225512D01*
X107985800Y-110378568D01*
X108015659Y-110528683D01*
X108074231Y-110670088D01*
X108159264Y-110797349D01*
X108267491Y-110905576D01*
X108394752Y-110990609D01*
X108536157Y-111049181D01*
X108601489Y-111062176D01*
X108214100Y-111062176D01*
X108140195Y-111069455D01*
X108069130Y-111091012D01*
X108003637Y-111126019D01*
X107946231Y-111173131D01*
X107899119Y-111230537D01*
X107879875Y-111266540D01*
X107398921Y-111266540D01*
X107270078Y-111279230D01*
X107104763Y-111329378D01*
X106952408Y-111410813D01*
X106818867Y-111520407D01*
X106709273Y-111653948D01*
X106627838Y-111806303D01*
X106577690Y-111971618D01*
X106560757Y-112143540D01*
X106577690Y-112315462D01*
X106627838Y-112480777D01*
X106709273Y-112633132D01*
X106818867Y-112766673D01*
X106952408Y-112876267D01*
X107104763Y-112957702D01*
X107270078Y-113007850D01*
X107398921Y-113020540D01*
X107882590Y-113020540D01*
X107899119Y-113051463D01*
X107935799Y-113096157D01*
X107911819Y-113125377D01*
X107893933Y-113158840D01*
X107398921Y-113158840D01*
X107270078Y-113171530D01*
X107104763Y-113221678D01*
X106952408Y-113303113D01*
X106818867Y-113412707D01*
X106709273Y-113546248D01*
X106627838Y-113698603D01*
X106577690Y-113863918D01*
X106560757Y-114035840D01*
X106577690Y-114207762D01*
X106627838Y-114373077D01*
X106709273Y-114525432D01*
X106818867Y-114658973D01*
X106952408Y-114768567D01*
X107104763Y-114850002D01*
X107270078Y-114900150D01*
X107398921Y-114912840D01*
X107893933Y-114912840D01*
X107911819Y-114946303D01*
X107958931Y-115003709D01*
X108016337Y-115050821D01*
X108081830Y-115085828D01*
X108152895Y-115107385D01*
X108226800Y-115114664D01*
X109201800Y-115114664D01*
X109275705Y-115107385D01*
X109346770Y-115085828D01*
X109412263Y-115050821D01*
X109469669Y-115003709D01*
X109516781Y-114946303D01*
X109551788Y-114880810D01*
X109573345Y-114809745D01*
X109580624Y-114735840D01*
X109580624Y-113335840D01*
X109573345Y-113261935D01*
X109551788Y-113190870D01*
X109516781Y-113125377D01*
X109480101Y-113080683D01*
X109504081Y-113051463D01*
X109539088Y-112985970D01*
X109560645Y-112914905D01*
X109567924Y-112841000D01*
X109567924Y-111441000D01*
X109560645Y-111367095D01*
X109539088Y-111296030D01*
X109504081Y-111230537D01*
X109456969Y-111173131D01*
X109399563Y-111126019D01*
X109334070Y-111091012D01*
X109263005Y-111069455D01*
X109189100Y-111062176D01*
X108924111Y-111062176D01*
X108963808Y-111054280D01*
X109318251Y-111054280D01*
X109318931Y-111055109D01*
X109376337Y-111102221D01*
X109441830Y-111137228D01*
X109512895Y-111158785D01*
X109586800Y-111166064D01*
X110986800Y-111166064D01*
X111060705Y-111158785D01*
X111131770Y-111137228D01*
X111197263Y-111102221D01*
X111254669Y-111055109D01*
X111301781Y-110997703D01*
X111336788Y-110932210D01*
X111358345Y-110861145D01*
X111365624Y-110787240D01*
X111365624Y-110388221D01*
X111430930Y-110423128D01*
X111501995Y-110444685D01*
X111575900Y-110451964D01*
X113575900Y-110451964D01*
X113594419Y-110450140D01*
X113715895Y-110450140D01*
X113792431Y-110526676D01*
X113919692Y-110611709D01*
X114010120Y-110649166D01*
X113954995Y-110654595D01*
X113883930Y-110676152D01*
X113818437Y-110711159D01*
X113761031Y-110758271D01*
X113713919Y-110815677D01*
X113678912Y-110881170D01*
X113657355Y-110952235D01*
X113650076Y-111026140D01*
X113650076Y-113026140D01*
X113657355Y-113100045D01*
X113678912Y-113171110D01*
X113713919Y-113236603D01*
X113761031Y-113294009D01*
X113818437Y-113341121D01*
X113883930Y-113376128D01*
X113954995Y-113397685D01*
X114028900Y-113404964D01*
X114328900Y-113404964D01*
X114402805Y-113397685D01*
X114428900Y-113389769D01*
X114454995Y-113397685D01*
X114528900Y-113404964D01*
X114828900Y-113404964D01*
X114902805Y-113397685D01*
X114928900Y-113389769D01*
X114954995Y-113397685D01*
X115028900Y-113404964D01*
X115304787Y-113404964D01*
X115175511Y-113534240D01*
X112641581Y-113534240D01*
X112615700Y-113531691D01*
X112589819Y-113534240D01*
X112512390Y-113541866D01*
X112413050Y-113572001D01*
X112321498Y-113620936D01*
X112241252Y-113686792D01*
X112224749Y-113706901D01*
X111852461Y-114079189D01*
X111832353Y-114095692D01*
X111777039Y-114163092D01*
X111766496Y-114175939D01*
X111717561Y-114267491D01*
X111694423Y-114343766D01*
X111645395Y-114348595D01*
X111574330Y-114370152D01*
X111508837Y-114405159D01*
X111451431Y-114452271D01*
X111404319Y-114509677D01*
X111369312Y-114575170D01*
X111347755Y-114646235D01*
X111340476Y-114720140D01*
X111340476Y-116120140D01*
X111347755Y-116194045D01*
X111369312Y-116265110D01*
X111392353Y-116308216D01*
X110454100Y-116308216D01*
X110380195Y-116315495D01*
X110309130Y-116337052D01*
X110243637Y-116372059D01*
X110197357Y-116410040D01*
X109672221Y-116410040D01*
X109543378Y-116422730D01*
X109378063Y-116472878D01*
X109225708Y-116554313D01*
X109092167Y-116663907D01*
X108982573Y-116797448D01*
X108901138Y-116949803D01*
X108850990Y-117115118D01*
X108834057Y-117287040D01*
X108850990Y-117458962D01*
X108901138Y-117624277D01*
X108982573Y-117776632D01*
X109092167Y-117910173D01*
X109225708Y-118019767D01*
X109378063Y-118101202D01*
X109543378Y-118151350D01*
X109672221Y-118164040D01*
X110197357Y-118164040D01*
X110243637Y-118202021D01*
X110309130Y-118237028D01*
X110380195Y-118258585D01*
X110454100Y-118265864D01*
X112254100Y-118265864D01*
X112328005Y-118258585D01*
X112399070Y-118237028D01*
X112417300Y-118227284D01*
X112417300Y-118746796D01*
X112399070Y-118737052D01*
X112328005Y-118715495D01*
X112254100Y-118708216D01*
X110454100Y-118708216D01*
X110380195Y-118715495D01*
X110309130Y-118737052D01*
X110243637Y-118772059D01*
X110200087Y-118807800D01*
X110142207Y-118807800D01*
X110124321Y-118774337D01*
X110077209Y-118716931D01*
X110019803Y-118669819D01*
X109954310Y-118634812D01*
X109883245Y-118613255D01*
X109809340Y-118605976D01*
X108834340Y-118605976D01*
X108760435Y-118613255D01*
X108689370Y-118634812D01*
X108623877Y-118669819D01*
X108566471Y-118716931D01*
X108519359Y-118774337D01*
X108484352Y-118839830D01*
X108462795Y-118910895D01*
X108455516Y-118984800D01*
X108455516Y-119533326D01*
X108440597Y-119684800D01*
X108455516Y-119836274D01*
X108455516Y-120384800D01*
X108462795Y-120458705D01*
X108484352Y-120529770D01*
X108519359Y-120595263D01*
X108566471Y-120652669D01*
X108623877Y-120699781D01*
X108689370Y-120734788D01*
X108760435Y-120756345D01*
X108834340Y-120763624D01*
X109809340Y-120763624D01*
X109883245Y-120756345D01*
X109954310Y-120734788D01*
X110019803Y-120699781D01*
X110077209Y-120652669D01*
X110124321Y-120595263D01*
X110142207Y-120561800D01*
X110194628Y-120561800D01*
X110243637Y-120602021D01*
X110309130Y-120637028D01*
X110380195Y-120658585D01*
X110454100Y-120665864D01*
X112254100Y-120665864D01*
X112328005Y-120658585D01*
X112399070Y-120637028D01*
X112464563Y-120602021D01*
X112521969Y-120554909D01*
X112569081Y-120497503D01*
X112604088Y-120432010D01*
X112625645Y-120360945D01*
X112632924Y-120287040D01*
X112632924Y-120212111D01*
X112690770Y-120206414D01*
X112790110Y-120176279D01*
X112881662Y-120127344D01*
X112960211Y-120062880D01*
X113021173Y-120176932D01*
X113130767Y-120310473D01*
X113264308Y-120420067D01*
X113416663Y-120501502D01*
X113581978Y-120551650D01*
X113710821Y-120564340D01*
X114197723Y-120564340D01*
X114243637Y-120602021D01*
X114309130Y-120637028D01*
X114380195Y-120658585D01*
X114454100Y-120665864D01*
X116254100Y-120665864D01*
X116328005Y-120658585D01*
X116399070Y-120637028D01*
X116464563Y-120602021D01*
X116521969Y-120554909D01*
X116569081Y-120497503D01*
X116604088Y-120432010D01*
X116625645Y-120360945D01*
X116632924Y-120287040D01*
X116632924Y-119955329D01*
X116640737Y-119961741D01*
X116706230Y-119996748D01*
X116777295Y-120018305D01*
X116851200Y-120025584D01*
X118251200Y-120025584D01*
X118325105Y-120018305D01*
X118396170Y-119996748D01*
X118461663Y-119961741D01*
X118514182Y-119918640D01*
X118911085Y-119918640D01*
X119036772Y-119943640D01*
X119189828Y-119943640D01*
X119339943Y-119913781D01*
X119481348Y-119855209D01*
X119608609Y-119770176D01*
X119716836Y-119661949D01*
X119801869Y-119534688D01*
X119860441Y-119393283D01*
X119890300Y-119243168D01*
X119890300Y-119090112D01*
X119860441Y-118939997D01*
X119801869Y-118798592D01*
X119716836Y-118671331D01*
X119608609Y-118563104D01*
X119481348Y-118478071D01*
X119339943Y-118419499D01*
X119189828Y-118389640D01*
X119036772Y-118389640D01*
X118911085Y-118414640D01*
X118527890Y-118414640D01*
X118519069Y-118403891D01*
X118461663Y-118356779D01*
X118396170Y-118321772D01*
X118325105Y-118300215D01*
X118251200Y-118292936D01*
X116851200Y-118292936D01*
X116777295Y-118300215D01*
X116706230Y-118321772D01*
X116640737Y-118356779D01*
X116583331Y-118403891D01*
X116536219Y-118461297D01*
X116501212Y-118526790D01*
X116479655Y-118597855D01*
X116472376Y-118671760D01*
X116472376Y-118778471D01*
X116464563Y-118772059D01*
X116399070Y-118737052D01*
X116328005Y-118715495D01*
X116254100Y-118708216D01*
X114454100Y-118708216D01*
X114380195Y-118715495D01*
X114309130Y-118737052D01*
X114243637Y-118772059D01*
X114196992Y-118810340D01*
X113710821Y-118810340D01*
X113581978Y-118823030D01*
X113471300Y-118856604D01*
X113471300Y-116476792D01*
X113520395Y-116491685D01*
X113594300Y-116498964D01*
X114127153Y-116498964D01*
X114104112Y-116542070D01*
X114082555Y-116613135D01*
X114075276Y-116687040D01*
X114075276Y-117887040D01*
X114082555Y-117960945D01*
X114104112Y-118032010D01*
X114139119Y-118097503D01*
X114186231Y-118154909D01*
X114243637Y-118202021D01*
X114309130Y-118237028D01*
X114380195Y-118258585D01*
X114454100Y-118265864D01*
X116254100Y-118265864D01*
X116328005Y-118258585D01*
X116399070Y-118237028D01*
X116464563Y-118202021D01*
X116514230Y-118161260D01*
X117508121Y-118161260D01*
X117551200Y-118165503D01*
X117594279Y-118161260D01*
X117702674Y-118150584D01*
X118251200Y-118150584D01*
X118325105Y-118143305D01*
X118396170Y-118121748D01*
X118461663Y-118086741D01*
X118519069Y-118039629D01*
X118566181Y-117982223D01*
X118601188Y-117916730D01*
X118622745Y-117845665D01*
X118630024Y-117771760D01*
X118630024Y-116796760D01*
X118622745Y-116722855D01*
X118601188Y-116651790D01*
X118566181Y-116586297D01*
X118519069Y-116528891D01*
X118461663Y-116481779D01*
X118428200Y-116463893D01*
X118428200Y-115733600D01*
X120299536Y-115733600D01*
X120299536Y-117133600D01*
X120306815Y-117207505D01*
X120328372Y-117278570D01*
X120363379Y-117344063D01*
X120410491Y-117401469D01*
X120467897Y-117448581D01*
X120533390Y-117483588D01*
X120604455Y-117505145D01*
X120678360Y-117512424D01*
X121653360Y-117512424D01*
X121727265Y-117505145D01*
X121798330Y-117483588D01*
X121863823Y-117448581D01*
X121921229Y-117401469D01*
X121968341Y-117344063D01*
X121984870Y-117313140D01*
X122471079Y-117313140D01*
X122599922Y-117300450D01*
X122765237Y-117250302D01*
X122917592Y-117168867D01*
X123051133Y-117059273D01*
X123160727Y-116925732D01*
X123242162Y-116773377D01*
X123292310Y-116608062D01*
X123309243Y-116436140D01*
X123292310Y-116264218D01*
X123242162Y-116098903D01*
X123160727Y-115946548D01*
X123051133Y-115813007D01*
X122917592Y-115703413D01*
X122765237Y-115621978D01*
X122599922Y-115571830D01*
X122471079Y-115559140D01*
X121987585Y-115559140D01*
X121968341Y-115523137D01*
X121936154Y-115483917D01*
X121970881Y-115441603D01*
X121988767Y-115408140D01*
X122471079Y-115408140D01*
X122599922Y-115395450D01*
X122765237Y-115345302D01*
X122917592Y-115263867D01*
X123051133Y-115154273D01*
X123160727Y-115020732D01*
X123242162Y-114868377D01*
X123292310Y-114703062D01*
X123309243Y-114531140D01*
X123292310Y-114359218D01*
X123242162Y-114193903D01*
X123160727Y-114041548D01*
X123051133Y-113908007D01*
X122917592Y-113798413D01*
X122765237Y-113716978D01*
X122599922Y-113666830D01*
X122471079Y-113654140D01*
X121988767Y-113654140D01*
X121970881Y-113620677D01*
X121923769Y-113563271D01*
X121866363Y-113516159D01*
X121800870Y-113481152D01*
X121729805Y-113459595D01*
X121655900Y-113452316D01*
X120680900Y-113452316D01*
X120606995Y-113459595D01*
X120535930Y-113481152D01*
X120470437Y-113516159D01*
X120413031Y-113563271D01*
X120365919Y-113620677D01*
X120330912Y-113686170D01*
X120309355Y-113757235D01*
X120302076Y-113831140D01*
X120302076Y-115231140D01*
X120309355Y-115305045D01*
X120330912Y-115376110D01*
X120365919Y-115441603D01*
X120398106Y-115480823D01*
X120363379Y-115523137D01*
X120328372Y-115588630D01*
X120306815Y-115659695D01*
X120299536Y-115733600D01*
X118428200Y-115733600D01*
X118428200Y-115379361D01*
X118415510Y-115250518D01*
X118415224Y-115249575D01*
X118415224Y-114720140D01*
X118407945Y-114646235D01*
X118386388Y-114575170D01*
X118351381Y-114509677D01*
X118304269Y-114452271D01*
X118246863Y-114405159D01*
X118181370Y-114370152D01*
X118110305Y-114348595D01*
X118036400Y-114341316D01*
X117061400Y-114341316D01*
X116987495Y-114348595D01*
X116916430Y-114370152D01*
X116850937Y-114405159D01*
X116793531Y-114452271D01*
X116746419Y-114509677D01*
X116711412Y-114575170D01*
X116689855Y-114646235D01*
X116682576Y-114720140D01*
X116682576Y-115294329D01*
X116674201Y-115379361D01*
X116674200Y-116407260D01*
X116507455Y-116407260D01*
X116464563Y-116372059D01*
X116449129Y-116363809D01*
X116476381Y-116330603D01*
X116511388Y-116265110D01*
X116532945Y-116194045D01*
X116540224Y-116120140D01*
X116540224Y-115571614D01*
X116555143Y-115420140D01*
X116540224Y-115268666D01*
X116540224Y-114720140D01*
X116532945Y-114646235D01*
X116511388Y-114575170D01*
X116476381Y-114509677D01*
X116432780Y-114456549D01*
X117033244Y-113856087D01*
X117053348Y-113839588D01*
X117119204Y-113759342D01*
X117168139Y-113667790D01*
X117198274Y-113568450D01*
X117205900Y-113491021D01*
X117205900Y-113491020D01*
X117208449Y-113465140D01*
X117205900Y-113439259D01*
X117205900Y-113404964D01*
X117328900Y-113404964D01*
X117402805Y-113397685D01*
X117428900Y-113389769D01*
X117454995Y-113397685D01*
X117528900Y-113404964D01*
X117828900Y-113404964D01*
X117902805Y-113397685D01*
X117973870Y-113376128D01*
X118039363Y-113341121D01*
X118096769Y-113294009D01*
X118143881Y-113236603D01*
X118178888Y-113171110D01*
X118178900Y-113171070D01*
X118178912Y-113171110D01*
X118213919Y-113236603D01*
X118261031Y-113294009D01*
X118318437Y-113341121D01*
X118383930Y-113376128D01*
X118454995Y-113397685D01*
X118528900Y-113404964D01*
X118828900Y-113404964D01*
X118902805Y-113397685D01*
X118928900Y-113389769D01*
X118954995Y-113397685D01*
X119028900Y-113404964D01*
X119328900Y-113404964D01*
X119402805Y-113397685D01*
X119428900Y-113389769D01*
X119454995Y-113397685D01*
X119528900Y-113404964D01*
X119828900Y-113404964D01*
X119902805Y-113397685D01*
X119973870Y-113376128D01*
X120039363Y-113341121D01*
X120096769Y-113294009D01*
X120143881Y-113236603D01*
X120178888Y-113171110D01*
X120200445Y-113100045D01*
X120207724Y-113026140D01*
X120207724Y-111026140D01*
X120200445Y-110952235D01*
X120197158Y-110941398D01*
X120207995Y-110944685D01*
X120281900Y-110951964D01*
X122281900Y-110951964D01*
X122355805Y-110944685D01*
X122426870Y-110923128D01*
X122492363Y-110888121D01*
X122549769Y-110841009D01*
X122596881Y-110783603D01*
X122631888Y-110718110D01*
X122653445Y-110647045D01*
X122660724Y-110573140D01*
X122660724Y-110273140D01*
X122653445Y-110199235D01*
X122645529Y-110173140D01*
X122653445Y-110147045D01*
X122658053Y-110100264D01*
X122668591Y-110207262D01*
X122718739Y-110372577D01*
X122800174Y-110524932D01*
X122909768Y-110658473D01*
X123043309Y-110768067D01*
X123195664Y-110849502D01*
X123360979Y-110899650D01*
X123532900Y-110916583D01*
X123704822Y-110899650D01*
X123870137Y-110849502D01*
X124022492Y-110768067D01*
X124156033Y-110658473D01*
X124265627Y-110524932D01*
X124347062Y-110372577D01*
X124397210Y-110207262D01*
X124409900Y-110078419D01*
X124409900Y-109621507D01*
X124443363Y-109603621D01*
X124500769Y-109556509D01*
X124547881Y-109499103D01*
X124582888Y-109433610D01*
X124604445Y-109362545D01*
X124611724Y-109288640D01*
X124611724Y-108313640D01*
X124604445Y-108239735D01*
X124582888Y-108168670D01*
X124547881Y-108103177D01*
X124500769Y-108045771D01*
X124443363Y-107998659D01*
X124377870Y-107963652D01*
X124306805Y-107942095D01*
X124232900Y-107934816D01*
X123684373Y-107934816D01*
X123532900Y-107919897D01*
X123381426Y-107934816D01*
X122832900Y-107934816D01*
X122758995Y-107942095D01*
X122687930Y-107963652D01*
X122660724Y-107978194D01*
X122660724Y-107773140D01*
X122658223Y-107747749D01*
X122687930Y-107763628D01*
X122758995Y-107785185D01*
X122832900Y-107792464D01*
X124232900Y-107792464D01*
X124306805Y-107785185D01*
X124377870Y-107763628D01*
X124443363Y-107728621D01*
X124500769Y-107681509D01*
X124547881Y-107624103D01*
X124582888Y-107558610D01*
X124604445Y-107487545D01*
X124611724Y-107413640D01*
X124611724Y-106438640D01*
X124604445Y-106364735D01*
X124582888Y-106293670D01*
X124547881Y-106228177D01*
X124500769Y-106170771D01*
X124443363Y-106123659D01*
X124377870Y-106088652D01*
X124306805Y-106067095D01*
X124232900Y-106059816D01*
X122832900Y-106059816D01*
X122758995Y-106067095D01*
X122687930Y-106088652D01*
X122657599Y-106104864D01*
X122660724Y-106073140D01*
X122660724Y-105773140D01*
X122653445Y-105699235D01*
X122645529Y-105673140D01*
X122653445Y-105647045D01*
X122660724Y-105573140D01*
X122660724Y-105273140D01*
X122653445Y-105199235D01*
X122631888Y-105128170D01*
X122596881Y-105062677D01*
X122549769Y-105005271D01*
X122492363Y-104958159D01*
X122426870Y-104923152D01*
X122355805Y-104901595D01*
X122281900Y-104894316D01*
X120281900Y-104894316D01*
X120263381Y-104896140D01*
X120119045Y-104896140D01*
X120042509Y-104819604D01*
X119915248Y-104734571D01*
X119829211Y-104698933D01*
X119902805Y-104691685D01*
X119973870Y-104670128D01*
X120039363Y-104635121D01*
X120096769Y-104588009D01*
X120143881Y-104530603D01*
X120178888Y-104465110D01*
X120200445Y-104394045D01*
X120207724Y-104320140D01*
X120207724Y-102560060D01*
X122451536Y-102560060D01*
X122451536Y-103535060D01*
X122458815Y-103608965D01*
X122480372Y-103680030D01*
X122515379Y-103745523D01*
X122562491Y-103802929D01*
X122619897Y-103850041D01*
X122685390Y-103885048D01*
X122756455Y-103906605D01*
X122830360Y-103913884D01*
X124230360Y-103913884D01*
X124304265Y-103906605D01*
X124375330Y-103885048D01*
X124440823Y-103850041D01*
X124481313Y-103816812D01*
X124524897Y-103852581D01*
X124590390Y-103887588D01*
X124661455Y-103909145D01*
X124735360Y-103916424D01*
X126135360Y-103916424D01*
X126209265Y-103909145D01*
X126280330Y-103887588D01*
X126345823Y-103852581D01*
X126403229Y-103805469D01*
X126450341Y-103748063D01*
X126485348Y-103682570D01*
X126506905Y-103611505D01*
X126514184Y-103537600D01*
X126514184Y-102562600D01*
X126506905Y-102488695D01*
X126485348Y-102417630D01*
X126450341Y-102352137D01*
X126403229Y-102294731D01*
X126345823Y-102247619D01*
X126309820Y-102228375D01*
X126309820Y-101749961D01*
X126297130Y-101621118D01*
X126246982Y-101455803D01*
X126165547Y-101303448D01*
X126055953Y-101169907D01*
X125922412Y-101060313D01*
X125770057Y-100978878D01*
X125604742Y-100928730D01*
X125432820Y-100911797D01*
X125260899Y-100928730D01*
X125095584Y-100978878D01*
X124943229Y-101060313D01*
X124809688Y-101169907D01*
X124700094Y-101303448D01*
X124618659Y-101455803D01*
X124568511Y-101621118D01*
X124555821Y-101749961D01*
X124555821Y-102231090D01*
X124524897Y-102247619D01*
X124484407Y-102280848D01*
X124440823Y-102245079D01*
X124404820Y-102225835D01*
X124404820Y-101749961D01*
X124392130Y-101621118D01*
X124341982Y-101455803D01*
X124260547Y-101303448D01*
X124150953Y-101169907D01*
X124017412Y-101060313D01*
X123865057Y-100978878D01*
X123699742Y-100928730D01*
X123527820Y-100911797D01*
X123355899Y-100928730D01*
X123190584Y-100978878D01*
X123038229Y-101060313D01*
X122904688Y-101169907D01*
X122795094Y-101303448D01*
X122713659Y-101455803D01*
X122663511Y-101621118D01*
X122650821Y-101749961D01*
X122650821Y-102228550D01*
X122619897Y-102245079D01*
X122562491Y-102292191D01*
X122515379Y-102349597D01*
X122480372Y-102415090D01*
X122458815Y-102486155D01*
X122451536Y-102560060D01*
X120207724Y-102560060D01*
X120207724Y-102320140D01*
X120200445Y-102246235D01*
X120178888Y-102175170D01*
X120143881Y-102109677D01*
X120096769Y-102052271D01*
X120039363Y-102005159D01*
X119973870Y-101970152D01*
X119902805Y-101948595D01*
X119828900Y-101941316D01*
X119705900Y-101941316D01*
X119705900Y-101577429D01*
X120957190Y-100326140D01*
X126362611Y-100326140D01*
X133604000Y-107567530D01*
X133604000Y-119507000D01*
X133606440Y-119531776D01*
X133613667Y-119555601D01*
X133625403Y-119577557D01*
X133641197Y-119596803D01*
X133660443Y-119612597D01*
X133682399Y-119624333D01*
X133706224Y-119631560D01*
X133731249Y-119634000D01*
X190013900Y-119523858D01*
X190013900Y-119611991D01*
X190162891Y-120361019D01*
X190455147Y-121066588D01*
X190879438Y-121701583D01*
X191419457Y-122241602D01*
X192054452Y-122665893D01*
X192760021Y-122958149D01*
X193509049Y-123107140D01*
X194272751Y-123107140D01*
X195021779Y-122958149D01*
X195727348Y-122665893D01*
X196362343Y-122241602D01*
X196902362Y-121701583D01*
X197326653Y-121066588D01*
X197618909Y-120361019D01*
X197767900Y-119611991D01*
X197767900Y-119508684D01*
X197806901Y-119508607D01*
X197806901Y-123146140D01*
X89644900Y-123146140D01*
X89644900Y-118848289D01*
X89683900Y-118848289D01*
X89683900Y-119611991D01*
X89832891Y-120361019D01*
X90125147Y-121066588D01*
X90549438Y-121701583D01*
X91089457Y-122241602D01*
X91724452Y-122665893D01*
X92430021Y-122958149D01*
X93179049Y-123107140D01*
X93942751Y-123107140D01*
X94691779Y-122958149D01*
X95397348Y-122665893D01*
X96032343Y-122241602D01*
X96572362Y-121701583D01*
X96996653Y-121066588D01*
X97288909Y-120361019D01*
X97425438Y-119674640D01*
X105303457Y-119674640D01*
X105320390Y-119846562D01*
X105370538Y-120011877D01*
X105451973Y-120164232D01*
X105561567Y-120297773D01*
X105695108Y-120407367D01*
X105847463Y-120488802D01*
X106012778Y-120538950D01*
X106141621Y-120551640D01*
X106621042Y-120551640D01*
X106644359Y-120595263D01*
X106691471Y-120652669D01*
X106748877Y-120699781D01*
X106814370Y-120734788D01*
X106885435Y-120756345D01*
X106959340Y-120763624D01*
X107934340Y-120763624D01*
X108008245Y-120756345D01*
X108079310Y-120734788D01*
X108144803Y-120699781D01*
X108202209Y-120652669D01*
X108249321Y-120595263D01*
X108284328Y-120529770D01*
X108305885Y-120458705D01*
X108313164Y-120384800D01*
X108313164Y-118984800D01*
X108305885Y-118910895D01*
X108284328Y-118839830D01*
X108249321Y-118774337D01*
X108202209Y-118716931D01*
X108144803Y-118669819D01*
X108079310Y-118634812D01*
X108008245Y-118613255D01*
X107934340Y-118605976D01*
X106959340Y-118605976D01*
X106885435Y-118613255D01*
X106814370Y-118634812D01*
X106748877Y-118669819D01*
X106691471Y-118716931D01*
X106644359Y-118774337D01*
X106631903Y-118797640D01*
X106141621Y-118797640D01*
X106012778Y-118810330D01*
X105847463Y-118860478D01*
X105695108Y-118941913D01*
X105561567Y-119051507D01*
X105451973Y-119185048D01*
X105370538Y-119337403D01*
X105320390Y-119502718D01*
X105303457Y-119674640D01*
X97425438Y-119674640D01*
X97437900Y-119611991D01*
X97437900Y-118848289D01*
X97288909Y-118099261D01*
X96996653Y-117393692D01*
X96572362Y-116758697D01*
X96032343Y-116218678D01*
X95397348Y-115794387D01*
X94691779Y-115502131D01*
X93942751Y-115353140D01*
X93179049Y-115353140D01*
X92430021Y-115502131D01*
X91724452Y-115794387D01*
X91089457Y-116218678D01*
X90549438Y-116758697D01*
X90125147Y-117393692D01*
X89832891Y-118099261D01*
X89683900Y-118848289D01*
X89644900Y-118848289D01*
X89644900Y-113424740D01*
X99478676Y-113424740D01*
X99478676Y-114824740D01*
X99485955Y-114898645D01*
X99507512Y-114969710D01*
X99542519Y-115035203D01*
X99589631Y-115092609D01*
X99647037Y-115139721D01*
X99712530Y-115174728D01*
X99783595Y-115196285D01*
X99788677Y-115196786D01*
X99770512Y-115230770D01*
X99748955Y-115301835D01*
X99741676Y-115375740D01*
X99741676Y-116175740D01*
X99748955Y-116249645D01*
X99770512Y-116320710D01*
X99805519Y-116386203D01*
X99852631Y-116443609D01*
X99910037Y-116490721D01*
X99975530Y-116525728D01*
X100046595Y-116547285D01*
X100120500Y-116554564D01*
X100920500Y-116554564D01*
X100994405Y-116547285D01*
X101065470Y-116525728D01*
X101130963Y-116490721D01*
X101188369Y-116443609D01*
X101235481Y-116386203D01*
X101250750Y-116357637D01*
X101266019Y-116386203D01*
X101313131Y-116443609D01*
X101370537Y-116490721D01*
X101436030Y-116525728D01*
X101507095Y-116547285D01*
X101581000Y-116554564D01*
X102381000Y-116554564D01*
X102454905Y-116547285D01*
X102510964Y-116530280D01*
X102881145Y-116530280D01*
X103006832Y-116555280D01*
X103159888Y-116555280D01*
X103310003Y-116525421D01*
X103451408Y-116466849D01*
X103578669Y-116381816D01*
X103686896Y-116273589D01*
X103771929Y-116146328D01*
X103830501Y-116004923D01*
X103860360Y-115854808D01*
X103860360Y-115701752D01*
X103830501Y-115551637D01*
X103771929Y-115410232D01*
X103686896Y-115282971D01*
X103578669Y-115174744D01*
X103451408Y-115089711D01*
X103310003Y-115031139D01*
X103159888Y-115001280D01*
X103006832Y-115001280D01*
X102881145Y-115026280D01*
X102526958Y-115026280D01*
X102525970Y-115025752D01*
X102454905Y-115004195D01*
X102381000Y-114996916D01*
X101581000Y-114996916D01*
X101507095Y-115004195D01*
X101436030Y-115025752D01*
X101370537Y-115060759D01*
X101313131Y-115107871D01*
X101266019Y-115165277D01*
X101250750Y-115193843D01*
X101235481Y-115165277D01*
X101188369Y-115107871D01*
X101130963Y-115060759D01*
X101127866Y-115059104D01*
X101147481Y-115035203D01*
X101182488Y-114969710D01*
X101204045Y-114898645D01*
X101211324Y-114824740D01*
X101211324Y-113424740D01*
X101204045Y-113350835D01*
X101182488Y-113279770D01*
X101147481Y-113214277D01*
X101100369Y-113156871D01*
X101042963Y-113109759D01*
X100977470Y-113074752D01*
X100906405Y-113053195D01*
X100832500Y-113045916D01*
X99857500Y-113045916D01*
X99783595Y-113053195D01*
X99712530Y-113074752D01*
X99647037Y-113109759D01*
X99589631Y-113156871D01*
X99542519Y-113214277D01*
X99507512Y-113279770D01*
X99485955Y-113350835D01*
X99478676Y-113424740D01*
X89644900Y-113424740D01*
X89644900Y-99414140D01*
X94265000Y-99414140D01*
X94265000Y-100862976D01*
X93910494Y-100862976D01*
X93802099Y-100852300D01*
X92243032Y-100852300D01*
X92176600Y-100845757D01*
X92004678Y-100862690D01*
X91839364Y-100912838D01*
X91687008Y-100994274D01*
X91553468Y-101103868D01*
X91443874Y-101237408D01*
X91362438Y-101389764D01*
X91312290Y-101555078D01*
X91295357Y-101727000D01*
X91312290Y-101898922D01*
X91362438Y-102064236D01*
X91443874Y-102216592D01*
X91526006Y-102316671D01*
X91528303Y-102318968D01*
X91555767Y-102352433D01*
X91689308Y-102462027D01*
X91841663Y-102543462D01*
X91989622Y-102588345D01*
X92006978Y-102593610D01*
X92178900Y-102610543D01*
X92221979Y-102606300D01*
X93802099Y-102606300D01*
X93910494Y-102595624D01*
X94328614Y-102595624D01*
X94345389Y-102627007D01*
X94391752Y-102683500D01*
X92837000Y-102683500D01*
X92763451Y-102690744D01*
X92692728Y-102712197D01*
X92627550Y-102747036D01*
X92570421Y-102793921D01*
X92523536Y-102851050D01*
X92488697Y-102916228D01*
X92467244Y-102986951D01*
X92460000Y-103060500D01*
X92460000Y-104902000D01*
X92464012Y-104956857D01*
X92481881Y-105028569D01*
X92513397Y-105095418D01*
X95815397Y-110619918D01*
X95872421Y-110693079D01*
X95929550Y-110739964D01*
X95994728Y-110774803D01*
X96065451Y-110796256D01*
X96139000Y-110803500D01*
X98742500Y-110803500D01*
X98744045Y-110803497D01*
X100293445Y-110797147D01*
X100365918Y-110789812D01*
X100388386Y-110782965D01*
X100401628Y-110790043D01*
X100472351Y-110811496D01*
X100545900Y-110818740D01*
X103390700Y-110818740D01*
X103464249Y-110811496D01*
X103534972Y-110790043D01*
X103600150Y-110755204D01*
X103657279Y-110708319D01*
X103704164Y-110651190D01*
X103739003Y-110586012D01*
X103760456Y-110515289D01*
X103767700Y-110441740D01*
X103767700Y-108676440D01*
X103761429Y-108607963D01*
X103740946Y-108536953D01*
X103707004Y-108471303D01*
X103660906Y-108413537D01*
X103604424Y-108365874D01*
X103539729Y-108330146D01*
X103469307Y-108307726D01*
X103395864Y-108299475D01*
X102842132Y-108291890D01*
X102851753Y-105952100D01*
X105054400Y-105952100D01*
X105127949Y-105944856D01*
X105198672Y-105923403D01*
X105263850Y-105888564D01*
X105320979Y-105841679D01*
X105367864Y-105784550D01*
X105402703Y-105719372D01*
X105424156Y-105648649D01*
X105431400Y-105575100D01*
X105431400Y-100954840D01*
X107691057Y-100954840D01*
X107707990Y-101126762D01*
X107758138Y-101292077D01*
X107839573Y-101444432D01*
X107949167Y-101577973D01*
X108082708Y-101687567D01*
X108235063Y-101769002D01*
X108400378Y-101819150D01*
X108529221Y-101831840D01*
X109004744Y-101831840D01*
X109029419Y-101878003D01*
X109051183Y-101904523D01*
X109026879Y-101934137D01*
X109014423Y-101957440D01*
X108529221Y-101957440D01*
X108400378Y-101970130D01*
X108235063Y-102020278D01*
X108082708Y-102101713D01*
X107949167Y-102211307D01*
X107839573Y-102344848D01*
X107758138Y-102497203D01*
X107707990Y-102662518D01*
X107691057Y-102834440D01*
X107707990Y-103006362D01*
X107758138Y-103171677D01*
X107839573Y-103324032D01*
X107949167Y-103457573D01*
X108082708Y-103567167D01*
X108235063Y-103648602D01*
X108400378Y-103698750D01*
X108529221Y-103711440D01*
X109003562Y-103711440D01*
X109026879Y-103755063D01*
X109073991Y-103812469D01*
X109131397Y-103859581D01*
X109196890Y-103894588D01*
X109267955Y-103916145D01*
X109341860Y-103923424D01*
X110316860Y-103923424D01*
X110390765Y-103916145D01*
X110461830Y-103894588D01*
X110527323Y-103859581D01*
X110584729Y-103812469D01*
X110631841Y-103755063D01*
X110666848Y-103689570D01*
X110688405Y-103618505D01*
X110695684Y-103544600D01*
X110695684Y-102144600D01*
X110688405Y-102070695D01*
X110666848Y-101999630D01*
X110631841Y-101934137D01*
X110610077Y-101907617D01*
X110634381Y-101878003D01*
X110669388Y-101812510D01*
X110690945Y-101741445D01*
X110698224Y-101667540D01*
X110698224Y-100267540D01*
X110690945Y-100193635D01*
X110669388Y-100122570D01*
X110634381Y-100057077D01*
X110587269Y-99999671D01*
X110529863Y-99952559D01*
X110464370Y-99917552D01*
X110393305Y-99895995D01*
X110319400Y-99888716D01*
X109344400Y-99888716D01*
X109270495Y-99895995D01*
X109199430Y-99917552D01*
X109133937Y-99952559D01*
X109076531Y-99999671D01*
X109029419Y-100057077D01*
X109018321Y-100077840D01*
X108529221Y-100077840D01*
X108400378Y-100090530D01*
X108235063Y-100140678D01*
X108082708Y-100222113D01*
X107949167Y-100331707D01*
X107839573Y-100465248D01*
X107758138Y-100617603D01*
X107707990Y-100782918D01*
X107691057Y-100954840D01*
X105431400Y-100954840D01*
X105431400Y-100034090D01*
X105424080Y-99960158D01*
X105402553Y-99889458D01*
X105367647Y-99824316D01*
X105320703Y-99767235D01*
X105263525Y-99720409D01*
X105198311Y-99685638D01*
X105127566Y-99664258D01*
X105054010Y-99657090D01*
X99156000Y-99663196D01*
X99156000Y-95553236D01*
X99247321Y-95571400D01*
X99380679Y-95571400D01*
X99511474Y-95545384D01*
X99634680Y-95494350D01*
X99745563Y-95420260D01*
X99839860Y-95325963D01*
X99913950Y-95215080D01*
X99964984Y-95091874D01*
X99991000Y-94961079D01*
X99991000Y-94827721D01*
X99964984Y-94696926D01*
X99913950Y-94573720D01*
X99885726Y-94531480D01*
X102508580Y-94531480D01*
X102488919Y-94555437D01*
X102453912Y-94620930D01*
X102432355Y-94691995D01*
X102425076Y-94765900D01*
X102425076Y-96165900D01*
X102432355Y-96239805D01*
X102453912Y-96310870D01*
X102488919Y-96376363D01*
X102536031Y-96433769D01*
X102593437Y-96480881D01*
X102658930Y-96515888D01*
X102729995Y-96537445D01*
X102803900Y-96544724D01*
X103778900Y-96544724D01*
X103852805Y-96537445D01*
X103923870Y-96515888D01*
X103989363Y-96480881D01*
X104046769Y-96433769D01*
X104093881Y-96376363D01*
X104128888Y-96310870D01*
X104150445Y-96239805D01*
X104157724Y-96165900D01*
X104157724Y-94765900D01*
X104150445Y-94691995D01*
X104128888Y-94620930D01*
X104093881Y-94555437D01*
X104074220Y-94531480D01*
X104383580Y-94531480D01*
X104363919Y-94555437D01*
X104328912Y-94620930D01*
X104307355Y-94691995D01*
X104300076Y-94765900D01*
X104300076Y-96165900D01*
X104307355Y-96239805D01*
X104328912Y-96310870D01*
X104363919Y-96376363D01*
X104411031Y-96433769D01*
X104468437Y-96480881D01*
X104533930Y-96515888D01*
X104560068Y-96523817D01*
X104477591Y-96647252D01*
X104419019Y-96788657D01*
X104389160Y-96938772D01*
X104389160Y-97091828D01*
X104419019Y-97241943D01*
X104477591Y-97383348D01*
X104562624Y-97510609D01*
X104670851Y-97618836D01*
X104798112Y-97703869D01*
X104939517Y-97762441D01*
X105089632Y-97792300D01*
X105242688Y-97792300D01*
X105392803Y-97762441D01*
X105534208Y-97703869D01*
X105661469Y-97618836D01*
X105769696Y-97510609D01*
X105854729Y-97383348D01*
X105913301Y-97241943D01*
X105943160Y-97091828D01*
X105943160Y-96938772D01*
X105913301Y-96788657D01*
X105854729Y-96647252D01*
X105772333Y-96523938D01*
X105798870Y-96515888D01*
X105864363Y-96480881D01*
X105921769Y-96433769D01*
X105968881Y-96376363D01*
X106003888Y-96310870D01*
X106025445Y-96239805D01*
X106032724Y-96165900D01*
X106032724Y-94765900D01*
X106025445Y-94691995D01*
X106003888Y-94620930D01*
X105968881Y-94555437D01*
X105949220Y-94531480D01*
X110830614Y-94531480D01*
X112169087Y-95869954D01*
X112169087Y-95947520D01*
X111513529Y-96603078D01*
X111466417Y-96660484D01*
X111431410Y-96725977D01*
X111409853Y-96797042D01*
X111402574Y-96870947D01*
X111409853Y-96944852D01*
X111431410Y-97015917D01*
X111466417Y-97081410D01*
X111513529Y-97138816D01*
X112202958Y-97828245D01*
X112260364Y-97875357D01*
X112325857Y-97910364D01*
X112396922Y-97931921D01*
X112470827Y-97939200D01*
X112544732Y-97931921D01*
X112615797Y-97910364D01*
X112681290Y-97875357D01*
X112738696Y-97828245D01*
X113728645Y-96838296D01*
X113775757Y-96780890D01*
X113810764Y-96715397D01*
X113832321Y-96644332D01*
X113835299Y-96614099D01*
X113865532Y-96611121D01*
X113936597Y-96589564D01*
X114002090Y-96554557D01*
X114059496Y-96507445D01*
X115049445Y-95517496D01*
X115096557Y-95460090D01*
X115131564Y-95394597D01*
X115153121Y-95323532D01*
X115160400Y-95249627D01*
X115153121Y-95175722D01*
X115131564Y-95104657D01*
X115096557Y-95039164D01*
X115049445Y-94981758D01*
X114360016Y-94292329D01*
X114302610Y-94245217D01*
X114237117Y-94210210D01*
X114166052Y-94188653D01*
X114092147Y-94181374D01*
X114018242Y-94188653D01*
X113947177Y-94210210D01*
X113881684Y-94245217D01*
X113824278Y-94292329D01*
X113168720Y-94947887D01*
X113091154Y-94947887D01*
X111518846Y-93375580D01*
X111504682Y-93358321D01*
X111435856Y-93301837D01*
X111357333Y-93259866D01*
X111272130Y-93234020D01*
X111205728Y-93227480D01*
X111183523Y-93225293D01*
X111161318Y-93227480D01*
X98974205Y-93227480D01*
X98941251Y-93209866D01*
X98856048Y-93184020D01*
X98845756Y-93183006D01*
X98792410Y-93154492D01*
X98721345Y-93132935D01*
X98647440Y-93125656D01*
X98167440Y-93125656D01*
X98093535Y-93132935D01*
X98022470Y-93154492D01*
X98017440Y-93157181D01*
X98012410Y-93154492D01*
X97941345Y-93132935D01*
X97867440Y-93125656D01*
X97387440Y-93125656D01*
X97313535Y-93132935D01*
X97242470Y-93154492D01*
X97189124Y-93183006D01*
X97178832Y-93184020D01*
X97093629Y-93209866D01*
X97060675Y-93227480D01*
X96343980Y-93227480D01*
X96321775Y-93225293D01*
X96233168Y-93234020D01*
X96213338Y-93240036D01*
X96147966Y-93259866D01*
X96069443Y-93301837D01*
X96000617Y-93358321D01*
X95986461Y-93375570D01*
X95365893Y-93996140D01*
X95033861Y-93996140D01*
X95035001Y-93995000D01*
X95072528Y-93995000D01*
X95222643Y-93965141D01*
X95364048Y-93906569D01*
X95491309Y-93821536D01*
X95599536Y-93713309D01*
X95684569Y-93586048D01*
X95743141Y-93444643D01*
X95773000Y-93294528D01*
X95773000Y-93141472D01*
X95743141Y-92991357D01*
X95684569Y-92849952D01*
X95599536Y-92722691D01*
X95491309Y-92614464D01*
X95364048Y-92529431D01*
X95222643Y-92470859D01*
X95072528Y-92441000D01*
X94919472Y-92441000D01*
X94769357Y-92470859D01*
X94627952Y-92529431D01*
X94500691Y-92614464D01*
X94392464Y-92722691D01*
X94333264Y-92811290D01*
X94337056Y-92798789D01*
X94344300Y-92725240D01*
X94344300Y-92595721D01*
X94346524Y-92573140D01*
X94346524Y-90973140D01*
X94339245Y-90899235D01*
X94317688Y-90828170D01*
X94282681Y-90762677D01*
X94235569Y-90705271D01*
X94178163Y-90658159D01*
X94112670Y-90623152D01*
X94041605Y-90601595D01*
X93967700Y-90594316D01*
X92567700Y-90594316D01*
X92554257Y-90595640D01*
X89644900Y-90595640D01*
X89644900Y-83543140D01*
X92293076Y-83543140D01*
X92293076Y-85067140D01*
X92300355Y-85141045D01*
X92321912Y-85212110D01*
X92356919Y-85277603D01*
X92404031Y-85335009D01*
X92461437Y-85382121D01*
X92526930Y-85417128D01*
X92556901Y-85426219D01*
X92556901Y-86024051D01*
X92552657Y-86067140D01*
X92569590Y-86239062D01*
X92619738Y-86404376D01*
X92701174Y-86556732D01*
X92783306Y-86656811D01*
X92783309Y-86656814D01*
X92810768Y-86690273D01*
X92844227Y-86717732D01*
X94117563Y-87991068D01*
X94145027Y-88024533D01*
X94278568Y-88134127D01*
X94400168Y-88199123D01*
X94430923Y-88215562D01*
X94596237Y-88265710D01*
X94768160Y-88282643D01*
X94811239Y-88278400D01*
X98066773Y-88278400D01*
X98116333Y-88311515D01*
X98303235Y-88388933D01*
X98501649Y-88428400D01*
X98703951Y-88428400D01*
X98881022Y-88393178D01*
X98845800Y-88570249D01*
X98845800Y-88772551D01*
X98885267Y-88970965D01*
X98962685Y-89157867D01*
X98995800Y-89207428D01*
X98995801Y-90711111D01*
X98991557Y-90754200D01*
X99008490Y-90926122D01*
X99058638Y-91091436D01*
X99140074Y-91243792D01*
X99222206Y-91343871D01*
X99222209Y-91343874D01*
X99249668Y-91377333D01*
X99283128Y-91404793D01*
X99552399Y-91674064D01*
X99579867Y-91707533D01*
X99713408Y-91817127D01*
X99865763Y-91898562D01*
X100031078Y-91948710D01*
X100159921Y-91961400D01*
X100159930Y-91961400D01*
X100202999Y-91965642D01*
X100246069Y-91961400D01*
X100477133Y-91961400D01*
X100495019Y-91994863D01*
X100542131Y-92052269D01*
X100599537Y-92099381D01*
X100665030Y-92134388D01*
X100736095Y-92155945D01*
X100810000Y-92163224D01*
X101785000Y-92163224D01*
X101858905Y-92155945D01*
X101929970Y-92134388D01*
X101995463Y-92099381D01*
X102052869Y-92052269D01*
X102099981Y-91994863D01*
X102134988Y-91929370D01*
X102156545Y-91858305D01*
X102163824Y-91784400D01*
X102163824Y-91235874D01*
X102178743Y-91084400D01*
X102163824Y-90932926D01*
X102163824Y-90384400D01*
X102306176Y-90384400D01*
X102306176Y-91784400D01*
X102313455Y-91858305D01*
X102335012Y-91929370D01*
X102370019Y-91994863D01*
X102417131Y-92052269D01*
X102474537Y-92099381D01*
X102540030Y-92134388D01*
X102611095Y-92155945D01*
X102685000Y-92163224D01*
X103660000Y-92163224D01*
X103733905Y-92155945D01*
X103804970Y-92134388D01*
X103870463Y-92099381D01*
X103927869Y-92052269D01*
X103974981Y-91994863D01*
X103988794Y-91969020D01*
X104472639Y-91969020D01*
X104601482Y-91956330D01*
X104766797Y-91906182D01*
X104919152Y-91824747D01*
X105052693Y-91715153D01*
X105162287Y-91581612D01*
X105243722Y-91429257D01*
X105293870Y-91263942D01*
X105310803Y-91092020D01*
X105293870Y-90920098D01*
X105243722Y-90754783D01*
X105162287Y-90602428D01*
X105052693Y-90468887D01*
X104919152Y-90359293D01*
X104766797Y-90277858D01*
X104601482Y-90227710D01*
X104472639Y-90215020D01*
X103996940Y-90215020D01*
X103974981Y-90173937D01*
X103927869Y-90116531D01*
X103870463Y-90069419D01*
X103804970Y-90034412D01*
X103733905Y-90012855D01*
X103660000Y-90005576D01*
X102685000Y-90005576D01*
X102611095Y-90012855D01*
X102540030Y-90034412D01*
X102474537Y-90069419D01*
X102417131Y-90116531D01*
X102370019Y-90173937D01*
X102335012Y-90239430D01*
X102313455Y-90310495D01*
X102306176Y-90384400D01*
X102163824Y-90384400D01*
X102156545Y-90310495D01*
X102134988Y-90239430D01*
X102099981Y-90173937D01*
X102052869Y-90116531D01*
X101995463Y-90069419D01*
X101929970Y-90034412D01*
X101858905Y-90012855D01*
X101785000Y-90005576D01*
X100810000Y-90005576D01*
X100749800Y-90011505D01*
X100749800Y-89207427D01*
X100782915Y-89157867D01*
X100860333Y-88970965D01*
X100899800Y-88772551D01*
X100899800Y-88643650D01*
X101015800Y-88527650D01*
X101015800Y-87528400D01*
X101269800Y-87528400D01*
X101269800Y-88527650D01*
X101428550Y-88686400D01*
X101792800Y-88689472D01*
X101917282Y-88677212D01*
X102036980Y-88640902D01*
X102147294Y-88581937D01*
X102243985Y-88502585D01*
X102323337Y-88405894D01*
X102382302Y-88295580D01*
X102418612Y-88175882D01*
X102430872Y-88051400D01*
X102427800Y-87687150D01*
X102269050Y-87528400D01*
X101269800Y-87528400D01*
X101015800Y-87528400D01*
X100016550Y-87528400D01*
X99900550Y-87644400D01*
X99771649Y-87644400D01*
X99594578Y-87679622D01*
X99629800Y-87502551D01*
X99629800Y-87300249D01*
X99590333Y-87101835D01*
X99512915Y-86914933D01*
X99403647Y-86751400D01*
X99854728Y-86751400D01*
X99857800Y-87115650D01*
X100016550Y-87274400D01*
X101015800Y-87274400D01*
X101015800Y-86275150D01*
X101269800Y-86275150D01*
X101269800Y-87274400D01*
X102269050Y-87274400D01*
X102427800Y-87115650D01*
X102430872Y-86751400D01*
X102418612Y-86626918D01*
X102382302Y-86507220D01*
X102323337Y-86396906D01*
X102243985Y-86300215D01*
X102147294Y-86220863D01*
X102036980Y-86161898D01*
X101917282Y-86125588D01*
X101792800Y-86113328D01*
X101428550Y-86116400D01*
X101269800Y-86275150D01*
X101015800Y-86275150D01*
X100857050Y-86116400D01*
X100492800Y-86113328D01*
X100368318Y-86125588D01*
X100248620Y-86161898D01*
X100138306Y-86220863D01*
X100041615Y-86300215D01*
X99962263Y-86396906D01*
X99903298Y-86507220D01*
X99866988Y-86626918D01*
X99854728Y-86751400D01*
X99403647Y-86751400D01*
X99400523Y-86746726D01*
X99257474Y-86603677D01*
X99089267Y-86491285D01*
X98902365Y-86413867D01*
X98703951Y-86374400D01*
X98501649Y-86374400D01*
X98303235Y-86413867D01*
X98116333Y-86491285D01*
X98066773Y-86524400D01*
X95131425Y-86524400D01*
X94310900Y-85703875D01*
X94310900Y-85426219D01*
X94340870Y-85417128D01*
X94406363Y-85382121D01*
X94463769Y-85335009D01*
X94510881Y-85277603D01*
X94545888Y-85212110D01*
X94567445Y-85141045D01*
X94574724Y-85067140D01*
X94574724Y-83543140D01*
X94567445Y-83469235D01*
X94545888Y-83398170D01*
X94510881Y-83332677D01*
X94463769Y-83275271D01*
X94406363Y-83228159D01*
X94340870Y-83193152D01*
X94269805Y-83171595D01*
X94195900Y-83164316D01*
X92671900Y-83164316D01*
X92597995Y-83171595D01*
X92526930Y-83193152D01*
X92461437Y-83228159D01*
X92404031Y-83275271D01*
X92356919Y-83332677D01*
X92321912Y-83398170D01*
X92300355Y-83469235D01*
X92293076Y-83543140D01*
X89644900Y-83543140D01*
X89644900Y-81652958D01*
X92294900Y-81652958D01*
X92294900Y-81877322D01*
X92338671Y-82097374D01*
X92424531Y-82304659D01*
X92549181Y-82491210D01*
X92707830Y-82649859D01*
X92894381Y-82774509D01*
X93101666Y-82860369D01*
X93321718Y-82904140D01*
X93546082Y-82904140D01*
X93766134Y-82860369D01*
X93973419Y-82774509D01*
X94159970Y-82649859D01*
X94318619Y-82491210D01*
X94443269Y-82304659D01*
X94529129Y-82097374D01*
X94572900Y-81877322D01*
X94572900Y-81652958D01*
X94529129Y-81432906D01*
X94443269Y-81225621D01*
X94318619Y-81039070D01*
X94159970Y-80880421D01*
X93973419Y-80755771D01*
X93766134Y-80669911D01*
X93546082Y-80626140D01*
X93321718Y-80626140D01*
X93101666Y-80669911D01*
X92894381Y-80755771D01*
X92707830Y-80880421D01*
X92549181Y-81039070D01*
X92424531Y-81225621D01*
X92338671Y-81432906D01*
X92294900Y-81652958D01*
X89644900Y-81652958D01*
X89644900Y-79112958D01*
X92294900Y-79112958D01*
X92294900Y-79337322D01*
X92338671Y-79557374D01*
X92424531Y-79764659D01*
X92549181Y-79951210D01*
X92707830Y-80109859D01*
X92894381Y-80234509D01*
X93101666Y-80320369D01*
X93321718Y-80364140D01*
X93546082Y-80364140D01*
X93766134Y-80320369D01*
X93973419Y-80234509D01*
X94159970Y-80109859D01*
X94318619Y-79951210D01*
X94443269Y-79764659D01*
X94529129Y-79557374D01*
X94572900Y-79337322D01*
X94572900Y-79112958D01*
X94529129Y-78892906D01*
X94443269Y-78685621D01*
X94318619Y-78499070D01*
X94159970Y-78340421D01*
X93973419Y-78215771D01*
X93766134Y-78129911D01*
X93546082Y-78086140D01*
X93321718Y-78086140D01*
X93101666Y-78129911D01*
X92894381Y-78215771D01*
X92707830Y-78340421D01*
X92549181Y-78499070D01*
X92424531Y-78685621D01*
X92338671Y-78892906D01*
X92294900Y-79112958D01*
X89644900Y-79112958D01*
X89644900Y-76572958D01*
X92294900Y-76572958D01*
X92294900Y-76797322D01*
X92338671Y-77017374D01*
X92424531Y-77224659D01*
X92549181Y-77411210D01*
X92707830Y-77569859D01*
X92894381Y-77694509D01*
X93101666Y-77780369D01*
X93321718Y-77824140D01*
X93546082Y-77824140D01*
X93766134Y-77780369D01*
X93973419Y-77694509D01*
X94159970Y-77569859D01*
X94318619Y-77411210D01*
X94443269Y-77224659D01*
X94529129Y-77017374D01*
X94572900Y-76797322D01*
X94572900Y-76572958D01*
X94529129Y-76352906D01*
X94443269Y-76145621D01*
X94318619Y-75959070D01*
X94159970Y-75800421D01*
X93973419Y-75675771D01*
X93766134Y-75589911D01*
X93546082Y-75546140D01*
X93321718Y-75546140D01*
X93101666Y-75589911D01*
X92894381Y-75675771D01*
X92707830Y-75800421D01*
X92549181Y-75959070D01*
X92424531Y-76145621D01*
X92338671Y-76352906D01*
X92294900Y-76572958D01*
X89644900Y-76572958D01*
X89644900Y-70334289D01*
X89683900Y-70334289D01*
X89683900Y-71097991D01*
X89832891Y-71847019D01*
X90125147Y-72552588D01*
X90549438Y-73187583D01*
X91089457Y-73727602D01*
X91724452Y-74151893D01*
X92430021Y-74444149D01*
X93179049Y-74593140D01*
X93942751Y-74593140D01*
X94691779Y-74444149D01*
X95397348Y-74151893D01*
X96032343Y-73727602D01*
X96572362Y-73187583D01*
X96996653Y-72552588D01*
X97288909Y-71847019D01*
X97437900Y-71097991D01*
X97437900Y-70334289D01*
X97288909Y-69585261D01*
X96996653Y-68879692D01*
X96572362Y-68244697D01*
X96032343Y-67704678D01*
X95397348Y-67280387D01*
X94691779Y-66988131D01*
X93942751Y-66839140D01*
X93179049Y-66839140D01*
X92430021Y-66988131D01*
X91724452Y-67280387D01*
X91089457Y-67704678D01*
X90549438Y-68244697D01*
X90125147Y-68879692D01*
X89832891Y-69585261D01*
X89683900Y-70334289D01*
X89644900Y-70334289D01*
X89644900Y-66800140D01*
X197806900Y-66800140D01*
X197806900Y-71502606D01*
X197806900Y-71502606D01*
G37*
X197806900Y-71502606D02*
X197687370Y-71502840D01*
X197767900Y-71097991D01*
X197767900Y-70334289D01*
X197618909Y-69585261D01*
X197326653Y-68879692D01*
X196902362Y-68244697D01*
X196362343Y-67704678D01*
X195727348Y-67280387D01*
X195021779Y-66988131D01*
X194272751Y-66839140D01*
X193509049Y-66839140D01*
X192760021Y-66988131D01*
X192054452Y-67280387D01*
X191419457Y-67704678D01*
X190879438Y-68244697D01*
X190455147Y-68879692D01*
X190162891Y-69585261D01*
X190013900Y-70334289D01*
X190013900Y-71097991D01*
X190097384Y-71517693D01*
X133730751Y-71628000D01*
X133705980Y-71630489D01*
X133682170Y-71637763D01*
X133660236Y-71649542D01*
X133641022Y-71665373D01*
X133625265Y-71684649D01*
X133613572Y-71706629D01*
X133606392Y-71730467D01*
X133604000Y-71755000D01*
X133604000Y-91964709D01*
X131630571Y-93938140D01*
X119494781Y-93938140D01*
X119468900Y-93935591D01*
X119443019Y-93938140D01*
X119365590Y-93945766D01*
X119266250Y-93975901D01*
X119174698Y-94024836D01*
X119094452Y-94090692D01*
X119077954Y-94110795D01*
X116444830Y-96743921D01*
X116457390Y-96720423D01*
X116478947Y-96649358D01*
X116486226Y-96575453D01*
X116478947Y-96501548D01*
X116457390Y-96430483D01*
X116422383Y-96364990D01*
X116375271Y-96307584D01*
X115685842Y-95618155D01*
X115628436Y-95571043D01*
X115562943Y-95536036D01*
X115491878Y-95514479D01*
X115417973Y-95507200D01*
X115344068Y-95514479D01*
X115273003Y-95536036D01*
X115207510Y-95571043D01*
X115150104Y-95618155D01*
X114160155Y-96608104D01*
X114113043Y-96665510D01*
X114078036Y-96731003D01*
X114056479Y-96802068D01*
X114053501Y-96832301D01*
X114023268Y-96835279D01*
X113952203Y-96856836D01*
X113886710Y-96891843D01*
X113829304Y-96938955D01*
X112839355Y-97928904D01*
X112792243Y-97986310D01*
X112757236Y-98051803D01*
X112735679Y-98122868D01*
X112728400Y-98196773D01*
X112735679Y-98270678D01*
X112757236Y-98341743D01*
X112792243Y-98407236D01*
X112839355Y-98464642D01*
X113528784Y-99154071D01*
X113586190Y-99201183D01*
X113651683Y-99236190D01*
X113722748Y-99257747D01*
X113796653Y-99265026D01*
X113870558Y-99257747D01*
X113941623Y-99236190D01*
X114007116Y-99201183D01*
X114064522Y-99154071D01*
X114720080Y-98498513D01*
X114797647Y-98498513D01*
X115276900Y-98977768D01*
X115276900Y-99603424D01*
X115246436Y-99557831D01*
X115138209Y-99449604D01*
X115010948Y-99364571D01*
X114869543Y-99305999D01*
X114719428Y-99276140D01*
X114566372Y-99276140D01*
X114416257Y-99305999D01*
X114274852Y-99364571D01*
X114147591Y-99449604D01*
X114039364Y-99557831D01*
X113954331Y-99685092D01*
X113895759Y-99826497D01*
X113865900Y-99976612D01*
X113865900Y-100129668D01*
X113895759Y-100279783D01*
X113954331Y-100421188D01*
X114039364Y-100548449D01*
X114147591Y-100656676D01*
X114274852Y-100741709D01*
X114416257Y-100800281D01*
X114566372Y-100830140D01*
X114651900Y-100830140D01*
X114651900Y-101941316D01*
X114528900Y-101941316D01*
X114454995Y-101948595D01*
X114383930Y-101970152D01*
X114318437Y-102005159D01*
X114261031Y-102052271D01*
X114213919Y-102109677D01*
X114178912Y-102175170D01*
X114157355Y-102246235D01*
X114150076Y-102320140D01*
X114150076Y-104320140D01*
X114151901Y-104338665D01*
X114151901Y-104470294D01*
X114075364Y-104546831D01*
X113990331Y-104674092D01*
X113953683Y-104762568D01*
X113947445Y-104699235D01*
X113925888Y-104628170D01*
X113890881Y-104562677D01*
X113843769Y-104505271D01*
X113786363Y-104458159D01*
X113720870Y-104423152D01*
X113649805Y-104401595D01*
X113575900Y-104394316D01*
X112583261Y-104394316D01*
X112575900Y-104393591D01*
X112568539Y-104394316D01*
X111575900Y-104394316D01*
X111557381Y-104396140D01*
X111270945Y-104396140D01*
X111201209Y-104326404D01*
X111073948Y-104241371D01*
X110932543Y-104182799D01*
X110782428Y-104152940D01*
X110629372Y-104152940D01*
X110479257Y-104182799D01*
X110337852Y-104241371D01*
X110210591Y-104326404D01*
X110102364Y-104434631D01*
X110017331Y-104561892D01*
X109958759Y-104703297D01*
X109928900Y-104853412D01*
X109928900Y-105006468D01*
X109958759Y-105156583D01*
X110017331Y-105297988D01*
X110102364Y-105425249D01*
X110210591Y-105533476D01*
X110337852Y-105618509D01*
X110479257Y-105677081D01*
X110629372Y-105706940D01*
X110782428Y-105706940D01*
X110932543Y-105677081D01*
X111073948Y-105618509D01*
X111197076Y-105536238D01*
X111197076Y-105573140D01*
X111204355Y-105647045D01*
X111212271Y-105673140D01*
X111204355Y-105699235D01*
X111197076Y-105773140D01*
X111197076Y-106073140D01*
X111204355Y-106147045D01*
X111212271Y-106173140D01*
X111204355Y-106199235D01*
X111197076Y-106273140D01*
X111197076Y-106318711D01*
X111193589Y-106315224D01*
X111066328Y-106230191D01*
X110924923Y-106171619D01*
X110774808Y-106141760D01*
X110621752Y-106141760D01*
X110471637Y-106171619D01*
X110330232Y-106230191D01*
X110202971Y-106315224D01*
X110094744Y-106423451D01*
X110009711Y-106550712D01*
X109951139Y-106692117D01*
X109921280Y-106842232D01*
X109921280Y-106995288D01*
X109951139Y-107145403D01*
X110009711Y-107286808D01*
X110094744Y-107414069D01*
X110202971Y-107522296D01*
X110257028Y-107558416D01*
X109586800Y-107558416D01*
X109512895Y-107565695D01*
X109441830Y-107587252D01*
X109376337Y-107622259D01*
X109318931Y-107669371D01*
X109271819Y-107726777D01*
X109236812Y-107792270D01*
X109215255Y-107863335D01*
X109207976Y-107937240D01*
X109207976Y-108912240D01*
X109215255Y-108986145D01*
X109236812Y-109057210D01*
X109271819Y-109122703D01*
X109318931Y-109180109D01*
X109376337Y-109227221D01*
X109441830Y-109262228D01*
X109512895Y-109283785D01*
X109586800Y-109291064D01*
X110986800Y-109291064D01*
X111060705Y-109283785D01*
X111131770Y-109262228D01*
X111197263Y-109227221D01*
X111201980Y-109223350D01*
X111197076Y-109273140D01*
X111197076Y-109497159D01*
X111131770Y-109462252D01*
X111060705Y-109440695D01*
X110986800Y-109433416D01*
X109586800Y-109433416D01*
X109512895Y-109440695D01*
X109441830Y-109462252D01*
X109376337Y-109497259D01*
X109318931Y-109544371D01*
X109314082Y-109550280D01*
X108966221Y-109550280D01*
X108839328Y-109525040D01*
X108686272Y-109525040D01*
X108536157Y-109554899D01*
X108394752Y-109613471D01*
X108267491Y-109698504D01*
X108159264Y-109806731D01*
X108074231Y-109933992D01*
X108015659Y-110075397D01*
X107985800Y-110225512D01*
X107985800Y-110378568D01*
X108015659Y-110528683D01*
X108074231Y-110670088D01*
X108159264Y-110797349D01*
X108267491Y-110905576D01*
X108394752Y-110990609D01*
X108536157Y-111049181D01*
X108601489Y-111062176D01*
X108214100Y-111062176D01*
X108140195Y-111069455D01*
X108069130Y-111091012D01*
X108003637Y-111126019D01*
X107946231Y-111173131D01*
X107899119Y-111230537D01*
X107879875Y-111266540D01*
X107398921Y-111266540D01*
X107270078Y-111279230D01*
X107104763Y-111329378D01*
X106952408Y-111410813D01*
X106818867Y-111520407D01*
X106709273Y-111653948D01*
X106627838Y-111806303D01*
X106577690Y-111971618D01*
X106560757Y-112143540D01*
X106577690Y-112315462D01*
X106627838Y-112480777D01*
X106709273Y-112633132D01*
X106818867Y-112766673D01*
X106952408Y-112876267D01*
X107104763Y-112957702D01*
X107270078Y-113007850D01*
X107398921Y-113020540D01*
X107882590Y-113020540D01*
X107899119Y-113051463D01*
X107935799Y-113096157D01*
X107911819Y-113125377D01*
X107893933Y-113158840D01*
X107398921Y-113158840D01*
X107270078Y-113171530D01*
X107104763Y-113221678D01*
X106952408Y-113303113D01*
X106818867Y-113412707D01*
X106709273Y-113546248D01*
X106627838Y-113698603D01*
X106577690Y-113863918D01*
X106560757Y-114035840D01*
X106577690Y-114207762D01*
X106627838Y-114373077D01*
X106709273Y-114525432D01*
X106818867Y-114658973D01*
X106952408Y-114768567D01*
X107104763Y-114850002D01*
X107270078Y-114900150D01*
X107398921Y-114912840D01*
X107893933Y-114912840D01*
X107911819Y-114946303D01*
X107958931Y-115003709D01*
X108016337Y-115050821D01*
X108081830Y-115085828D01*
X108152895Y-115107385D01*
X108226800Y-115114664D01*
X109201800Y-115114664D01*
X109275705Y-115107385D01*
X109346770Y-115085828D01*
X109412263Y-115050821D01*
X109469669Y-115003709D01*
X109516781Y-114946303D01*
X109551788Y-114880810D01*
X109573345Y-114809745D01*
X109580624Y-114735840D01*
X109580624Y-113335840D01*
X109573345Y-113261935D01*
X109551788Y-113190870D01*
X109516781Y-113125377D01*
X109480101Y-113080683D01*
X109504081Y-113051463D01*
X109539088Y-112985970D01*
X109560645Y-112914905D01*
X109567924Y-112841000D01*
X109567924Y-111441000D01*
X109560645Y-111367095D01*
X109539088Y-111296030D01*
X109504081Y-111230537D01*
X109456969Y-111173131D01*
X109399563Y-111126019D01*
X109334070Y-111091012D01*
X109263005Y-111069455D01*
X109189100Y-111062176D01*
X108924111Y-111062176D01*
X108963808Y-111054280D01*
X109318251Y-111054280D01*
X109318931Y-111055109D01*
X109376337Y-111102221D01*
X109441830Y-111137228D01*
X109512895Y-111158785D01*
X109586800Y-111166064D01*
X110986800Y-111166064D01*
X111060705Y-111158785D01*
X111131770Y-111137228D01*
X111197263Y-111102221D01*
X111254669Y-111055109D01*
X111301781Y-110997703D01*
X111336788Y-110932210D01*
X111358345Y-110861145D01*
X111365624Y-110787240D01*
X111365624Y-110388221D01*
X111430930Y-110423128D01*
X111501995Y-110444685D01*
X111575900Y-110451964D01*
X113575900Y-110451964D01*
X113594419Y-110450140D01*
X113715895Y-110450140D01*
X113792431Y-110526676D01*
X113919692Y-110611709D01*
X114010120Y-110649166D01*
X113954995Y-110654595D01*
X113883930Y-110676152D01*
X113818437Y-110711159D01*
X113761031Y-110758271D01*
X113713919Y-110815677D01*
X113678912Y-110881170D01*
X113657355Y-110952235D01*
X113650076Y-111026140D01*
X113650076Y-113026140D01*
X113657355Y-113100045D01*
X113678912Y-113171110D01*
X113713919Y-113236603D01*
X113761031Y-113294009D01*
X113818437Y-113341121D01*
X113883930Y-113376128D01*
X113954995Y-113397685D01*
X114028900Y-113404964D01*
X114328900Y-113404964D01*
X114402805Y-113397685D01*
X114428900Y-113389769D01*
X114454995Y-113397685D01*
X114528900Y-113404964D01*
X114828900Y-113404964D01*
X114902805Y-113397685D01*
X114928900Y-113389769D01*
X114954995Y-113397685D01*
X115028900Y-113404964D01*
X115304787Y-113404964D01*
X115175511Y-113534240D01*
X112641581Y-113534240D01*
X112615700Y-113531691D01*
X112589819Y-113534240D01*
X112512390Y-113541866D01*
X112413050Y-113572001D01*
X112321498Y-113620936D01*
X112241252Y-113686792D01*
X112224749Y-113706901D01*
X111852461Y-114079189D01*
X111832353Y-114095692D01*
X111777039Y-114163092D01*
X111766496Y-114175939D01*
X111717561Y-114267491D01*
X111694423Y-114343766D01*
X111645395Y-114348595D01*
X111574330Y-114370152D01*
X111508837Y-114405159D01*
X111451431Y-114452271D01*
X111404319Y-114509677D01*
X111369312Y-114575170D01*
X111347755Y-114646235D01*
X111340476Y-114720140D01*
X111340476Y-116120140D01*
X111347755Y-116194045D01*
X111369312Y-116265110D01*
X111392353Y-116308216D01*
X110454100Y-116308216D01*
X110380195Y-116315495D01*
X110309130Y-116337052D01*
X110243637Y-116372059D01*
X110197357Y-116410040D01*
X109672221Y-116410040D01*
X109543378Y-116422730D01*
X109378063Y-116472878D01*
X109225708Y-116554313D01*
X109092167Y-116663907D01*
X108982573Y-116797448D01*
X108901138Y-116949803D01*
X108850990Y-117115118D01*
X108834057Y-117287040D01*
X108850990Y-117458962D01*
X108901138Y-117624277D01*
X108982573Y-117776632D01*
X109092167Y-117910173D01*
X109225708Y-118019767D01*
X109378063Y-118101202D01*
X109543378Y-118151350D01*
X109672221Y-118164040D01*
X110197357Y-118164040D01*
X110243637Y-118202021D01*
X110309130Y-118237028D01*
X110380195Y-118258585D01*
X110454100Y-118265864D01*
X112254100Y-118265864D01*
X112328005Y-118258585D01*
X112399070Y-118237028D01*
X112417300Y-118227284D01*
X112417300Y-118746796D01*
X112399070Y-118737052D01*
X112328005Y-118715495D01*
X112254100Y-118708216D01*
X110454100Y-118708216D01*
X110380195Y-118715495D01*
X110309130Y-118737052D01*
X110243637Y-118772059D01*
X110200087Y-118807800D01*
X110142207Y-118807800D01*
X110124321Y-118774337D01*
X110077209Y-118716931D01*
X110019803Y-118669819D01*
X109954310Y-118634812D01*
X109883245Y-118613255D01*
X109809340Y-118605976D01*
X108834340Y-118605976D01*
X108760435Y-118613255D01*
X108689370Y-118634812D01*
X108623877Y-118669819D01*
X108566471Y-118716931D01*
X108519359Y-118774337D01*
X108484352Y-118839830D01*
X108462795Y-118910895D01*
X108455516Y-118984800D01*
X108455516Y-119533326D01*
X108440597Y-119684800D01*
X108455516Y-119836274D01*
X108455516Y-120384800D01*
X108462795Y-120458705D01*
X108484352Y-120529770D01*
X108519359Y-120595263D01*
X108566471Y-120652669D01*
X108623877Y-120699781D01*
X108689370Y-120734788D01*
X108760435Y-120756345D01*
X108834340Y-120763624D01*
X109809340Y-120763624D01*
X109883245Y-120756345D01*
X109954310Y-120734788D01*
X110019803Y-120699781D01*
X110077209Y-120652669D01*
X110124321Y-120595263D01*
X110142207Y-120561800D01*
X110194628Y-120561800D01*
X110243637Y-120602021D01*
X110309130Y-120637028D01*
X110380195Y-120658585D01*
X110454100Y-120665864D01*
X112254100Y-120665864D01*
X112328005Y-120658585D01*
X112399070Y-120637028D01*
X112464563Y-120602021D01*
X112521969Y-120554909D01*
X112569081Y-120497503D01*
X112604088Y-120432010D01*
X112625645Y-120360945D01*
X112632924Y-120287040D01*
X112632924Y-120212111D01*
X112690770Y-120206414D01*
X112790110Y-120176279D01*
X112881662Y-120127344D01*
X112960211Y-120062880D01*
X113021173Y-120176932D01*
X113130767Y-120310473D01*
X113264308Y-120420067D01*
X113416663Y-120501502D01*
X113581978Y-120551650D01*
X113710821Y-120564340D01*
X114197723Y-120564340D01*
X114243637Y-120602021D01*
X114309130Y-120637028D01*
X114380195Y-120658585D01*
X114454100Y-120665864D01*
X116254100Y-120665864D01*
X116328005Y-120658585D01*
X116399070Y-120637028D01*
X116464563Y-120602021D01*
X116521969Y-120554909D01*
X116569081Y-120497503D01*
X116604088Y-120432010D01*
X116625645Y-120360945D01*
X116632924Y-120287040D01*
X116632924Y-119955329D01*
X116640737Y-119961741D01*
X116706230Y-119996748D01*
X116777295Y-120018305D01*
X116851200Y-120025584D01*
X118251200Y-120025584D01*
X118325105Y-120018305D01*
X118396170Y-119996748D01*
X118461663Y-119961741D01*
X118514182Y-119918640D01*
X118911085Y-119918640D01*
X119036772Y-119943640D01*
X119189828Y-119943640D01*
X119339943Y-119913781D01*
X119481348Y-119855209D01*
X119608609Y-119770176D01*
X119716836Y-119661949D01*
X119801869Y-119534688D01*
X119860441Y-119393283D01*
X119890300Y-119243168D01*
X119890300Y-119090112D01*
X119860441Y-118939997D01*
X119801869Y-118798592D01*
X119716836Y-118671331D01*
X119608609Y-118563104D01*
X119481348Y-118478071D01*
X119339943Y-118419499D01*
X119189828Y-118389640D01*
X119036772Y-118389640D01*
X118911085Y-118414640D01*
X118527890Y-118414640D01*
X118519069Y-118403891D01*
X118461663Y-118356779D01*
X118396170Y-118321772D01*
X118325105Y-118300215D01*
X118251200Y-118292936D01*
X116851200Y-118292936D01*
X116777295Y-118300215D01*
X116706230Y-118321772D01*
X116640737Y-118356779D01*
X116583331Y-118403891D01*
X116536219Y-118461297D01*
X116501212Y-118526790D01*
X116479655Y-118597855D01*
X116472376Y-118671760D01*
X116472376Y-118778471D01*
X116464563Y-118772059D01*
X116399070Y-118737052D01*
X116328005Y-118715495D01*
X116254100Y-118708216D01*
X114454100Y-118708216D01*
X114380195Y-118715495D01*
X114309130Y-118737052D01*
X114243637Y-118772059D01*
X114196992Y-118810340D01*
X113710821Y-118810340D01*
X113581978Y-118823030D01*
X113471300Y-118856604D01*
X113471300Y-116476792D01*
X113520395Y-116491685D01*
X113594300Y-116498964D01*
X114127153Y-116498964D01*
X114104112Y-116542070D01*
X114082555Y-116613135D01*
X114075276Y-116687040D01*
X114075276Y-117887040D01*
X114082555Y-117960945D01*
X114104112Y-118032010D01*
X114139119Y-118097503D01*
X114186231Y-118154909D01*
X114243637Y-118202021D01*
X114309130Y-118237028D01*
X114380195Y-118258585D01*
X114454100Y-118265864D01*
X116254100Y-118265864D01*
X116328005Y-118258585D01*
X116399070Y-118237028D01*
X116464563Y-118202021D01*
X116514230Y-118161260D01*
X117508121Y-118161260D01*
X117551200Y-118165503D01*
X117594279Y-118161260D01*
X117702674Y-118150584D01*
X118251200Y-118150584D01*
X118325105Y-118143305D01*
X118396170Y-118121748D01*
X118461663Y-118086741D01*
X118519069Y-118039629D01*
X118566181Y-117982223D01*
X118601188Y-117916730D01*
X118622745Y-117845665D01*
X118630024Y-117771760D01*
X118630024Y-116796760D01*
X118622745Y-116722855D01*
X118601188Y-116651790D01*
X118566181Y-116586297D01*
X118519069Y-116528891D01*
X118461663Y-116481779D01*
X118428200Y-116463893D01*
X118428200Y-115733600D01*
X120299536Y-115733600D01*
X120299536Y-117133600D01*
X120306815Y-117207505D01*
X120328372Y-117278570D01*
X120363379Y-117344063D01*
X120410491Y-117401469D01*
X120467897Y-117448581D01*
X120533390Y-117483588D01*
X120604455Y-117505145D01*
X120678360Y-117512424D01*
X121653360Y-117512424D01*
X121727265Y-117505145D01*
X121798330Y-117483588D01*
X121863823Y-117448581D01*
X121921229Y-117401469D01*
X121968341Y-117344063D01*
X121984870Y-117313140D01*
X122471079Y-117313140D01*
X122599922Y-117300450D01*
X122765237Y-117250302D01*
X122917592Y-117168867D01*
X123051133Y-117059273D01*
X123160727Y-116925732D01*
X123242162Y-116773377D01*
X123292310Y-116608062D01*
X123309243Y-116436140D01*
X123292310Y-116264218D01*
X123242162Y-116098903D01*
X123160727Y-115946548D01*
X123051133Y-115813007D01*
X122917592Y-115703413D01*
X122765237Y-115621978D01*
X122599922Y-115571830D01*
X122471079Y-115559140D01*
X121987585Y-115559140D01*
X121968341Y-115523137D01*
X121936154Y-115483917D01*
X121970881Y-115441603D01*
X121988767Y-115408140D01*
X122471079Y-115408140D01*
X122599922Y-115395450D01*
X122765237Y-115345302D01*
X122917592Y-115263867D01*
X123051133Y-115154273D01*
X123160727Y-115020732D01*
X123242162Y-114868377D01*
X123292310Y-114703062D01*
X123309243Y-114531140D01*
X123292310Y-114359218D01*
X123242162Y-114193903D01*
X123160727Y-114041548D01*
X123051133Y-113908007D01*
X122917592Y-113798413D01*
X122765237Y-113716978D01*
X122599922Y-113666830D01*
X122471079Y-113654140D01*
X121988767Y-113654140D01*
X121970881Y-113620677D01*
X121923769Y-113563271D01*
X121866363Y-113516159D01*
X121800870Y-113481152D01*
X121729805Y-113459595D01*
X121655900Y-113452316D01*
X120680900Y-113452316D01*
X120606995Y-113459595D01*
X120535930Y-113481152D01*
X120470437Y-113516159D01*
X120413031Y-113563271D01*
X120365919Y-113620677D01*
X120330912Y-113686170D01*
X120309355Y-113757235D01*
X120302076Y-113831140D01*
X120302076Y-115231140D01*
X120309355Y-115305045D01*
X120330912Y-115376110D01*
X120365919Y-115441603D01*
X120398106Y-115480823D01*
X120363379Y-115523137D01*
X120328372Y-115588630D01*
X120306815Y-115659695D01*
X120299536Y-115733600D01*
X118428200Y-115733600D01*
X118428200Y-115379361D01*
X118415510Y-115250518D01*
X118415224Y-115249575D01*
X118415224Y-114720140D01*
X118407945Y-114646235D01*
X118386388Y-114575170D01*
X118351381Y-114509677D01*
X118304269Y-114452271D01*
X118246863Y-114405159D01*
X118181370Y-114370152D01*
X118110305Y-114348595D01*
X118036400Y-114341316D01*
X117061400Y-114341316D01*
X116987495Y-114348595D01*
X116916430Y-114370152D01*
X116850937Y-114405159D01*
X116793531Y-114452271D01*
X116746419Y-114509677D01*
X116711412Y-114575170D01*
X116689855Y-114646235D01*
X116682576Y-114720140D01*
X116682576Y-115294329D01*
X116674201Y-115379361D01*
X116674200Y-116407260D01*
X116507455Y-116407260D01*
X116464563Y-116372059D01*
X116449129Y-116363809D01*
X116476381Y-116330603D01*
X116511388Y-116265110D01*
X116532945Y-116194045D01*
X116540224Y-116120140D01*
X116540224Y-115571614D01*
X116555143Y-115420140D01*
X116540224Y-115268666D01*
X116540224Y-114720140D01*
X116532945Y-114646235D01*
X116511388Y-114575170D01*
X116476381Y-114509677D01*
X116432780Y-114456549D01*
X117033244Y-113856087D01*
X117053348Y-113839588D01*
X117119204Y-113759342D01*
X117168139Y-113667790D01*
X117198274Y-113568450D01*
X117205900Y-113491021D01*
X117205900Y-113491020D01*
X117208449Y-113465140D01*
X117205900Y-113439259D01*
X117205900Y-113404964D01*
X117328900Y-113404964D01*
X117402805Y-113397685D01*
X117428900Y-113389769D01*
X117454995Y-113397685D01*
X117528900Y-113404964D01*
X117828900Y-113404964D01*
X117902805Y-113397685D01*
X117973870Y-113376128D01*
X118039363Y-113341121D01*
X118096769Y-113294009D01*
X118143881Y-113236603D01*
X118178888Y-113171110D01*
X118178900Y-113171070D01*
X118178912Y-113171110D01*
X118213919Y-113236603D01*
X118261031Y-113294009D01*
X118318437Y-113341121D01*
X118383930Y-113376128D01*
X118454995Y-113397685D01*
X118528900Y-113404964D01*
X118828900Y-113404964D01*
X118902805Y-113397685D01*
X118928900Y-113389769D01*
X118954995Y-113397685D01*
X119028900Y-113404964D01*
X119328900Y-113404964D01*
X119402805Y-113397685D01*
X119428900Y-113389769D01*
X119454995Y-113397685D01*
X119528900Y-113404964D01*
X119828900Y-113404964D01*
X119902805Y-113397685D01*
X119973870Y-113376128D01*
X120039363Y-113341121D01*
X120096769Y-113294009D01*
X120143881Y-113236603D01*
X120178888Y-113171110D01*
X120200445Y-113100045D01*
X120207724Y-113026140D01*
X120207724Y-111026140D01*
X120200445Y-110952235D01*
X120197158Y-110941398D01*
X120207995Y-110944685D01*
X120281900Y-110951964D01*
X122281900Y-110951964D01*
X122355805Y-110944685D01*
X122426870Y-110923128D01*
X122492363Y-110888121D01*
X122549769Y-110841009D01*
X122596881Y-110783603D01*
X122631888Y-110718110D01*
X122653445Y-110647045D01*
X122660724Y-110573140D01*
X122660724Y-110273140D01*
X122653445Y-110199235D01*
X122645529Y-110173140D01*
X122653445Y-110147045D01*
X122658053Y-110100264D01*
X122668591Y-110207262D01*
X122718739Y-110372577D01*
X122800174Y-110524932D01*
X122909768Y-110658473D01*
X123043309Y-110768067D01*
X123195664Y-110849502D01*
X123360979Y-110899650D01*
X123532900Y-110916583D01*
X123704822Y-110899650D01*
X123870137Y-110849502D01*
X124022492Y-110768067D01*
X124156033Y-110658473D01*
X124265627Y-110524932D01*
X124347062Y-110372577D01*
X124397210Y-110207262D01*
X124409900Y-110078419D01*
X124409900Y-109621507D01*
X124443363Y-109603621D01*
X124500769Y-109556509D01*
X124547881Y-109499103D01*
X124582888Y-109433610D01*
X124604445Y-109362545D01*
X124611724Y-109288640D01*
X124611724Y-108313640D01*
X124604445Y-108239735D01*
X124582888Y-108168670D01*
X124547881Y-108103177D01*
X124500769Y-108045771D01*
X124443363Y-107998659D01*
X124377870Y-107963652D01*
X124306805Y-107942095D01*
X124232900Y-107934816D01*
X123684373Y-107934816D01*
X123532900Y-107919897D01*
X123381426Y-107934816D01*
X122832900Y-107934816D01*
X122758995Y-107942095D01*
X122687930Y-107963652D01*
X122660724Y-107978194D01*
X122660724Y-107773140D01*
X122658223Y-107747749D01*
X122687930Y-107763628D01*
X122758995Y-107785185D01*
X122832900Y-107792464D01*
X124232900Y-107792464D01*
X124306805Y-107785185D01*
X124377870Y-107763628D01*
X124443363Y-107728621D01*
X124500769Y-107681509D01*
X124547881Y-107624103D01*
X124582888Y-107558610D01*
X124604445Y-107487545D01*
X124611724Y-107413640D01*
X124611724Y-106438640D01*
X124604445Y-106364735D01*
X124582888Y-106293670D01*
X124547881Y-106228177D01*
X124500769Y-106170771D01*
X124443363Y-106123659D01*
X124377870Y-106088652D01*
X124306805Y-106067095D01*
X124232900Y-106059816D01*
X122832900Y-106059816D01*
X122758995Y-106067095D01*
X122687930Y-106088652D01*
X122657599Y-106104864D01*
X122660724Y-106073140D01*
X122660724Y-105773140D01*
X122653445Y-105699235D01*
X122645529Y-105673140D01*
X122653445Y-105647045D01*
X122660724Y-105573140D01*
X122660724Y-105273140D01*
X122653445Y-105199235D01*
X122631888Y-105128170D01*
X122596881Y-105062677D01*
X122549769Y-105005271D01*
X122492363Y-104958159D01*
X122426870Y-104923152D01*
X122355805Y-104901595D01*
X122281900Y-104894316D01*
X120281900Y-104894316D01*
X120263381Y-104896140D01*
X120119045Y-104896140D01*
X120042509Y-104819604D01*
X119915248Y-104734571D01*
X119829211Y-104698933D01*
X119902805Y-104691685D01*
X119973870Y-104670128D01*
X120039363Y-104635121D01*
X120096769Y-104588009D01*
X120143881Y-104530603D01*
X120178888Y-104465110D01*
X120200445Y-104394045D01*
X120207724Y-104320140D01*
X120207724Y-102560060D01*
X122451536Y-102560060D01*
X122451536Y-103535060D01*
X122458815Y-103608965D01*
X122480372Y-103680030D01*
X122515379Y-103745523D01*
X122562491Y-103802929D01*
X122619897Y-103850041D01*
X122685390Y-103885048D01*
X122756455Y-103906605D01*
X122830360Y-103913884D01*
X124230360Y-103913884D01*
X124304265Y-103906605D01*
X124375330Y-103885048D01*
X124440823Y-103850041D01*
X124481313Y-103816812D01*
X124524897Y-103852581D01*
X124590390Y-103887588D01*
X124661455Y-103909145D01*
X124735360Y-103916424D01*
X126135360Y-103916424D01*
X126209265Y-103909145D01*
X126280330Y-103887588D01*
X126345823Y-103852581D01*
X126403229Y-103805469D01*
X126450341Y-103748063D01*
X126485348Y-103682570D01*
X126506905Y-103611505D01*
X126514184Y-103537600D01*
X126514184Y-102562600D01*
X126506905Y-102488695D01*
X126485348Y-102417630D01*
X126450341Y-102352137D01*
X126403229Y-102294731D01*
X126345823Y-102247619D01*
X126309820Y-102228375D01*
X126309820Y-101749961D01*
X126297130Y-101621118D01*
X126246982Y-101455803D01*
X126165547Y-101303448D01*
X126055953Y-101169907D01*
X125922412Y-101060313D01*
X125770057Y-100978878D01*
X125604742Y-100928730D01*
X125432820Y-100911797D01*
X125260899Y-100928730D01*
X125095584Y-100978878D01*
X124943229Y-101060313D01*
X124809688Y-101169907D01*
X124700094Y-101303448D01*
X124618659Y-101455803D01*
X124568511Y-101621118D01*
X124555821Y-101749961D01*
X124555821Y-102231090D01*
X124524897Y-102247619D01*
X124484407Y-102280848D01*
X124440823Y-102245079D01*
X124404820Y-102225835D01*
X124404820Y-101749961D01*
X124392130Y-101621118D01*
X124341982Y-101455803D01*
X124260547Y-101303448D01*
X124150953Y-101169907D01*
X124017412Y-101060313D01*
X123865057Y-100978878D01*
X123699742Y-100928730D01*
X123527820Y-100911797D01*
X123355899Y-100928730D01*
X123190584Y-100978878D01*
X123038229Y-101060313D01*
X122904688Y-101169907D01*
X122795094Y-101303448D01*
X122713659Y-101455803D01*
X122663511Y-101621118D01*
X122650821Y-101749961D01*
X122650821Y-102228550D01*
X122619897Y-102245079D01*
X122562491Y-102292191D01*
X122515379Y-102349597D01*
X122480372Y-102415090D01*
X122458815Y-102486155D01*
X122451536Y-102560060D01*
X120207724Y-102560060D01*
X120207724Y-102320140D01*
X120200445Y-102246235D01*
X120178888Y-102175170D01*
X120143881Y-102109677D01*
X120096769Y-102052271D01*
X120039363Y-102005159D01*
X119973870Y-101970152D01*
X119902805Y-101948595D01*
X119828900Y-101941316D01*
X119705900Y-101941316D01*
X119705900Y-101577429D01*
X120957190Y-100326140D01*
X126362611Y-100326140D01*
X133604000Y-107567530D01*
X133604000Y-119507000D01*
X133606440Y-119531776D01*
X133613667Y-119555601D01*
X133625403Y-119577557D01*
X133641197Y-119596803D01*
X133660443Y-119612597D01*
X133682399Y-119624333D01*
X133706224Y-119631560D01*
X133731249Y-119634000D01*
X190013900Y-119523858D01*
X190013900Y-119611991D01*
X190162891Y-120361019D01*
X190455147Y-121066588D01*
X190879438Y-121701583D01*
X191419457Y-122241602D01*
X192054452Y-122665893D01*
X192760021Y-122958149D01*
X193509049Y-123107140D01*
X194272751Y-123107140D01*
X195021779Y-122958149D01*
X195727348Y-122665893D01*
X196362343Y-122241602D01*
X196902362Y-121701583D01*
X197326653Y-121066588D01*
X197618909Y-120361019D01*
X197767900Y-119611991D01*
X197767900Y-119508684D01*
X197806901Y-119508607D01*
X197806901Y-123146140D01*
X89644900Y-123146140D01*
X89644900Y-118848289D01*
X89683900Y-118848289D01*
X89683900Y-119611991D01*
X89832891Y-120361019D01*
X90125147Y-121066588D01*
X90549438Y-121701583D01*
X91089457Y-122241602D01*
X91724452Y-122665893D01*
X92430021Y-122958149D01*
X93179049Y-123107140D01*
X93942751Y-123107140D01*
X94691779Y-122958149D01*
X95397348Y-122665893D01*
X96032343Y-122241602D01*
X96572362Y-121701583D01*
X96996653Y-121066588D01*
X97288909Y-120361019D01*
X97425438Y-119674640D01*
X105303457Y-119674640D01*
X105320390Y-119846562D01*
X105370538Y-120011877D01*
X105451973Y-120164232D01*
X105561567Y-120297773D01*
X105695108Y-120407367D01*
X105847463Y-120488802D01*
X106012778Y-120538950D01*
X106141621Y-120551640D01*
X106621042Y-120551640D01*
X106644359Y-120595263D01*
X106691471Y-120652669D01*
X106748877Y-120699781D01*
X106814370Y-120734788D01*
X106885435Y-120756345D01*
X106959340Y-120763624D01*
X107934340Y-120763624D01*
X108008245Y-120756345D01*
X108079310Y-120734788D01*
X108144803Y-120699781D01*
X108202209Y-120652669D01*
X108249321Y-120595263D01*
X108284328Y-120529770D01*
X108305885Y-120458705D01*
X108313164Y-120384800D01*
X108313164Y-118984800D01*
X108305885Y-118910895D01*
X108284328Y-118839830D01*
X108249321Y-118774337D01*
X108202209Y-118716931D01*
X108144803Y-118669819D01*
X108079310Y-118634812D01*
X108008245Y-118613255D01*
X107934340Y-118605976D01*
X106959340Y-118605976D01*
X106885435Y-118613255D01*
X106814370Y-118634812D01*
X106748877Y-118669819D01*
X106691471Y-118716931D01*
X106644359Y-118774337D01*
X106631903Y-118797640D01*
X106141621Y-118797640D01*
X106012778Y-118810330D01*
X105847463Y-118860478D01*
X105695108Y-118941913D01*
X105561567Y-119051507D01*
X105451973Y-119185048D01*
X105370538Y-119337403D01*
X105320390Y-119502718D01*
X105303457Y-119674640D01*
X97425438Y-119674640D01*
X97437900Y-119611991D01*
X97437900Y-118848289D01*
X97288909Y-118099261D01*
X96996653Y-117393692D01*
X96572362Y-116758697D01*
X96032343Y-116218678D01*
X95397348Y-115794387D01*
X94691779Y-115502131D01*
X93942751Y-115353140D01*
X93179049Y-115353140D01*
X92430021Y-115502131D01*
X91724452Y-115794387D01*
X91089457Y-116218678D01*
X90549438Y-116758697D01*
X90125147Y-117393692D01*
X89832891Y-118099261D01*
X89683900Y-118848289D01*
X89644900Y-118848289D01*
X89644900Y-113424740D01*
X99478676Y-113424740D01*
X99478676Y-114824740D01*
X99485955Y-114898645D01*
X99507512Y-114969710D01*
X99542519Y-115035203D01*
X99589631Y-115092609D01*
X99647037Y-115139721D01*
X99712530Y-115174728D01*
X99783595Y-115196285D01*
X99788677Y-115196786D01*
X99770512Y-115230770D01*
X99748955Y-115301835D01*
X99741676Y-115375740D01*
X99741676Y-116175740D01*
X99748955Y-116249645D01*
X99770512Y-116320710D01*
X99805519Y-116386203D01*
X99852631Y-116443609D01*
X99910037Y-116490721D01*
X99975530Y-116525728D01*
X100046595Y-116547285D01*
X100120500Y-116554564D01*
X100920500Y-116554564D01*
X100994405Y-116547285D01*
X101065470Y-116525728D01*
X101130963Y-116490721D01*
X101188369Y-116443609D01*
X101235481Y-116386203D01*
X101250750Y-116357637D01*
X101266019Y-116386203D01*
X101313131Y-116443609D01*
X101370537Y-116490721D01*
X101436030Y-116525728D01*
X101507095Y-116547285D01*
X101581000Y-116554564D01*
X102381000Y-116554564D01*
X102454905Y-116547285D01*
X102510964Y-116530280D01*
X102881145Y-116530280D01*
X103006832Y-116555280D01*
X103159888Y-116555280D01*
X103310003Y-116525421D01*
X103451408Y-116466849D01*
X103578669Y-116381816D01*
X103686896Y-116273589D01*
X103771929Y-116146328D01*
X103830501Y-116004923D01*
X103860360Y-115854808D01*
X103860360Y-115701752D01*
X103830501Y-115551637D01*
X103771929Y-115410232D01*
X103686896Y-115282971D01*
X103578669Y-115174744D01*
X103451408Y-115089711D01*
X103310003Y-115031139D01*
X103159888Y-115001280D01*
X103006832Y-115001280D01*
X102881145Y-115026280D01*
X102526958Y-115026280D01*
X102525970Y-115025752D01*
X102454905Y-115004195D01*
X102381000Y-114996916D01*
X101581000Y-114996916D01*
X101507095Y-115004195D01*
X101436030Y-115025752D01*
X101370537Y-115060759D01*
X101313131Y-115107871D01*
X101266019Y-115165277D01*
X101250750Y-115193843D01*
X101235481Y-115165277D01*
X101188369Y-115107871D01*
X101130963Y-115060759D01*
X101127866Y-115059104D01*
X101147481Y-115035203D01*
X101182488Y-114969710D01*
X101204045Y-114898645D01*
X101211324Y-114824740D01*
X101211324Y-113424740D01*
X101204045Y-113350835D01*
X101182488Y-113279770D01*
X101147481Y-113214277D01*
X101100369Y-113156871D01*
X101042963Y-113109759D01*
X100977470Y-113074752D01*
X100906405Y-113053195D01*
X100832500Y-113045916D01*
X99857500Y-113045916D01*
X99783595Y-113053195D01*
X99712530Y-113074752D01*
X99647037Y-113109759D01*
X99589631Y-113156871D01*
X99542519Y-113214277D01*
X99507512Y-113279770D01*
X99485955Y-113350835D01*
X99478676Y-113424740D01*
X89644900Y-113424740D01*
X89644900Y-99414140D01*
X94265000Y-99414140D01*
X94265000Y-100862976D01*
X93910494Y-100862976D01*
X93802099Y-100852300D01*
X92243032Y-100852300D01*
X92176600Y-100845757D01*
X92004678Y-100862690D01*
X91839364Y-100912838D01*
X91687008Y-100994274D01*
X91553468Y-101103868D01*
X91443874Y-101237408D01*
X91362438Y-101389764D01*
X91312290Y-101555078D01*
X91295357Y-101727000D01*
X91312290Y-101898922D01*
X91362438Y-102064236D01*
X91443874Y-102216592D01*
X91526006Y-102316671D01*
X91528303Y-102318968D01*
X91555767Y-102352433D01*
X91689308Y-102462027D01*
X91841663Y-102543462D01*
X91989622Y-102588345D01*
X92006978Y-102593610D01*
X92178900Y-102610543D01*
X92221979Y-102606300D01*
X93802099Y-102606300D01*
X93910494Y-102595624D01*
X94328614Y-102595624D01*
X94345389Y-102627007D01*
X94391752Y-102683500D01*
X92837000Y-102683500D01*
X92763451Y-102690744D01*
X92692728Y-102712197D01*
X92627550Y-102747036D01*
X92570421Y-102793921D01*
X92523536Y-102851050D01*
X92488697Y-102916228D01*
X92467244Y-102986951D01*
X92460000Y-103060500D01*
X92460000Y-104902000D01*
X92464012Y-104956857D01*
X92481881Y-105028569D01*
X92513397Y-105095418D01*
X95815397Y-110619918D01*
X95872421Y-110693079D01*
X95929550Y-110739964D01*
X95994728Y-110774803D01*
X96065451Y-110796256D01*
X96139000Y-110803500D01*
X98742500Y-110803500D01*
X98744045Y-110803497D01*
X100293445Y-110797147D01*
X100365918Y-110789812D01*
X100388386Y-110782965D01*
X100401628Y-110790043D01*
X100472351Y-110811496D01*
X100545900Y-110818740D01*
X103390700Y-110818740D01*
X103464249Y-110811496D01*
X103534972Y-110790043D01*
X103600150Y-110755204D01*
X103657279Y-110708319D01*
X103704164Y-110651190D01*
X103739003Y-110586012D01*
X103760456Y-110515289D01*
X103767700Y-110441740D01*
X103767700Y-108676440D01*
X103761429Y-108607963D01*
X103740946Y-108536953D01*
X103707004Y-108471303D01*
X103660906Y-108413537D01*
X103604424Y-108365874D01*
X103539729Y-108330146D01*
X103469307Y-108307726D01*
X103395864Y-108299475D01*
X102842132Y-108291890D01*
X102851753Y-105952100D01*
X105054400Y-105952100D01*
X105127949Y-105944856D01*
X105198672Y-105923403D01*
X105263850Y-105888564D01*
X105320979Y-105841679D01*
X105367864Y-105784550D01*
X105402703Y-105719372D01*
X105424156Y-105648649D01*
X105431400Y-105575100D01*
X105431400Y-100954840D01*
X107691057Y-100954840D01*
X107707990Y-101126762D01*
X107758138Y-101292077D01*
X107839573Y-101444432D01*
X107949167Y-101577973D01*
X108082708Y-101687567D01*
X108235063Y-101769002D01*
X108400378Y-101819150D01*
X108529221Y-101831840D01*
X109004744Y-101831840D01*
X109029419Y-101878003D01*
X109051183Y-101904523D01*
X109026879Y-101934137D01*
X109014423Y-101957440D01*
X108529221Y-101957440D01*
X108400378Y-101970130D01*
X108235063Y-102020278D01*
X108082708Y-102101713D01*
X107949167Y-102211307D01*
X107839573Y-102344848D01*
X107758138Y-102497203D01*
X107707990Y-102662518D01*
X107691057Y-102834440D01*
X107707990Y-103006362D01*
X107758138Y-103171677D01*
X107839573Y-103324032D01*
X107949167Y-103457573D01*
X108082708Y-103567167D01*
X108235063Y-103648602D01*
X108400378Y-103698750D01*
X108529221Y-103711440D01*
X109003562Y-103711440D01*
X109026879Y-103755063D01*
X109073991Y-103812469D01*
X109131397Y-103859581D01*
X109196890Y-103894588D01*
X109267955Y-103916145D01*
X109341860Y-103923424D01*
X110316860Y-103923424D01*
X110390765Y-103916145D01*
X110461830Y-103894588D01*
X110527323Y-103859581D01*
X110584729Y-103812469D01*
X110631841Y-103755063D01*
X110666848Y-103689570D01*
X110688405Y-103618505D01*
X110695684Y-103544600D01*
X110695684Y-102144600D01*
X110688405Y-102070695D01*
X110666848Y-101999630D01*
X110631841Y-101934137D01*
X110610077Y-101907617D01*
X110634381Y-101878003D01*
X110669388Y-101812510D01*
X110690945Y-101741445D01*
X110698224Y-101667540D01*
X110698224Y-100267540D01*
X110690945Y-100193635D01*
X110669388Y-100122570D01*
X110634381Y-100057077D01*
X110587269Y-99999671D01*
X110529863Y-99952559D01*
X110464370Y-99917552D01*
X110393305Y-99895995D01*
X110319400Y-99888716D01*
X109344400Y-99888716D01*
X109270495Y-99895995D01*
X109199430Y-99917552D01*
X109133937Y-99952559D01*
X109076531Y-99999671D01*
X109029419Y-100057077D01*
X109018321Y-100077840D01*
X108529221Y-100077840D01*
X108400378Y-100090530D01*
X108235063Y-100140678D01*
X108082708Y-100222113D01*
X107949167Y-100331707D01*
X107839573Y-100465248D01*
X107758138Y-100617603D01*
X107707990Y-100782918D01*
X107691057Y-100954840D01*
X105431400Y-100954840D01*
X105431400Y-100034090D01*
X105424080Y-99960158D01*
X105402553Y-99889458D01*
X105367647Y-99824316D01*
X105320703Y-99767235D01*
X105263525Y-99720409D01*
X105198311Y-99685638D01*
X105127566Y-99664258D01*
X105054010Y-99657090D01*
X99156000Y-99663196D01*
X99156000Y-95553236D01*
X99247321Y-95571400D01*
X99380679Y-95571400D01*
X99511474Y-95545384D01*
X99634680Y-95494350D01*
X99745563Y-95420260D01*
X99839860Y-95325963D01*
X99913950Y-95215080D01*
X99964984Y-95091874D01*
X99991000Y-94961079D01*
X99991000Y-94827721D01*
X99964984Y-94696926D01*
X99913950Y-94573720D01*
X99885726Y-94531480D01*
X102508580Y-94531480D01*
X102488919Y-94555437D01*
X102453912Y-94620930D01*
X102432355Y-94691995D01*
X102425076Y-94765900D01*
X102425076Y-96165900D01*
X102432355Y-96239805D01*
X102453912Y-96310870D01*
X102488919Y-96376363D01*
X102536031Y-96433769D01*
X102593437Y-96480881D01*
X102658930Y-96515888D01*
X102729995Y-96537445D01*
X102803900Y-96544724D01*
X103778900Y-96544724D01*
X103852805Y-96537445D01*
X103923870Y-96515888D01*
X103989363Y-96480881D01*
X104046769Y-96433769D01*
X104093881Y-96376363D01*
X104128888Y-96310870D01*
X104150445Y-96239805D01*
X104157724Y-96165900D01*
X104157724Y-94765900D01*
X104150445Y-94691995D01*
X104128888Y-94620930D01*
X104093881Y-94555437D01*
X104074220Y-94531480D01*
X104383580Y-94531480D01*
X104363919Y-94555437D01*
X104328912Y-94620930D01*
X104307355Y-94691995D01*
X104300076Y-94765900D01*
X104300076Y-96165900D01*
X104307355Y-96239805D01*
X104328912Y-96310870D01*
X104363919Y-96376363D01*
X104411031Y-96433769D01*
X104468437Y-96480881D01*
X104533930Y-96515888D01*
X104560068Y-96523817D01*
X104477591Y-96647252D01*
X104419019Y-96788657D01*
X104389160Y-96938772D01*
X104389160Y-97091828D01*
X104419019Y-97241943D01*
X104477591Y-97383348D01*
X104562624Y-97510609D01*
X104670851Y-97618836D01*
X104798112Y-97703869D01*
X104939517Y-97762441D01*
X105089632Y-97792300D01*
X105242688Y-97792300D01*
X105392803Y-97762441D01*
X105534208Y-97703869D01*
X105661469Y-97618836D01*
X105769696Y-97510609D01*
X105854729Y-97383348D01*
X105913301Y-97241943D01*
X105943160Y-97091828D01*
X105943160Y-96938772D01*
X105913301Y-96788657D01*
X105854729Y-96647252D01*
X105772333Y-96523938D01*
X105798870Y-96515888D01*
X105864363Y-96480881D01*
X105921769Y-96433769D01*
X105968881Y-96376363D01*
X106003888Y-96310870D01*
X106025445Y-96239805D01*
X106032724Y-96165900D01*
X106032724Y-94765900D01*
X106025445Y-94691995D01*
X106003888Y-94620930D01*
X105968881Y-94555437D01*
X105949220Y-94531480D01*
X110830614Y-94531480D01*
X112169087Y-95869954D01*
X112169087Y-95947520D01*
X111513529Y-96603078D01*
X111466417Y-96660484D01*
X111431410Y-96725977D01*
X111409853Y-96797042D01*
X111402574Y-96870947D01*
X111409853Y-96944852D01*
X111431410Y-97015917D01*
X111466417Y-97081410D01*
X111513529Y-97138816D01*
X112202958Y-97828245D01*
X112260364Y-97875357D01*
X112325857Y-97910364D01*
X112396922Y-97931921D01*
X112470827Y-97939200D01*
X112544732Y-97931921D01*
X112615797Y-97910364D01*
X112681290Y-97875357D01*
X112738696Y-97828245D01*
X113728645Y-96838296D01*
X113775757Y-96780890D01*
X113810764Y-96715397D01*
X113832321Y-96644332D01*
X113835299Y-96614099D01*
X113865532Y-96611121D01*
X113936597Y-96589564D01*
X114002090Y-96554557D01*
X114059496Y-96507445D01*
X115049445Y-95517496D01*
X115096557Y-95460090D01*
X115131564Y-95394597D01*
X115153121Y-95323532D01*
X115160400Y-95249627D01*
X115153121Y-95175722D01*
X115131564Y-95104657D01*
X115096557Y-95039164D01*
X115049445Y-94981758D01*
X114360016Y-94292329D01*
X114302610Y-94245217D01*
X114237117Y-94210210D01*
X114166052Y-94188653D01*
X114092147Y-94181374D01*
X114018242Y-94188653D01*
X113947177Y-94210210D01*
X113881684Y-94245217D01*
X113824278Y-94292329D01*
X113168720Y-94947887D01*
X113091154Y-94947887D01*
X111518846Y-93375580D01*
X111504682Y-93358321D01*
X111435856Y-93301837D01*
X111357333Y-93259866D01*
X111272130Y-93234020D01*
X111205728Y-93227480D01*
X111183523Y-93225293D01*
X111161318Y-93227480D01*
X98974205Y-93227480D01*
X98941251Y-93209866D01*
X98856048Y-93184020D01*
X98845756Y-93183006D01*
X98792410Y-93154492D01*
X98721345Y-93132935D01*
X98647440Y-93125656D01*
X98167440Y-93125656D01*
X98093535Y-93132935D01*
X98022470Y-93154492D01*
X98017440Y-93157181D01*
X98012410Y-93154492D01*
X97941345Y-93132935D01*
X97867440Y-93125656D01*
X97387440Y-93125656D01*
X97313535Y-93132935D01*
X97242470Y-93154492D01*
X97189124Y-93183006D01*
X97178832Y-93184020D01*
X97093629Y-93209866D01*
X97060675Y-93227480D01*
X96343980Y-93227480D01*
X96321775Y-93225293D01*
X96233168Y-93234020D01*
X96213338Y-93240036D01*
X96147966Y-93259866D01*
X96069443Y-93301837D01*
X96000617Y-93358321D01*
X95986461Y-93375570D01*
X95365893Y-93996140D01*
X95033861Y-93996140D01*
X95035001Y-93995000D01*
X95072528Y-93995000D01*
X95222643Y-93965141D01*
X95364048Y-93906569D01*
X95491309Y-93821536D01*
X95599536Y-93713309D01*
X95684569Y-93586048D01*
X95743141Y-93444643D01*
X95773000Y-93294528D01*
X95773000Y-93141472D01*
X95743141Y-92991357D01*
X95684569Y-92849952D01*
X95599536Y-92722691D01*
X95491309Y-92614464D01*
X95364048Y-92529431D01*
X95222643Y-92470859D01*
X95072528Y-92441000D01*
X94919472Y-92441000D01*
X94769357Y-92470859D01*
X94627952Y-92529431D01*
X94500691Y-92614464D01*
X94392464Y-92722691D01*
X94333264Y-92811290D01*
X94337056Y-92798789D01*
X94344300Y-92725240D01*
X94344300Y-92595721D01*
X94346524Y-92573140D01*
X94346524Y-90973140D01*
X94339245Y-90899235D01*
X94317688Y-90828170D01*
X94282681Y-90762677D01*
X94235569Y-90705271D01*
X94178163Y-90658159D01*
X94112670Y-90623152D01*
X94041605Y-90601595D01*
X93967700Y-90594316D01*
X92567700Y-90594316D01*
X92554257Y-90595640D01*
X89644900Y-90595640D01*
X89644900Y-83543140D01*
X92293076Y-83543140D01*
X92293076Y-85067140D01*
X92300355Y-85141045D01*
X92321912Y-85212110D01*
X92356919Y-85277603D01*
X92404031Y-85335009D01*
X92461437Y-85382121D01*
X92526930Y-85417128D01*
X92556901Y-85426219D01*
X92556901Y-86024051D01*
X92552657Y-86067140D01*
X92569590Y-86239062D01*
X92619738Y-86404376D01*
X92701174Y-86556732D01*
X92783306Y-86656811D01*
X92783309Y-86656814D01*
X92810768Y-86690273D01*
X92844227Y-86717732D01*
X94117563Y-87991068D01*
X94145027Y-88024533D01*
X94278568Y-88134127D01*
X94400168Y-88199123D01*
X94430923Y-88215562D01*
X94596237Y-88265710D01*
X94768160Y-88282643D01*
X94811239Y-88278400D01*
X98066773Y-88278400D01*
X98116333Y-88311515D01*
X98303235Y-88388933D01*
X98501649Y-88428400D01*
X98703951Y-88428400D01*
X98881022Y-88393178D01*
X98845800Y-88570249D01*
X98845800Y-88772551D01*
X98885267Y-88970965D01*
X98962685Y-89157867D01*
X98995800Y-89207428D01*
X98995801Y-90711111D01*
X98991557Y-90754200D01*
X99008490Y-90926122D01*
X99058638Y-91091436D01*
X99140074Y-91243792D01*
X99222206Y-91343871D01*
X99222209Y-91343874D01*
X99249668Y-91377333D01*
X99283128Y-91404793D01*
X99552399Y-91674064D01*
X99579867Y-91707533D01*
X99713408Y-91817127D01*
X99865763Y-91898562D01*
X100031078Y-91948710D01*
X100159921Y-91961400D01*
X100159930Y-91961400D01*
X100202999Y-91965642D01*
X100246069Y-91961400D01*
X100477133Y-91961400D01*
X100495019Y-91994863D01*
X100542131Y-92052269D01*
X100599537Y-92099381D01*
X100665030Y-92134388D01*
X100736095Y-92155945D01*
X100810000Y-92163224D01*
X101785000Y-92163224D01*
X101858905Y-92155945D01*
X101929970Y-92134388D01*
X101995463Y-92099381D01*
X102052869Y-92052269D01*
X102099981Y-91994863D01*
X102134988Y-91929370D01*
X102156545Y-91858305D01*
X102163824Y-91784400D01*
X102163824Y-91235874D01*
X102178743Y-91084400D01*
X102163824Y-90932926D01*
X102163824Y-90384400D01*
X102306176Y-90384400D01*
X102306176Y-91784400D01*
X102313455Y-91858305D01*
X102335012Y-91929370D01*
X102370019Y-91994863D01*
X102417131Y-92052269D01*
X102474537Y-92099381D01*
X102540030Y-92134388D01*
X102611095Y-92155945D01*
X102685000Y-92163224D01*
X103660000Y-92163224D01*
X103733905Y-92155945D01*
X103804970Y-92134388D01*
X103870463Y-92099381D01*
X103927869Y-92052269D01*
X103974981Y-91994863D01*
X103988794Y-91969020D01*
X104472639Y-91969020D01*
X104601482Y-91956330D01*
X104766797Y-91906182D01*
X104919152Y-91824747D01*
X105052693Y-91715153D01*
X105162287Y-91581612D01*
X105243722Y-91429257D01*
X105293870Y-91263942D01*
X105310803Y-91092020D01*
X105293870Y-90920098D01*
X105243722Y-90754783D01*
X105162287Y-90602428D01*
X105052693Y-90468887D01*
X104919152Y-90359293D01*
X104766797Y-90277858D01*
X104601482Y-90227710D01*
X104472639Y-90215020D01*
X103996940Y-90215020D01*
X103974981Y-90173937D01*
X103927869Y-90116531D01*
X103870463Y-90069419D01*
X103804970Y-90034412D01*
X103733905Y-90012855D01*
X103660000Y-90005576D01*
X102685000Y-90005576D01*
X102611095Y-90012855D01*
X102540030Y-90034412D01*
X102474537Y-90069419D01*
X102417131Y-90116531D01*
X102370019Y-90173937D01*
X102335012Y-90239430D01*
X102313455Y-90310495D01*
X102306176Y-90384400D01*
X102163824Y-90384400D01*
X102156545Y-90310495D01*
X102134988Y-90239430D01*
X102099981Y-90173937D01*
X102052869Y-90116531D01*
X101995463Y-90069419D01*
X101929970Y-90034412D01*
X101858905Y-90012855D01*
X101785000Y-90005576D01*
X100810000Y-90005576D01*
X100749800Y-90011505D01*
X100749800Y-89207427D01*
X100782915Y-89157867D01*
X100860333Y-88970965D01*
X100899800Y-88772551D01*
X100899800Y-88643650D01*
X101015800Y-88527650D01*
X101015800Y-87528400D01*
X101269800Y-87528400D01*
X101269800Y-88527650D01*
X101428550Y-88686400D01*
X101792800Y-88689472D01*
X101917282Y-88677212D01*
X102036980Y-88640902D01*
X102147294Y-88581937D01*
X102243985Y-88502585D01*
X102323337Y-88405894D01*
X102382302Y-88295580D01*
X102418612Y-88175882D01*
X102430872Y-88051400D01*
X102427800Y-87687150D01*
X102269050Y-87528400D01*
X101269800Y-87528400D01*
X101015800Y-87528400D01*
X100016550Y-87528400D01*
X99900550Y-87644400D01*
X99771649Y-87644400D01*
X99594578Y-87679622D01*
X99629800Y-87502551D01*
X99629800Y-87300249D01*
X99590333Y-87101835D01*
X99512915Y-86914933D01*
X99403647Y-86751400D01*
X99854728Y-86751400D01*
X99857800Y-87115650D01*
X100016550Y-87274400D01*
X101015800Y-87274400D01*
X101015800Y-86275150D01*
X101269800Y-86275150D01*
X101269800Y-87274400D01*
X102269050Y-87274400D01*
X102427800Y-87115650D01*
X102430872Y-86751400D01*
X102418612Y-86626918D01*
X102382302Y-86507220D01*
X102323337Y-86396906D01*
X102243985Y-86300215D01*
X102147294Y-86220863D01*
X102036980Y-86161898D01*
X101917282Y-86125588D01*
X101792800Y-86113328D01*
X101428550Y-86116400D01*
X101269800Y-86275150D01*
X101015800Y-86275150D01*
X100857050Y-86116400D01*
X100492800Y-86113328D01*
X100368318Y-86125588D01*
X100248620Y-86161898D01*
X100138306Y-86220863D01*
X100041615Y-86300215D01*
X99962263Y-86396906D01*
X99903298Y-86507220D01*
X99866988Y-86626918D01*
X99854728Y-86751400D01*
X99403647Y-86751400D01*
X99400523Y-86746726D01*
X99257474Y-86603677D01*
X99089267Y-86491285D01*
X98902365Y-86413867D01*
X98703951Y-86374400D01*
X98501649Y-86374400D01*
X98303235Y-86413867D01*
X98116333Y-86491285D01*
X98066773Y-86524400D01*
X95131425Y-86524400D01*
X94310900Y-85703875D01*
X94310900Y-85426219D01*
X94340870Y-85417128D01*
X94406363Y-85382121D01*
X94463769Y-85335009D01*
X94510881Y-85277603D01*
X94545888Y-85212110D01*
X94567445Y-85141045D01*
X94574724Y-85067140D01*
X94574724Y-83543140D01*
X94567445Y-83469235D01*
X94545888Y-83398170D01*
X94510881Y-83332677D01*
X94463769Y-83275271D01*
X94406363Y-83228159D01*
X94340870Y-83193152D01*
X94269805Y-83171595D01*
X94195900Y-83164316D01*
X92671900Y-83164316D01*
X92597995Y-83171595D01*
X92526930Y-83193152D01*
X92461437Y-83228159D01*
X92404031Y-83275271D01*
X92356919Y-83332677D01*
X92321912Y-83398170D01*
X92300355Y-83469235D01*
X92293076Y-83543140D01*
X89644900Y-83543140D01*
X89644900Y-81652958D01*
X92294900Y-81652958D01*
X92294900Y-81877322D01*
X92338671Y-82097374D01*
X92424531Y-82304659D01*
X92549181Y-82491210D01*
X92707830Y-82649859D01*
X92894381Y-82774509D01*
X93101666Y-82860369D01*
X93321718Y-82904140D01*
X93546082Y-82904140D01*
X93766134Y-82860369D01*
X93973419Y-82774509D01*
X94159970Y-82649859D01*
X94318619Y-82491210D01*
X94443269Y-82304659D01*
X94529129Y-82097374D01*
X94572900Y-81877322D01*
X94572900Y-81652958D01*
X94529129Y-81432906D01*
X94443269Y-81225621D01*
X94318619Y-81039070D01*
X94159970Y-80880421D01*
X93973419Y-80755771D01*
X93766134Y-80669911D01*
X93546082Y-80626140D01*
X93321718Y-80626140D01*
X93101666Y-80669911D01*
X92894381Y-80755771D01*
X92707830Y-80880421D01*
X92549181Y-81039070D01*
X92424531Y-81225621D01*
X92338671Y-81432906D01*
X92294900Y-81652958D01*
X89644900Y-81652958D01*
X89644900Y-79112958D01*
X92294900Y-79112958D01*
X92294900Y-79337322D01*
X92338671Y-79557374D01*
X92424531Y-79764659D01*
X92549181Y-79951210D01*
X92707830Y-80109859D01*
X92894381Y-80234509D01*
X93101666Y-80320369D01*
X93321718Y-80364140D01*
X93546082Y-80364140D01*
X93766134Y-80320369D01*
X93973419Y-80234509D01*
X94159970Y-80109859D01*
X94318619Y-79951210D01*
X94443269Y-79764659D01*
X94529129Y-79557374D01*
X94572900Y-79337322D01*
X94572900Y-79112958D01*
X94529129Y-78892906D01*
X94443269Y-78685621D01*
X94318619Y-78499070D01*
X94159970Y-78340421D01*
X93973419Y-78215771D01*
X93766134Y-78129911D01*
X93546082Y-78086140D01*
X93321718Y-78086140D01*
X93101666Y-78129911D01*
X92894381Y-78215771D01*
X92707830Y-78340421D01*
X92549181Y-78499070D01*
X92424531Y-78685621D01*
X92338671Y-78892906D01*
X92294900Y-79112958D01*
X89644900Y-79112958D01*
X89644900Y-76572958D01*
X92294900Y-76572958D01*
X92294900Y-76797322D01*
X92338671Y-77017374D01*
X92424531Y-77224659D01*
X92549181Y-77411210D01*
X92707830Y-77569859D01*
X92894381Y-77694509D01*
X93101666Y-77780369D01*
X93321718Y-77824140D01*
X93546082Y-77824140D01*
X93766134Y-77780369D01*
X93973419Y-77694509D01*
X94159970Y-77569859D01*
X94318619Y-77411210D01*
X94443269Y-77224659D01*
X94529129Y-77017374D01*
X94572900Y-76797322D01*
X94572900Y-76572958D01*
X94529129Y-76352906D01*
X94443269Y-76145621D01*
X94318619Y-75959070D01*
X94159970Y-75800421D01*
X93973419Y-75675771D01*
X93766134Y-75589911D01*
X93546082Y-75546140D01*
X93321718Y-75546140D01*
X93101666Y-75589911D01*
X92894381Y-75675771D01*
X92707830Y-75800421D01*
X92549181Y-75959070D01*
X92424531Y-76145621D01*
X92338671Y-76352906D01*
X92294900Y-76572958D01*
X89644900Y-76572958D01*
X89644900Y-70334289D01*
X89683900Y-70334289D01*
X89683900Y-71097991D01*
X89832891Y-71847019D01*
X90125147Y-72552588D01*
X90549438Y-73187583D01*
X91089457Y-73727602D01*
X91724452Y-74151893D01*
X92430021Y-74444149D01*
X93179049Y-74593140D01*
X93942751Y-74593140D01*
X94691779Y-74444149D01*
X95397348Y-74151893D01*
X96032343Y-73727602D01*
X96572362Y-73187583D01*
X96996653Y-72552588D01*
X97288909Y-71847019D01*
X97437900Y-71097991D01*
X97437900Y-70334289D01*
X97288909Y-69585261D01*
X96996653Y-68879692D01*
X96572362Y-68244697D01*
X96032343Y-67704678D01*
X95397348Y-67280387D01*
X94691779Y-66988131D01*
X93942751Y-66839140D01*
X93179049Y-66839140D01*
X92430021Y-66988131D01*
X91724452Y-67280387D01*
X91089457Y-67704678D01*
X90549438Y-68244697D01*
X90125147Y-68879692D01*
X89832891Y-69585261D01*
X89683900Y-70334289D01*
X89644900Y-70334289D01*
X89644900Y-66800140D01*
X197806900Y-66800140D01*
X197806900Y-71502606D01*
G36*
X197806901Y-123146140D02*
G01*
X182880000Y-123146140D01*
X182880000Y-118848289D01*
X190013900Y-118848289D01*
X190013900Y-119611991D01*
X190162891Y-120361019D01*
X190455147Y-121066588D01*
X190879438Y-121701583D01*
X191419457Y-122241602D01*
X192054452Y-122665893D01*
X192760021Y-122958149D01*
X193509049Y-123107140D01*
X194272751Y-123107140D01*
X195021779Y-122958149D01*
X195727348Y-122665893D01*
X196362343Y-122241602D01*
X196902362Y-121701583D01*
X197326653Y-121066588D01*
X197618909Y-120361019D01*
X197767900Y-119611991D01*
X197767900Y-118848289D01*
X197618909Y-118099261D01*
X197326653Y-117393692D01*
X196902362Y-116758697D01*
X196362343Y-116218678D01*
X195727348Y-115794387D01*
X195021779Y-115502131D01*
X194272751Y-115353140D01*
X193509049Y-115353140D01*
X192760021Y-115502131D01*
X192054452Y-115794387D01*
X191419457Y-116218678D01*
X190879438Y-116758697D01*
X190455147Y-117393692D01*
X190162891Y-118099261D01*
X190013900Y-118848289D01*
X182880000Y-118848289D01*
X182880000Y-70334289D01*
X190013900Y-70334289D01*
X190013900Y-71097991D01*
X190162891Y-71847019D01*
X190455147Y-72552588D01*
X190879438Y-73187583D01*
X191419457Y-73727602D01*
X192054452Y-74151893D01*
X192760021Y-74444149D01*
X193509049Y-74593140D01*
X194272751Y-74593140D01*
X195021779Y-74444149D01*
X195727348Y-74151893D01*
X196362343Y-73727602D01*
X196902362Y-73187583D01*
X197326653Y-72552588D01*
X197618909Y-71847019D01*
X197767900Y-71097991D01*
X197767900Y-70334289D01*
X197618909Y-69585261D01*
X197326653Y-68879692D01*
X196902362Y-68244697D01*
X196362343Y-67704678D01*
X195727348Y-67280387D01*
X195021779Y-66988131D01*
X194272751Y-66839140D01*
X193509049Y-66839140D01*
X192760021Y-66988131D01*
X192054452Y-67280387D01*
X191419457Y-67704678D01*
X190879438Y-68244697D01*
X190455147Y-68879692D01*
X190162891Y-69585261D01*
X190013900Y-70334289D01*
X182880000Y-70334289D01*
X182880000Y-66800140D01*
X197806900Y-66800140D01*
X197806901Y-123146140D01*
X197806901Y-123146140D01*
G37*
X197806901Y-123146140D02*
X182880000Y-123146140D01*
X182880000Y-118848289D01*
X190013900Y-118848289D01*
X190013900Y-119611991D01*
X190162891Y-120361019D01*
X190455147Y-121066588D01*
X190879438Y-121701583D01*
X191419457Y-122241602D01*
X192054452Y-122665893D01*
X192760021Y-122958149D01*
X193509049Y-123107140D01*
X194272751Y-123107140D01*
X195021779Y-122958149D01*
X195727348Y-122665893D01*
X196362343Y-122241602D01*
X196902362Y-121701583D01*
X197326653Y-121066588D01*
X197618909Y-120361019D01*
X197767900Y-119611991D01*
X197767900Y-118848289D01*
X197618909Y-118099261D01*
X197326653Y-117393692D01*
X196902362Y-116758697D01*
X196362343Y-116218678D01*
X195727348Y-115794387D01*
X195021779Y-115502131D01*
X194272751Y-115353140D01*
X193509049Y-115353140D01*
X192760021Y-115502131D01*
X192054452Y-115794387D01*
X191419457Y-116218678D01*
X190879438Y-116758697D01*
X190455147Y-117393692D01*
X190162891Y-118099261D01*
X190013900Y-118848289D01*
X182880000Y-118848289D01*
X182880000Y-70334289D01*
X190013900Y-70334289D01*
X190013900Y-71097991D01*
X190162891Y-71847019D01*
X190455147Y-72552588D01*
X190879438Y-73187583D01*
X191419457Y-73727602D01*
X192054452Y-74151893D01*
X192760021Y-74444149D01*
X193509049Y-74593140D01*
X194272751Y-74593140D01*
X195021779Y-74444149D01*
X195727348Y-74151893D01*
X196362343Y-73727602D01*
X196902362Y-73187583D01*
X197326653Y-72552588D01*
X197618909Y-71847019D01*
X197767900Y-71097991D01*
X197767900Y-70334289D01*
X197618909Y-69585261D01*
X197326653Y-68879692D01*
X196902362Y-68244697D01*
X196362343Y-67704678D01*
X195727348Y-67280387D01*
X195021779Y-66988131D01*
X194272751Y-66839140D01*
X193509049Y-66839140D01*
X192760021Y-66988131D01*
X192054452Y-67280387D01*
X191419457Y-67704678D01*
X190879438Y-68244697D01*
X190455147Y-68879692D01*
X190162891Y-69585261D01*
X190013900Y-70334289D01*
X182880000Y-70334289D01*
X182880000Y-66800140D01*
X197806900Y-66800140D01*
X197806901Y-123146140D01*
M02*
