G04 #@! TF.GenerationSoftware,KiCad,Pcbnew,(5.1.4)-1*
G04 #@! TF.CreationDate,2020-06-13T17:24:10-04:00*
G04 #@! TF.ProjectId,Keypad,4b657970-6164-42e6-9b69-6361645f7063,rev?*
G04 #@! TF.SameCoordinates,Original*
G04 #@! TF.FileFunction,Legend,Top*
G04 #@! TF.FilePolarity,Positive*
%FSLAX46Y46*%
G04 Gerber Fmt 4.6, Leading zero omitted, Abs format (unit mm)*
G04 Created by KiCad (PCBNEW (5.1.4)-1) date 2020-06-13 17:24:10*
%MOMM*%
%LPD*%
G04 APERTURE LIST*
%ADD10C,0.200000*%
%ADD11C,0.120000*%
%ADD12C,0.150000*%
%ADD13C,0.300000*%
%ADD14C,0.152400*%
G04 APERTURE END LIST*
D10*
X94664542Y-84435142D02*
X95807400Y-84435142D01*
X95235971Y-85006571D02*
X95235971Y-83863714D01*
X96378828Y-83506571D02*
X97307400Y-83506571D01*
X96807400Y-84078000D01*
X97021685Y-84078000D01*
X97164542Y-84149428D01*
X97235971Y-84220857D01*
X97307400Y-84363714D01*
X97307400Y-84720857D01*
X97235971Y-84863714D01*
X97164542Y-84935142D01*
X97021685Y-85006571D01*
X96593114Y-85006571D01*
X96450257Y-84935142D01*
X96378828Y-84863714D01*
X97735971Y-83506571D02*
X98235971Y-85006571D01*
X98735971Y-83506571D01*
X99093114Y-83506571D02*
X100021685Y-83506571D01*
X99521685Y-84078000D01*
X99735971Y-84078000D01*
X99878828Y-84149428D01*
X99950257Y-84220857D01*
X100021685Y-84363714D01*
X100021685Y-84720857D01*
X99950257Y-84863714D01*
X99878828Y-84935142D01*
X99735971Y-85006571D01*
X99307400Y-85006571D01*
X99164542Y-84935142D01*
X99093114Y-84863714D01*
X94574942Y-82331642D02*
X94789228Y-82403071D01*
X95146371Y-82403071D01*
X95289228Y-82331642D01*
X95360657Y-82260214D01*
X95432085Y-82117357D01*
X95432085Y-81974500D01*
X95360657Y-81831642D01*
X95289228Y-81760214D01*
X95146371Y-81688785D01*
X94860657Y-81617357D01*
X94717800Y-81545928D01*
X94646371Y-81474500D01*
X94574942Y-81331642D01*
X94574942Y-81188785D01*
X94646371Y-81045928D01*
X94717800Y-80974500D01*
X94860657Y-80903071D01*
X95217800Y-80903071D01*
X95432085Y-80974500D01*
X95932085Y-80903071D02*
X96289228Y-82403071D01*
X96574942Y-81331642D01*
X96860657Y-82403071D01*
X97217800Y-80903071D01*
X98646371Y-82260214D02*
X98574942Y-82331642D01*
X98360657Y-82403071D01*
X98217800Y-82403071D01*
X98003514Y-82331642D01*
X97860657Y-82188785D01*
X97789228Y-82045928D01*
X97717800Y-81760214D01*
X97717800Y-81545928D01*
X97789228Y-81260214D01*
X97860657Y-81117357D01*
X98003514Y-80974500D01*
X98217800Y-80903071D01*
X98360657Y-80903071D01*
X98574942Y-80974500D01*
X98646371Y-81045928D01*
X100003514Y-82403071D02*
X99289228Y-82403071D01*
X99289228Y-80903071D01*
X100503514Y-82403071D02*
X100503514Y-80903071D01*
X101360657Y-82403071D02*
X100717800Y-81545928D01*
X101360657Y-80903071D02*
X100503514Y-81760214D01*
X94560628Y-79778942D02*
X94774914Y-79850371D01*
X95132057Y-79850371D01*
X95274914Y-79778942D01*
X95346342Y-79707514D01*
X95417771Y-79564657D01*
X95417771Y-79421800D01*
X95346342Y-79278942D01*
X95274914Y-79207514D01*
X95132057Y-79136085D01*
X94846342Y-79064657D01*
X94703485Y-78993228D01*
X94632057Y-78921800D01*
X94560628Y-78778942D01*
X94560628Y-78636085D01*
X94632057Y-78493228D01*
X94703485Y-78421800D01*
X94846342Y-78350371D01*
X95203485Y-78350371D01*
X95417771Y-78421800D01*
X95917771Y-78350371D02*
X96274914Y-79850371D01*
X96560628Y-78778942D01*
X96846342Y-79850371D01*
X97203485Y-78350371D01*
X97774914Y-79850371D02*
X97774914Y-78350371D01*
X98132057Y-78350371D01*
X98346342Y-78421800D01*
X98489200Y-78564657D01*
X98560628Y-78707514D01*
X98632057Y-78993228D01*
X98632057Y-79207514D01*
X98560628Y-79493228D01*
X98489200Y-79636085D01*
X98346342Y-79778942D01*
X98132057Y-79850371D01*
X97774914Y-79850371D01*
X99274914Y-79850371D02*
X99274914Y-78350371D01*
X100274914Y-78350371D02*
X100560628Y-78350371D01*
X100703485Y-78421800D01*
X100846342Y-78564657D01*
X100917771Y-78850371D01*
X100917771Y-79350371D01*
X100846342Y-79636085D01*
X100703485Y-79778942D01*
X100560628Y-79850371D01*
X100274914Y-79850371D01*
X100132057Y-79778942D01*
X99989200Y-79636085D01*
X99917771Y-79350371D01*
X99917771Y-78850371D01*
X99989200Y-78564657D01*
X100132057Y-78421800D01*
X100274914Y-78350371D01*
X95529542Y-75958000D02*
X95386685Y-75886571D01*
X95172400Y-75886571D01*
X94958114Y-75958000D01*
X94815257Y-76100857D01*
X94743828Y-76243714D01*
X94672400Y-76529428D01*
X94672400Y-76743714D01*
X94743828Y-77029428D01*
X94815257Y-77172285D01*
X94958114Y-77315142D01*
X95172400Y-77386571D01*
X95315257Y-77386571D01*
X95529542Y-77315142D01*
X95600971Y-77243714D01*
X95600971Y-76743714D01*
X95315257Y-76743714D01*
X96243828Y-77386571D02*
X96243828Y-75886571D01*
X97100971Y-77386571D01*
X97100971Y-75886571D01*
X97815257Y-77386571D02*
X97815257Y-75886571D01*
X98172400Y-75886571D01*
X98386685Y-75958000D01*
X98529542Y-76100857D01*
X98600971Y-76243714D01*
X98672400Y-76529428D01*
X98672400Y-76743714D01*
X98600971Y-77029428D01*
X98529542Y-77172285D01*
X98386685Y-77315142D01*
X98172400Y-77386571D01*
X97815257Y-77386571D01*
D11*
X103860600Y-91948000D02*
X103860600Y-90220800D01*
X100609400Y-91948000D02*
X100609400Y-90220800D01*
X103860600Y-90220800D02*
X100609400Y-90220800D01*
X103860600Y-91948000D02*
X100609400Y-91948000D01*
X101672800Y-85551400D02*
X98072800Y-85551400D01*
X101711278Y-85562922D02*
G75*
G02X99872800Y-90001400I-1838478J-1838478D01*
G01*
X98034322Y-85562922D02*
G75*
G03X99872800Y-90001400I1838478J-1838478D01*
G01*
X102603300Y-94602300D02*
X102603300Y-96329500D01*
X105854500Y-94602300D02*
X105854500Y-96329500D01*
X102603300Y-96329500D02*
X105854500Y-96329500D01*
X102603300Y-94602300D02*
X105854500Y-94602300D01*
D12*
X91946900Y-85575140D02*
X91946900Y-75415140D01*
X89406900Y-85575140D02*
X89406900Y-75415140D01*
X91946900Y-75415140D02*
X89406900Y-75415140D01*
X91946900Y-85575140D02*
X89406900Y-85575140D01*
D11*
X118605300Y-115394740D02*
X118605300Y-113667540D01*
X121856500Y-115394740D02*
X118605300Y-115394740D01*
X121856500Y-113667540D02*
X121856500Y-115394740D01*
X118605300Y-113667540D02*
X121856500Y-113667540D01*
X111264700Y-111277400D02*
X111264700Y-113004600D01*
X108013500Y-111277400D02*
X111264700Y-111277400D01*
X108013500Y-113004600D02*
X108013500Y-111277400D01*
X111264700Y-113004600D02*
X108013500Y-113004600D01*
X124393960Y-105610660D02*
X122666760Y-105610660D01*
X124393960Y-102359460D02*
X124393960Y-105610660D01*
X122666760Y-102359460D02*
X124393960Y-102359460D01*
X122666760Y-105610660D02*
X122666760Y-102359460D01*
X118602760Y-117297200D02*
X118602760Y-115570000D01*
X121853960Y-117297200D02*
X118602760Y-117297200D01*
X121853960Y-115570000D02*
X121853960Y-117297200D01*
X118602760Y-115570000D02*
X121853960Y-115570000D01*
X111277400Y-113172240D02*
X111277400Y-114899440D01*
X108026200Y-113172240D02*
X111277400Y-113172240D01*
X108026200Y-114899440D02*
X108026200Y-113172240D01*
X111277400Y-114899440D02*
X108026200Y-114899440D01*
X126298960Y-105613200D02*
X124571760Y-105613200D01*
X126298960Y-102362000D02*
X126298960Y-105613200D01*
X124571760Y-102362000D02*
X126298960Y-102362000D01*
X124571760Y-105613200D02*
X124571760Y-102362000D01*
X111518700Y-114556540D02*
X111518700Y-116283740D01*
X114769900Y-114556540D02*
X114769900Y-116283740D01*
X111518700Y-116283740D02*
X114769900Y-116283740D01*
X111518700Y-114556540D02*
X114769900Y-114556540D01*
X112392460Y-101981000D02*
X112392460Y-103708200D01*
X109141260Y-101981000D02*
X112392460Y-101981000D01*
X109141260Y-103708200D02*
X109141260Y-101981000D01*
X112392460Y-103708200D02*
X109141260Y-103708200D01*
X112395000Y-100103940D02*
X112395000Y-101831140D01*
X109143800Y-100103940D02*
X112395000Y-100103940D01*
X109143800Y-101831140D02*
X109143800Y-100103940D01*
X112395000Y-101831140D02*
X109143800Y-101831140D01*
D12*
X116497100Y-116461540D02*
X110210600Y-116461540D01*
X110210600Y-120525540D02*
X110210600Y-116461540D01*
X116497100Y-120462040D02*
X116497100Y-116461540D01*
X116497100Y-120525540D02*
X110210600Y-120525540D01*
D10*
X113282400Y-111419640D02*
G75*
G03X113282400Y-111419640I-100000J0D01*
G01*
D11*
X120548400Y-111292640D02*
X120040400Y-111292640D01*
X120548400Y-110784640D02*
X120548400Y-111292640D01*
X113309400Y-104053640D02*
X113817400Y-104053640D01*
X113309400Y-104561640D02*
X113309400Y-104053640D01*
X120548400Y-104053640D02*
X120548400Y-104561640D01*
X120040400Y-104053640D02*
X120548400Y-104053640D01*
X113309400Y-110975140D02*
X113626900Y-111292640D01*
X113309400Y-110975140D02*
X113309400Y-110784640D01*
X113817400Y-111292640D02*
X113626900Y-111292640D01*
D13*
X98878200Y-106352340D02*
G75*
G03X98878200Y-106352340I-123000J0D01*
G01*
D12*
X98628200Y-105907840D02*
X105359200Y-105907840D01*
D14*
X100025200Y-102288340D02*
X98628200Y-102288340D01*
X98628200Y-102288340D02*
X98628200Y-105907840D01*
X105359200Y-102288340D02*
X103962200Y-102288340D01*
X105359200Y-105907840D02*
X105359200Y-102288340D01*
D12*
X97055940Y-93502480D02*
G75*
G03X97055940Y-93502480I-63500J0D01*
G01*
D11*
X98770440Y-93350080D02*
X97256600Y-93350080D01*
X98770440Y-95915480D02*
X97256600Y-95915480D01*
X97256600Y-93350080D02*
X97256600Y-95915480D01*
X98770440Y-93350080D02*
X98770440Y-95915480D01*
X188671200Y-85321140D02*
X170002200Y-85321140D01*
X188671200Y-66652140D02*
X188671200Y-85321140D01*
X170002200Y-66652140D02*
X188671200Y-66652140D01*
X170002200Y-85321140D02*
X170002200Y-66652140D01*
X169611040Y-85321140D02*
X150942040Y-85321140D01*
X169611040Y-66652140D02*
X169611040Y-85321140D01*
X150942040Y-66652140D02*
X169611040Y-66652140D01*
X150942040Y-85321140D02*
X150942040Y-66652140D01*
X150550880Y-85321140D02*
X131881880Y-85321140D01*
X150550880Y-66652140D02*
X150550880Y-85321140D01*
X131881880Y-66652140D02*
X150550880Y-66652140D01*
X131881880Y-85321140D02*
X131881880Y-66652140D01*
X188671200Y-104338120D02*
X170002200Y-104338120D01*
X188671200Y-85669120D02*
X188671200Y-104338120D01*
X170002200Y-85669120D02*
X188671200Y-85669120D01*
X170002200Y-104338120D02*
X170002200Y-85669120D01*
X169611040Y-104338120D02*
X150942040Y-104338120D01*
X169611040Y-85669120D02*
X169611040Y-104338120D01*
X150942040Y-85669120D02*
X169611040Y-85669120D01*
X150942040Y-104338120D02*
X150942040Y-85669120D01*
X150550880Y-104338120D02*
X131881880Y-104338120D01*
X150550880Y-85669120D02*
X150550880Y-104338120D01*
X131881880Y-85669120D02*
X150550880Y-85669120D01*
X131881880Y-104338120D02*
X131881880Y-85669120D01*
X188671200Y-123357640D02*
X170002200Y-123357640D01*
X188671200Y-104688640D02*
X188671200Y-123357640D01*
X170002200Y-104688640D02*
X188671200Y-104688640D01*
X170002200Y-123357640D02*
X170002200Y-104688640D01*
X169611040Y-123357640D02*
X150942040Y-123357640D01*
X169611040Y-104688640D02*
X169611040Y-123357640D01*
X150942040Y-104688640D02*
X169611040Y-104688640D01*
X150942040Y-123357640D02*
X150942040Y-104688640D01*
X150550880Y-123357640D02*
X131881880Y-123357640D01*
X150550880Y-104688640D02*
X150550880Y-123357640D01*
X131881880Y-104688640D02*
X150550880Y-104688640D01*
X131881880Y-123357640D02*
X131881880Y-104688640D01*
X122669300Y-109489240D02*
X124396500Y-109489240D01*
X122669300Y-106238040D02*
X124396500Y-106238040D01*
X124396500Y-109489240D02*
X124396500Y-106238040D01*
X122669300Y-109489240D02*
X122669300Y-106238040D01*
X109423200Y-110987840D02*
X111150400Y-110987840D01*
X109423200Y-107736640D02*
X111150400Y-107736640D01*
X111150400Y-110987840D02*
X111150400Y-107736640D01*
X109423200Y-110987840D02*
X109423200Y-107736640D01*
X118237000Y-116283740D02*
X118237000Y-114556540D01*
X114985800Y-116283740D02*
X114985800Y-114556540D01*
X118237000Y-114556540D02*
X114985800Y-114556540D01*
X118237000Y-116283740D02*
X114985800Y-116283740D01*
X102908100Y-114988340D02*
X102908100Y-113261140D01*
X99656900Y-114988340D02*
X99656900Y-113261140D01*
X102908100Y-113261140D02*
X99656900Y-113261140D01*
X102908100Y-114988340D02*
X99656900Y-114988340D01*
X112745185Y-95623470D02*
X111523870Y-96844785D01*
X115044130Y-97922415D02*
X113822815Y-99143730D01*
X111523870Y-96844785D02*
X113822815Y-99143730D01*
X112745185Y-95623470D02*
X115044130Y-97922415D01*
X114065985Y-94302670D02*
X112844670Y-95523985D01*
X116364930Y-96601615D02*
X115143615Y-97822930D01*
X112844670Y-95523985D02*
X115143615Y-97822930D01*
X114065985Y-94302670D02*
X116364930Y-96601615D01*
X94800420Y-101041200D02*
X96527620Y-101041200D01*
X94800420Y-104292400D02*
X94800420Y-101041200D01*
X96527620Y-104292400D02*
X94800420Y-104292400D01*
X96527620Y-101041200D02*
X96527620Y-104292400D01*
X102806500Y-116347240D02*
X102552500Y-116347240D01*
X102806500Y-115204240D02*
X102806500Y-116347240D01*
X102552500Y-115204240D02*
X102806500Y-115204240D01*
X99949000Y-116347240D02*
X99949000Y-115204240D01*
X102552500Y-116347240D02*
X99949000Y-116347240D01*
X102552500Y-115204240D02*
X102552500Y-116347240D01*
X99949000Y-115204240D02*
X102552500Y-115204240D01*
X118414800Y-119847360D02*
X116687600Y-119847360D01*
X118414800Y-116596160D02*
X118414800Y-119847360D01*
X116687600Y-116596160D02*
X118414800Y-116596160D01*
X116687600Y-119847360D02*
X116687600Y-116596160D01*
X106758740Y-120548400D02*
X106758740Y-118821200D01*
X110009940Y-120548400D02*
X106758740Y-120548400D01*
X110009940Y-118821200D02*
X110009940Y-120548400D01*
X106758740Y-118821200D02*
X110009940Y-118821200D01*
X102031800Y-110441740D02*
X102031800Y-108714540D01*
X105283000Y-110441740D02*
X102031800Y-110441740D01*
X105283000Y-108714540D02*
X105283000Y-110441740D01*
X102031800Y-108714540D02*
X105283000Y-108714540D01*
X94622620Y-104292400D02*
X92895420Y-104292400D01*
X94622620Y-101041200D02*
X94622620Y-104292400D01*
X92895420Y-101041200D02*
X94622620Y-101041200D01*
X92895420Y-104292400D02*
X92895420Y-101041200D01*
X98666300Y-110441740D02*
X98666300Y-108714540D01*
X101917500Y-110441740D02*
X98666300Y-110441740D01*
X101917500Y-108714540D02*
X101917500Y-110441740D01*
X98666300Y-108714540D02*
X101917500Y-108714540D01*
X94437200Y-90782140D02*
X89420700Y-90782140D01*
X94437200Y-99164140D02*
X89420700Y-99164140D01*
X94437200Y-90782140D02*
X94437200Y-99164140D01*
D10*
X101602302Y-93162380D02*
X101268969Y-92686190D01*
X101030874Y-93162380D02*
X101030874Y-92162380D01*
X101411826Y-92162380D01*
X101507064Y-92210000D01*
X101554683Y-92257619D01*
X101602302Y-92352857D01*
X101602302Y-92495714D01*
X101554683Y-92590952D01*
X101507064Y-92638571D01*
X101411826Y-92686190D01*
X101030874Y-92686190D01*
X102554683Y-93162380D02*
X101983255Y-93162380D01*
X102268969Y-93162380D02*
X102268969Y-92162380D01*
X102173731Y-92305238D01*
X102078493Y-92400476D01*
X101983255Y-92448095D01*
X103507064Y-93162380D02*
X102935636Y-93162380D01*
X103221350Y-93162380D02*
X103221350Y-92162380D01*
X103126112Y-92305238D01*
X103030874Y-92400476D01*
X102935636Y-92448095D01*
X103536761Y-87923619D02*
X103441523Y-87876000D01*
X103346285Y-87780761D01*
X103203428Y-87637904D01*
X103108190Y-87590285D01*
X103012952Y-87590285D01*
X103060571Y-87828380D02*
X102965333Y-87780761D01*
X102870095Y-87685523D01*
X102822476Y-87495047D01*
X102822476Y-87161714D01*
X102870095Y-86971238D01*
X102965333Y-86876000D01*
X103060571Y-86828380D01*
X103251047Y-86828380D01*
X103346285Y-86876000D01*
X103441523Y-86971238D01*
X103489142Y-87161714D01*
X103489142Y-87495047D01*
X103441523Y-87685523D01*
X103346285Y-87780761D01*
X103251047Y-87828380D01*
X103060571Y-87828380D01*
X104441523Y-87828380D02*
X103870095Y-87828380D01*
X104155809Y-87828380D02*
X104155809Y-86828380D01*
X104060571Y-86971238D01*
X103965333Y-87066476D01*
X103870095Y-87114095D01*
X104059693Y-97597220D02*
X103726360Y-97121030D01*
X103488264Y-97597220D02*
X103488264Y-96597220D01*
X103869217Y-96597220D01*
X103964455Y-96644840D01*
X104012074Y-96692459D01*
X104059693Y-96787697D01*
X104059693Y-96930554D01*
X104012074Y-97025792D01*
X103964455Y-97073411D01*
X103869217Y-97121030D01*
X103488264Y-97121030D01*
X104964455Y-96597220D02*
X104488264Y-96597220D01*
X104440645Y-97073411D01*
X104488264Y-97025792D01*
X104583502Y-96978173D01*
X104821598Y-96978173D01*
X104916836Y-97025792D01*
X104964455Y-97073411D01*
X105012074Y-97168649D01*
X105012074Y-97406744D01*
X104964455Y-97501982D01*
X104916836Y-97549601D01*
X104821598Y-97597220D01*
X104583502Y-97597220D01*
X104488264Y-97549601D01*
X104440645Y-97501982D01*
X90329426Y-74092820D02*
X90329426Y-74807106D01*
X90281807Y-74949963D01*
X90186569Y-75045201D01*
X90043712Y-75092820D01*
X89948474Y-75092820D01*
X90757998Y-74188059D02*
X90805617Y-74140440D01*
X90900855Y-74092820D01*
X91138950Y-74092820D01*
X91234188Y-74140440D01*
X91281807Y-74188059D01*
X91329426Y-74283297D01*
X91329426Y-74378535D01*
X91281807Y-74521392D01*
X90710379Y-75092820D01*
X91329426Y-75092820D01*
X122750342Y-114885742D02*
X122702723Y-114933361D01*
X122559866Y-114980980D01*
X122464628Y-114980980D01*
X122321771Y-114933361D01*
X122226533Y-114838123D01*
X122178914Y-114742885D01*
X122131295Y-114552409D01*
X122131295Y-114409552D01*
X122178914Y-114219076D01*
X122226533Y-114123838D01*
X122321771Y-114028600D01*
X122464628Y-113980980D01*
X122559866Y-113980980D01*
X122702723Y-114028600D01*
X122750342Y-114076219D01*
X123702723Y-114980980D02*
X123131295Y-114980980D01*
X123417009Y-114980980D02*
X123417009Y-113980980D01*
X123321771Y-114123838D01*
X123226533Y-114219076D01*
X123131295Y-114266695D01*
X124036057Y-113980980D02*
X124655104Y-113980980D01*
X124321771Y-114361933D01*
X124464628Y-114361933D01*
X124559866Y-114409552D01*
X124607485Y-114457171D01*
X124655104Y-114552409D01*
X124655104Y-114790504D01*
X124607485Y-114885742D01*
X124559866Y-114933361D01*
X124464628Y-114980980D01*
X124178914Y-114980980D01*
X124083676Y-114933361D01*
X124036057Y-114885742D01*
X105833942Y-112498142D02*
X105786323Y-112545761D01*
X105643466Y-112593380D01*
X105548228Y-112593380D01*
X105405371Y-112545761D01*
X105310133Y-112450523D01*
X105262514Y-112355285D01*
X105214895Y-112164809D01*
X105214895Y-112021952D01*
X105262514Y-111831476D01*
X105310133Y-111736238D01*
X105405371Y-111641000D01*
X105548228Y-111593380D01*
X105643466Y-111593380D01*
X105786323Y-111641000D01*
X105833942Y-111688619D01*
X106786323Y-112593380D02*
X106214895Y-112593380D01*
X106500609Y-112593380D02*
X106500609Y-111593380D01*
X106405371Y-111736238D01*
X106310133Y-111831476D01*
X106214895Y-111879095D01*
X107167276Y-111688619D02*
X107214895Y-111641000D01*
X107310133Y-111593380D01*
X107548228Y-111593380D01*
X107643466Y-111641000D01*
X107691085Y-111688619D01*
X107738704Y-111783857D01*
X107738704Y-111879095D01*
X107691085Y-112021952D01*
X107119657Y-112593380D01*
X107738704Y-112593380D01*
X123902742Y-101480857D02*
X123950361Y-101528476D01*
X123997980Y-101671333D01*
X123997980Y-101766571D01*
X123950361Y-101909428D01*
X123855123Y-102004666D01*
X123759885Y-102052285D01*
X123569409Y-102099904D01*
X123426552Y-102099904D01*
X123236076Y-102052285D01*
X123140838Y-102004666D01*
X123045600Y-101909428D01*
X122997980Y-101766571D01*
X122997980Y-101671333D01*
X123045600Y-101528476D01*
X123093219Y-101480857D01*
X123997980Y-100528476D02*
X123997980Y-101099904D01*
X123997980Y-100814190D02*
X122997980Y-100814190D01*
X123140838Y-100909428D01*
X123236076Y-101004666D01*
X123283695Y-101099904D01*
X123997980Y-99576095D02*
X123997980Y-100147523D01*
X123997980Y-99861809D02*
X122997980Y-99861809D01*
X123140838Y-99957047D01*
X123236076Y-100052285D01*
X123283695Y-100147523D01*
X122750342Y-116790742D02*
X122702723Y-116838361D01*
X122559866Y-116885980D01*
X122464628Y-116885980D01*
X122321771Y-116838361D01*
X122226533Y-116743123D01*
X122178914Y-116647885D01*
X122131295Y-116457409D01*
X122131295Y-116314552D01*
X122178914Y-116124076D01*
X122226533Y-116028838D01*
X122321771Y-115933600D01*
X122464628Y-115885980D01*
X122559866Y-115885980D01*
X122702723Y-115933600D01*
X122750342Y-115981219D01*
X123702723Y-116885980D02*
X123131295Y-116885980D01*
X123417009Y-116885980D02*
X123417009Y-115885980D01*
X123321771Y-116028838D01*
X123226533Y-116124076D01*
X123131295Y-116171695D01*
X124321771Y-115885980D02*
X124417009Y-115885980D01*
X124512247Y-115933600D01*
X124559866Y-115981219D01*
X124607485Y-116076457D01*
X124655104Y-116266933D01*
X124655104Y-116505028D01*
X124607485Y-116695504D01*
X124559866Y-116790742D01*
X124512247Y-116838361D01*
X124417009Y-116885980D01*
X124321771Y-116885980D01*
X124226533Y-116838361D01*
X124178914Y-116790742D01*
X124131295Y-116695504D01*
X124083676Y-116505028D01*
X124083676Y-116266933D01*
X124131295Y-116076457D01*
X124178914Y-115981219D01*
X124226533Y-115933600D01*
X124321771Y-115885980D01*
X106792733Y-114453942D02*
X106745114Y-114501561D01*
X106602257Y-114549180D01*
X106507019Y-114549180D01*
X106364161Y-114501561D01*
X106268923Y-114406323D01*
X106221304Y-114311085D01*
X106173685Y-114120609D01*
X106173685Y-113977752D01*
X106221304Y-113787276D01*
X106268923Y-113692038D01*
X106364161Y-113596800D01*
X106507019Y-113549180D01*
X106602257Y-113549180D01*
X106745114Y-113596800D01*
X106792733Y-113644419D01*
X107268923Y-114549180D02*
X107459400Y-114549180D01*
X107554638Y-114501561D01*
X107602257Y-114453942D01*
X107697495Y-114311085D01*
X107745114Y-114120609D01*
X107745114Y-113739657D01*
X107697495Y-113644419D01*
X107649876Y-113596800D01*
X107554638Y-113549180D01*
X107364161Y-113549180D01*
X107268923Y-113596800D01*
X107221304Y-113644419D01*
X107173685Y-113739657D01*
X107173685Y-113977752D01*
X107221304Y-114072990D01*
X107268923Y-114120609D01*
X107364161Y-114168228D01*
X107554638Y-114168228D01*
X107649876Y-114120609D01*
X107697495Y-114072990D01*
X107745114Y-113977752D01*
X125792502Y-101461866D02*
X125840121Y-101509485D01*
X125887740Y-101652342D01*
X125887740Y-101747580D01*
X125840121Y-101890438D01*
X125744883Y-101985676D01*
X125649645Y-102033295D01*
X125459169Y-102080914D01*
X125316312Y-102080914D01*
X125125836Y-102033295D01*
X125030598Y-101985676D01*
X124935360Y-101890438D01*
X124887740Y-101747580D01*
X124887740Y-101652342D01*
X124935360Y-101509485D01*
X124982979Y-101461866D01*
X125316312Y-100890438D02*
X125268693Y-100985676D01*
X125221074Y-101033295D01*
X125125836Y-101080914D01*
X125078217Y-101080914D01*
X124982979Y-101033295D01*
X124935360Y-100985676D01*
X124887740Y-100890438D01*
X124887740Y-100699961D01*
X124935360Y-100604723D01*
X124982979Y-100557104D01*
X125078217Y-100509485D01*
X125125836Y-100509485D01*
X125221074Y-100557104D01*
X125268693Y-100604723D01*
X125316312Y-100699961D01*
X125316312Y-100890438D01*
X125363931Y-100985676D01*
X125411550Y-101033295D01*
X125506788Y-101080914D01*
X125697264Y-101080914D01*
X125792502Y-101033295D01*
X125840121Y-100985676D01*
X125887740Y-100890438D01*
X125887740Y-100699961D01*
X125840121Y-100604723D01*
X125792502Y-100557104D01*
X125697264Y-100509485D01*
X125506788Y-100509485D01*
X125411550Y-100557104D01*
X125363931Y-100604723D01*
X125316312Y-100699961D01*
X112488742Y-114320580D02*
X112155409Y-113844390D01*
X111917314Y-114320580D02*
X111917314Y-113320580D01*
X112298266Y-113320580D01*
X112393504Y-113368200D01*
X112441123Y-113415819D01*
X112488742Y-113511057D01*
X112488742Y-113653914D01*
X112441123Y-113749152D01*
X112393504Y-113796771D01*
X112298266Y-113844390D01*
X111917314Y-113844390D01*
X113441123Y-114320580D02*
X112869695Y-114320580D01*
X113155409Y-114320580D02*
X113155409Y-113320580D01*
X113060171Y-113463438D01*
X112964933Y-113558676D01*
X112869695Y-113606295D01*
X114060171Y-113320580D02*
X114155409Y-113320580D01*
X114250647Y-113368200D01*
X114298266Y-113415819D01*
X114345885Y-113511057D01*
X114393504Y-113701533D01*
X114393504Y-113939628D01*
X114345885Y-114130104D01*
X114298266Y-114225342D01*
X114250647Y-114272961D01*
X114155409Y-114320580D01*
X114060171Y-114320580D01*
X113964933Y-114272961D01*
X113917314Y-114225342D01*
X113869695Y-114130104D01*
X113822076Y-113939628D01*
X113822076Y-113701533D01*
X113869695Y-113511057D01*
X113917314Y-113415819D01*
X113964933Y-113368200D01*
X114060171Y-113320580D01*
X107935733Y-103201742D02*
X107888114Y-103249361D01*
X107745257Y-103296980D01*
X107650019Y-103296980D01*
X107507161Y-103249361D01*
X107411923Y-103154123D01*
X107364304Y-103058885D01*
X107316685Y-102868409D01*
X107316685Y-102725552D01*
X107364304Y-102535076D01*
X107411923Y-102439838D01*
X107507161Y-102344600D01*
X107650019Y-102296980D01*
X107745257Y-102296980D01*
X107888114Y-102344600D01*
X107935733Y-102392219D01*
X108269066Y-102296980D02*
X108935733Y-102296980D01*
X108507161Y-103296980D01*
X107935733Y-101322142D02*
X107888114Y-101369761D01*
X107745257Y-101417380D01*
X107650019Y-101417380D01*
X107507161Y-101369761D01*
X107411923Y-101274523D01*
X107364304Y-101179285D01*
X107316685Y-100988809D01*
X107316685Y-100845952D01*
X107364304Y-100655476D01*
X107411923Y-100560238D01*
X107507161Y-100465000D01*
X107650019Y-100417380D01*
X107745257Y-100417380D01*
X107888114Y-100465000D01*
X107935733Y-100512619D01*
X108792876Y-100417380D02*
X108602400Y-100417380D01*
X108507161Y-100465000D01*
X108459542Y-100512619D01*
X108364304Y-100655476D01*
X108316685Y-100845952D01*
X108316685Y-101226904D01*
X108364304Y-101322142D01*
X108411923Y-101369761D01*
X108507161Y-101417380D01*
X108697638Y-101417380D01*
X108792876Y-101369761D01*
X108840495Y-101322142D01*
X108888114Y-101226904D01*
X108888114Y-100988809D01*
X108840495Y-100893571D01*
X108792876Y-100845952D01*
X108697638Y-100798333D01*
X108507161Y-100798333D01*
X108411923Y-100845952D01*
X108364304Y-100893571D01*
X108316685Y-100988809D01*
X112607814Y-121630285D02*
X112607814Y-122344571D01*
X112107814Y-120844571D02*
X112607814Y-121630285D01*
X113107814Y-120844571D01*
X114393528Y-122344571D02*
X113536385Y-122344571D01*
X113964957Y-122344571D02*
X113964957Y-120844571D01*
X113822100Y-121058857D01*
X113679242Y-121201714D01*
X113536385Y-121273142D01*
X99009295Y-93965780D02*
X99009295Y-94775304D01*
X99056914Y-94870542D01*
X99104533Y-94918161D01*
X99199771Y-94965780D01*
X99390247Y-94965780D01*
X99485485Y-94918161D01*
X99533104Y-94870542D01*
X99580723Y-94775304D01*
X99580723Y-93965780D01*
X100580723Y-94965780D02*
X100009295Y-94965780D01*
X100295009Y-94965780D02*
X100295009Y-93965780D01*
X100199771Y-94108638D01*
X100104533Y-94203876D01*
X100009295Y-94251495D01*
X125258533Y-108313480D02*
X124925200Y-107837290D01*
X124687104Y-108313480D02*
X124687104Y-107313480D01*
X125068057Y-107313480D01*
X125163295Y-107361100D01*
X125210914Y-107408719D01*
X125258533Y-107503957D01*
X125258533Y-107646814D01*
X125210914Y-107742052D01*
X125163295Y-107789671D01*
X125068057Y-107837290D01*
X124687104Y-107837290D01*
X125734723Y-108313480D02*
X125925200Y-108313480D01*
X126020438Y-108265861D01*
X126068057Y-108218242D01*
X126163295Y-108075385D01*
X126210914Y-107884909D01*
X126210914Y-107503957D01*
X126163295Y-107408719D01*
X126115676Y-107361100D01*
X126020438Y-107313480D01*
X125829961Y-107313480D01*
X125734723Y-107361100D01*
X125687104Y-107408719D01*
X125639485Y-107503957D01*
X125639485Y-107742052D01*
X125687104Y-107837290D01*
X125734723Y-107884909D01*
X125829961Y-107932528D01*
X126020438Y-107932528D01*
X126115676Y-107884909D01*
X126163295Y-107837290D01*
X126210914Y-107742052D01*
X110107433Y-107513380D02*
X109774100Y-107037190D01*
X109536004Y-107513380D02*
X109536004Y-106513380D01*
X109916957Y-106513380D01*
X110012195Y-106561000D01*
X110059814Y-106608619D01*
X110107433Y-106703857D01*
X110107433Y-106846714D01*
X110059814Y-106941952D01*
X110012195Y-106989571D01*
X109916957Y-107037190D01*
X109536004Y-107037190D01*
X110678861Y-106941952D02*
X110583623Y-106894333D01*
X110536004Y-106846714D01*
X110488385Y-106751476D01*
X110488385Y-106703857D01*
X110536004Y-106608619D01*
X110583623Y-106561000D01*
X110678861Y-106513380D01*
X110869338Y-106513380D01*
X110964576Y-106561000D01*
X111012195Y-106608619D01*
X111059814Y-106703857D01*
X111059814Y-106751476D01*
X111012195Y-106846714D01*
X110964576Y-106894333D01*
X110869338Y-106941952D01*
X110678861Y-106941952D01*
X110583623Y-106989571D01*
X110536004Y-107037190D01*
X110488385Y-107132428D01*
X110488385Y-107322904D01*
X110536004Y-107418142D01*
X110583623Y-107465761D01*
X110678861Y-107513380D01*
X110869338Y-107513380D01*
X110964576Y-107465761D01*
X111012195Y-107418142D01*
X111059814Y-107322904D01*
X111059814Y-107132428D01*
X111012195Y-107037190D01*
X110964576Y-106989571D01*
X110869338Y-106941952D01*
X116444733Y-114320580D02*
X116111400Y-113844390D01*
X115873304Y-114320580D02*
X115873304Y-113320580D01*
X116254257Y-113320580D01*
X116349495Y-113368200D01*
X116397114Y-113415819D01*
X116444733Y-113511057D01*
X116444733Y-113653914D01*
X116397114Y-113749152D01*
X116349495Y-113796771D01*
X116254257Y-113844390D01*
X115873304Y-113844390D01*
X116778066Y-113320580D02*
X117444733Y-113320580D01*
X117016161Y-114320580D01*
X103744733Y-114574580D02*
X103411400Y-114098390D01*
X103173304Y-114574580D02*
X103173304Y-113574580D01*
X103554257Y-113574580D01*
X103649495Y-113622200D01*
X103697114Y-113669819D01*
X103744733Y-113765057D01*
X103744733Y-113907914D01*
X103697114Y-114003152D01*
X103649495Y-114050771D01*
X103554257Y-114098390D01*
X103173304Y-114098390D01*
X104601876Y-113574580D02*
X104411400Y-113574580D01*
X104316161Y-113622200D01*
X104268542Y-113669819D01*
X104173304Y-113812676D01*
X104125685Y-114003152D01*
X104125685Y-114384104D01*
X104173304Y-114479342D01*
X104220923Y-114526961D01*
X104316161Y-114574580D01*
X104506638Y-114574580D01*
X104601876Y-114526961D01*
X104649495Y-114479342D01*
X104697114Y-114384104D01*
X104697114Y-114146009D01*
X104649495Y-114050771D01*
X104601876Y-114003152D01*
X104506638Y-113955533D01*
X104316161Y-113955533D01*
X104220923Y-114003152D01*
X104173304Y-114050771D01*
X104125685Y-114146009D01*
X110941267Y-95579030D02*
X111042282Y-95006610D01*
X110537206Y-95174969D02*
X111244312Y-94467862D01*
X111513687Y-94737236D01*
X111547358Y-94838251D01*
X111547358Y-94905595D01*
X111513687Y-95006610D01*
X111412671Y-95107625D01*
X111311656Y-95141297D01*
X111244312Y-95141297D01*
X111143297Y-95107625D01*
X110873923Y-94838251D01*
X112018763Y-95713717D02*
X111547358Y-96185122D01*
X112119778Y-95275984D02*
X111446343Y-95612702D01*
X111884076Y-96050435D01*
X112211267Y-94309030D02*
X112312282Y-93736610D01*
X111807206Y-93904969D02*
X112514312Y-93197862D01*
X112783687Y-93467236D01*
X112817358Y-93568251D01*
X112817358Y-93635595D01*
X112783687Y-93736610D01*
X112682671Y-93837625D01*
X112581656Y-93871297D01*
X112514312Y-93871297D01*
X112413297Y-93837625D01*
X112143923Y-93568251D01*
X113154076Y-93837625D02*
X113591809Y-94275358D01*
X113086732Y-94309030D01*
X113187748Y-94410045D01*
X113221419Y-94511061D01*
X113221419Y-94578404D01*
X113187748Y-94679419D01*
X113019389Y-94847778D01*
X112918374Y-94881450D01*
X112851030Y-94881450D01*
X112750015Y-94847778D01*
X112547984Y-94645748D01*
X112514312Y-94544732D01*
X112514312Y-94477389D01*
X95597671Y-106598933D02*
X95597671Y-106932266D01*
X96121480Y-106932266D02*
X95121480Y-106932266D01*
X95121480Y-106456076D01*
X95597671Y-105741790D02*
X95645290Y-105598933D01*
X95692909Y-105551314D01*
X95788147Y-105503695D01*
X95931004Y-105503695D01*
X96026242Y-105551314D01*
X96073861Y-105598933D01*
X96121480Y-105694171D01*
X96121480Y-106075123D01*
X95121480Y-106075123D01*
X95121480Y-105741790D01*
X95169100Y-105646552D01*
X95216719Y-105598933D01*
X95311957Y-105551314D01*
X95407195Y-105551314D01*
X95502433Y-105598933D01*
X95550052Y-105646552D01*
X95597671Y-105741790D01*
X95597671Y-106075123D01*
X96121480Y-104551314D02*
X96121480Y-105122742D01*
X96121480Y-104837028D02*
X95121480Y-104837028D01*
X95264338Y-104932266D01*
X95359576Y-105027504D01*
X95407195Y-105122742D01*
X103071704Y-116235740D02*
X103071704Y-115235740D01*
X103309800Y-115235740D01*
X103452657Y-115283360D01*
X103547895Y-115378598D01*
X103595514Y-115473836D01*
X103643133Y-115664312D01*
X103643133Y-115807169D01*
X103595514Y-115997645D01*
X103547895Y-116092883D01*
X103452657Y-116188121D01*
X103309800Y-116235740D01*
X103071704Y-116235740D01*
X104595514Y-116235740D02*
X104024085Y-116235740D01*
X104309800Y-116235740D02*
X104309800Y-115235740D01*
X104214561Y-115378598D01*
X104119323Y-115473836D01*
X104024085Y-115521455D01*
X117384533Y-121007142D02*
X117336914Y-121054761D01*
X117194057Y-121102380D01*
X117098819Y-121102380D01*
X116955961Y-121054761D01*
X116860723Y-120959523D01*
X116813104Y-120864285D01*
X116765485Y-120673809D01*
X116765485Y-120530952D01*
X116813104Y-120340476D01*
X116860723Y-120245238D01*
X116955961Y-120150000D01*
X117098819Y-120102380D01*
X117194057Y-120102380D01*
X117336914Y-120150000D01*
X117384533Y-120197619D01*
X118289295Y-120102380D02*
X117813104Y-120102380D01*
X117765485Y-120578571D01*
X117813104Y-120530952D01*
X117908342Y-120483333D01*
X118146438Y-120483333D01*
X118241676Y-120530952D01*
X118289295Y-120578571D01*
X118336914Y-120673809D01*
X118336914Y-120911904D01*
X118289295Y-121007142D01*
X118241676Y-121054761D01*
X118146438Y-121102380D01*
X117908342Y-121102380D01*
X117813104Y-121054761D01*
X117765485Y-121007142D01*
X108215133Y-121718342D02*
X108167514Y-121765961D01*
X108024657Y-121813580D01*
X107929419Y-121813580D01*
X107786561Y-121765961D01*
X107691323Y-121670723D01*
X107643704Y-121575485D01*
X107596085Y-121385009D01*
X107596085Y-121242152D01*
X107643704Y-121051676D01*
X107691323Y-120956438D01*
X107786561Y-120861200D01*
X107929419Y-120813580D01*
X108024657Y-120813580D01*
X108167514Y-120861200D01*
X108215133Y-120908819D01*
X109072276Y-121146914D02*
X109072276Y-121813580D01*
X108834180Y-120765961D02*
X108596085Y-121480247D01*
X109215133Y-121480247D01*
X103490733Y-111609142D02*
X103443114Y-111656761D01*
X103300257Y-111704380D01*
X103205019Y-111704380D01*
X103062161Y-111656761D01*
X102966923Y-111561523D01*
X102919304Y-111466285D01*
X102871685Y-111275809D01*
X102871685Y-111132952D01*
X102919304Y-110942476D01*
X102966923Y-110847238D01*
X103062161Y-110752000D01*
X103205019Y-110704380D01*
X103300257Y-110704380D01*
X103443114Y-110752000D01*
X103490733Y-110799619D01*
X103824066Y-110704380D02*
X104443114Y-110704380D01*
X104109780Y-111085333D01*
X104252638Y-111085333D01*
X104347876Y-111132952D01*
X104395495Y-111180571D01*
X104443114Y-111275809D01*
X104443114Y-111513904D01*
X104395495Y-111609142D01*
X104347876Y-111656761D01*
X104252638Y-111704380D01*
X103966923Y-111704380D01*
X103871685Y-111656761D01*
X103824066Y-111609142D01*
X94108542Y-105500466D02*
X94156161Y-105548085D01*
X94203780Y-105690942D01*
X94203780Y-105786180D01*
X94156161Y-105929038D01*
X94060923Y-106024276D01*
X93965685Y-106071895D01*
X93775209Y-106119514D01*
X93632352Y-106119514D01*
X93441876Y-106071895D01*
X93346638Y-106024276D01*
X93251400Y-105929038D01*
X93203780Y-105786180D01*
X93203780Y-105690942D01*
X93251400Y-105548085D01*
X93299019Y-105500466D01*
X93299019Y-105119514D02*
X93251400Y-105071895D01*
X93203780Y-104976657D01*
X93203780Y-104738561D01*
X93251400Y-104643323D01*
X93299019Y-104595704D01*
X93394257Y-104548085D01*
X93489495Y-104548085D01*
X93632352Y-104595704D01*
X94203780Y-105167133D01*
X94203780Y-104548085D01*
X100125233Y-111609142D02*
X100077614Y-111656761D01*
X99934757Y-111704380D01*
X99839519Y-111704380D01*
X99696661Y-111656761D01*
X99601423Y-111561523D01*
X99553804Y-111466285D01*
X99506185Y-111275809D01*
X99506185Y-111132952D01*
X99553804Y-110942476D01*
X99601423Y-110847238D01*
X99696661Y-110752000D01*
X99839519Y-110704380D01*
X99934757Y-110704380D01*
X100077614Y-110752000D01*
X100125233Y-110799619D01*
X101077614Y-111704380D02*
X100506185Y-111704380D01*
X100791900Y-111704380D02*
X100791900Y-110704380D01*
X100696661Y-110847238D01*
X100601423Y-110942476D01*
X100506185Y-110990095D01*
X91519120Y-88860891D02*
X91519120Y-89932320D01*
X91447691Y-90146605D01*
X91304834Y-90289462D01*
X91090548Y-90360891D01*
X90947691Y-90360891D01*
X93019120Y-90360891D02*
X92161977Y-90360891D01*
X92590548Y-90360891D02*
X92590548Y-88860891D01*
X92447691Y-89075177D01*
X92304834Y-89218034D01*
X92161977Y-89289462D01*
M02*
