G04 #@! TF.GenerationSoftware,KiCad,Pcbnew,(5.1.4)-1*
G04 #@! TF.CreationDate,2020-06-13T17:24:10-04:00*
G04 #@! TF.ProjectId,Keypad,4b657970-6164-42e6-9b69-6361645f7063,rev?*
G04 #@! TF.SameCoordinates,Original*
G04 #@! TF.FileFunction,Paste,Top*
G04 #@! TF.FilePolarity,Positive*
%FSLAX46Y46*%
G04 Gerber Fmt 4.6, Leading zero omitted, Abs format (unit mm)*
G04 Created by KiCad (PCBNEW (5.1.4)-1) date 2020-06-13 17:24:10*
%MOMM*%
%LPD*%
G04 APERTURE LIST*
%ADD10R,0.975000X1.400000*%
%ADD11R,1.400000X0.975000*%
%ADD12R,1.800000X1.200000*%
%ADD13R,2.000000X0.300000*%
%ADD14R,0.300000X2.000000*%
%ADD15R,3.450000X2.150000*%
%ADD16R,0.558800X2.057400*%
%ADD17R,0.480000X0.250000*%
%ADD18C,0.975000*%
%ADD19C,0.100000*%
%ADD20R,0.800000X0.800000*%
%ADD21R,1.350000X0.400000*%
%ADD22R,1.400000X1.600000*%
%ADD23R,1.900000X1.900000*%
G04 APERTURE END LIST*
D10*
X103172500Y-91084400D03*
X101297500Y-91084400D03*
X103291400Y-95465900D03*
X105166400Y-95465900D03*
X119293400Y-114531140D03*
X121168400Y-114531140D03*
X110576600Y-112141000D03*
X108701600Y-112141000D03*
D11*
X123530360Y-104922560D03*
X123530360Y-103047560D03*
D10*
X119290860Y-116433600D03*
X121165860Y-116433600D03*
X110589300Y-114035840D03*
X108714300Y-114035840D03*
D11*
X125435360Y-104925100D03*
X125435360Y-103050100D03*
D10*
X112206800Y-115420140D03*
X114081800Y-115420140D03*
X111704360Y-102844600D03*
X109829360Y-102844600D03*
X111706900Y-100967540D03*
X109831900Y-100967540D03*
D12*
X115354100Y-119687040D03*
X111354100Y-119687040D03*
X111354100Y-117287040D03*
X115354100Y-117287040D03*
D13*
X112575900Y-110423140D03*
X112575900Y-109923140D03*
X112575900Y-109423140D03*
X112575900Y-108923140D03*
X112575900Y-108423140D03*
X112575900Y-107923140D03*
X112575900Y-107423140D03*
X112575900Y-106923140D03*
X112575900Y-106423140D03*
X112575900Y-105923140D03*
X112575900Y-105423140D03*
X112575900Y-104923140D03*
D14*
X114178900Y-103320140D03*
X114678900Y-103320140D03*
X115178900Y-103320140D03*
X115678900Y-103320140D03*
X116178900Y-103320140D03*
X116678900Y-103320140D03*
X117178900Y-103320140D03*
X117678900Y-103320140D03*
X118178900Y-103320140D03*
X118678900Y-103320140D03*
X119178900Y-103320140D03*
X119678900Y-103320140D03*
D13*
X121281900Y-104923140D03*
X121281900Y-105423140D03*
X121281900Y-105923140D03*
X121281900Y-106423140D03*
X121281900Y-106923140D03*
X121281900Y-107423140D03*
X121281900Y-107923140D03*
X121281900Y-108423140D03*
X121281900Y-108923140D03*
X121281900Y-109423140D03*
X121281900Y-109923140D03*
X121281900Y-110423140D03*
D14*
X119678900Y-112026140D03*
X119178900Y-112026140D03*
X118678900Y-112026140D03*
X118178900Y-112026140D03*
X117678900Y-112026140D03*
X117178900Y-112026140D03*
X116678900Y-112026140D03*
X116178900Y-112026140D03*
X115678900Y-112026140D03*
X115178900Y-112026140D03*
X114678900Y-112026140D03*
X114178900Y-112026140D03*
D15*
X101993700Y-101208840D03*
D16*
X104533700Y-107152440D03*
X103263700Y-107152440D03*
X101993700Y-107152440D03*
X100723700Y-107152440D03*
X99453700Y-107152440D03*
D17*
X98407440Y-95629480D03*
X98407440Y-95129480D03*
X98407440Y-94629480D03*
X98407440Y-94129480D03*
X98407440Y-93629480D03*
X97627440Y-95629480D03*
X97627440Y-95129480D03*
X97627440Y-94629480D03*
X97627440Y-94129480D03*
X97627440Y-93629480D03*
D11*
X123532900Y-108801140D03*
X123532900Y-106926140D03*
X110286800Y-110299740D03*
X110286800Y-108424740D03*
D10*
X117548900Y-115420140D03*
X115673900Y-115420140D03*
X102220000Y-114124740D03*
X100345000Y-114124740D03*
D18*
X112621087Y-96720687D03*
D19*
G36*
X111781398Y-96870947D02*
G01*
X112771347Y-95880998D01*
X113460776Y-96570427D01*
X112470827Y-97560376D01*
X111781398Y-96870947D01*
X111781398Y-96870947D01*
G37*
D18*
X113946913Y-98046513D03*
D19*
G36*
X113107224Y-98196773D02*
G01*
X114097173Y-97206824D01*
X114786602Y-97896253D01*
X113796653Y-98886202D01*
X113107224Y-98196773D01*
X113107224Y-98196773D01*
G37*
D18*
X113941887Y-95399887D03*
D19*
G36*
X113102198Y-95550147D02*
G01*
X114092147Y-94560198D01*
X114781576Y-95249627D01*
X113791627Y-96239576D01*
X113102198Y-95550147D01*
X113102198Y-95550147D01*
G37*
D18*
X115267713Y-96725713D03*
D19*
G36*
X114428024Y-96875973D02*
G01*
X115417973Y-95886024D01*
X116107402Y-96575453D01*
X115117453Y-97565402D01*
X114428024Y-96875973D01*
X114428024Y-96875973D01*
G37*
D11*
X95664020Y-101729300D03*
X95664020Y-103604300D03*
D20*
X101981000Y-115775740D03*
X100520500Y-115775740D03*
D11*
X117551200Y-119159260D03*
X117551200Y-117284260D03*
D10*
X107446840Y-119684800D03*
X109321840Y-119684800D03*
X102719900Y-109578140D03*
X104594900Y-109578140D03*
D11*
X93759020Y-103604300D03*
X93759020Y-101729300D03*
D10*
X99354400Y-109578140D03*
X101229400Y-109578140D03*
D21*
X93492700Y-93673140D03*
X93492700Y-94323140D03*
X93492700Y-94973140D03*
X93492700Y-95623140D03*
X93492700Y-96273140D03*
D22*
X93267700Y-91773140D03*
X93267700Y-98173140D03*
D23*
X90817700Y-93773140D03*
X90817700Y-96173140D03*
M02*
