M48
; DRILL file {KiCad (5.1.4)-1} date 6/13/2020 5:24:12 PM
; FORMAT={-:-/ absolute / metric / decimal}
; #@! TF.CreationDate,2020-06-13T17:24:12-04:00
; #@! TF.GenerationSoftware,Kicad,Pcbnew,(5.1.4)-1
FMAT,2
METRIC
T1C0.250
T2C0.400
T3C0.500
T4C0.750
T5C0.850
T6C1.200
T7C2.200
T8C4.000
%
G90
G05
T1
X94.996Y-93.218
X94.996Y-96.71
X96.248Y-96.507
X96.52Y-95.504
X96.799Y-94.722
X99.314Y-94.894
X99.403Y-100.561
X99.403Y-102.593
X99.403Y-104.625
X101.943Y-103.609
X103.083Y-115.778
X104.43Y-91.092
X104.483Y-100.561
X104.483Y-102.593
X104.483Y-104.625
X105.166Y-97.015
X106.185Y-119.675
X107.442Y-112.144
X107.442Y-114.036
X108.572Y-100.955
X108.572Y-102.834
X108.763Y-110.302
X109.715Y-117.287
X110.698Y-106.919
X110.706Y-104.93
X113.754Y-119.687
X114.288Y-109.923
X114.643Y-100.053
X114.679Y-105.042
X117.678Y-110.315
X119.113Y-119.167
X119.547Y-105.423
X122.428Y-114.531
X122.428Y-116.436
X123.528Y-101.793
X123.533Y-110.035
X125.433Y-101.793
T2
X92.177Y-101.727
T4
X98.603Y-87.401
X99.873Y-88.671
X101.143Y-87.401
T5
X93.434Y-76.685
X93.434Y-79.225
X93.434Y-81.765
X93.434Y-84.305
T6
X136.136Y-111.483
X138.676Y-117.833
X174.257Y-92.464
X176.797Y-98.814
X155.197Y-73.447
X157.737Y-79.797
X155.197Y-92.464
X157.737Y-98.814
X174.257Y-73.447
X176.797Y-79.797
X136.136Y-92.464
X138.676Y-98.814
X174.257Y-111.483
X176.797Y-117.833
X155.197Y-111.483
X157.737Y-117.833
X136.136Y-73.447
X138.676Y-79.797
T7
X93.561Y-119.23
X193.891Y-70.716
X93.561Y-70.716
X193.891Y-119.23
T8
X179.337Y-114.023
X160.277Y-114.023
X141.216Y-75.987
X141.216Y-114.023
X179.337Y-95.004
X160.277Y-75.987
X160.277Y-95.004
X179.337Y-75.987
X141.216Y-95.004
T3
G00X91.168Y-91.673
M15
G01X90.468Y-91.673
M16
G05
G00X91.168Y-98.273
M15
G01X90.468Y-98.273
M16
G05
T0
M30
